<?xml version="1.0" encoding="UTF-8"?>
<svg version="1.1" xmlns="http://www.w3.org/2000/svg" width="500" height="195">
<path d="M0 0 C165 0 330 0 500 0 C500 64.35 500 128.7 500 195 C335 195 170 195 0 195 C0 130.65 0 66.3 0 0 Z " fill="#FEFEFE" transform="translate(0,0)"/>
<path d="M0 0 C31.02 0 62.04 0 94 0 C94 8.25 94 16.5 94 25 C77.17 25 60.34 25 43 25 C43 34.24 43 43.48 43 53 C57.85 53 72.7 53 88 53 C88 60.92 88 68.84 88 77 C73.15 77 58.3 77 43 77 C43 86.9 43 96.8 43 107 C59.83 107 76.66 107 94 107 C94 115.91 94 124.82 94 134 C62.98 134 31.96 134 0 134 C0 89.78 0 45.56 0 0 Z " fill="#020202" transform="translate(153,31)"/>
<path d="M0 0 C6.00311821 17.93932985 12.00110757 35.88036655 17.9929657 53.82346058 C20.77509448 62.15436611 23.55891031 70.48470081 26.34667969 78.8137207 C28.77597931 86.07175448 31.20213238 93.33083097 33.62448406 100.5911867 C34.90767021 104.43682803 36.19244532 108.28192213 37.48098755 112.12577248 C38.69305405 115.74165264 39.90091732 119.35890902 41.1055336 122.97727776 C41.54901866 124.3069057 41.99405353 125.63601785 42.44073105 126.96457672 C43.04918643 128.77507099 43.6515913 130.58759535 44.25366211 132.40022278 C44.59288193 133.41511685 44.93210175 134.43001093 45.28160095 135.47565937 C46 138 46 138 46 141 C33.79 144.96 21.58 148.92 9 153 C7.38480469 148.15183594 5.76960938 143.30367187 4.10546875 138.30859375 C-0.00592761 125.97078018 -4.12342117 113.63501902 -8.24687386 101.30122948 C-11.24359988 92.33757051 -14.23824378 83.37321748 -17.23171806 74.40847206 C-19.1720495 68.5980472 -21.11356054 62.78802109 -23.05737305 56.97875977 C-24.97359682 51.25176594 -26.88691337 45.5238085 -28.79819679 39.79516411 C-29.5191959 37.63584822 -30.24124712 35.47688332 -30.96439171 33.31828499 C-31.96431305 30.33298344 -32.96050613 27.34646259 -33.95581055 24.35961914 C-34.25128784 23.48037781 -34.54676514 22.60113647 -34.85119629 21.69525146 C-36.1389456 17.8188963 -37.34576425 14.0449554 -38 10 C-33.39702923 8.39964577 -28.78897449 6.81528849 -24.17553711 5.24536133 C-22.60764004 4.70933783 -21.04120735 4.16901052 -19.47631836 3.62426758 C-17.22362646 2.84094029 -14.96608122 2.07336102 -12.70703125 1.30859375 C-12.01100296 1.06282089 -11.31497467 0.81704803 -10.59785461 0.56382751 C-6.58479914 -0.77508176 -4.06953524 -0.99451934 0 0 Z " fill="#010101" transform="translate(299,26)"/>
</svg>
