<?xml version="1.0" encoding="UTF-8"?>
<svg version="1.1" xmlns="http://www.w3.org/2000/svg" width="500" height="183">
<path d="M0 0 C165 0 330 0 500 0 C500 60.39 500 120.78 500 183 C335 183 170 183 0 183 C0 122.61 0 62.22 0 0 Z " fill="#000000" transform="translate(0,0)"/>
<path d="M0 0 C4.62 0 9.24 0 14 0 C15.32 8.91 16.64 17.82 18 27 C19.27500627 18.86311684 19.27500627 18.86311684 20.54272461 10.72509766 C20.70264893 9.71495605 20.86257324 8.70481445 21.02734375 7.6640625 C21.18968506 6.62717285 21.35202637 5.5902832 21.51928711 4.52197266 C22 2 22 2 23 0 C24.97909398 -0.02686553 26.95828971 -0.04633375 28.9375 -0.0625 C30.03964844 -0.07410156 31.14179688 -0.08570312 32.27734375 -0.09765625 C35 0 35 0 36 1 C36.37056207 3.13962428 36.68383519 5.28922348 36.97265625 7.44140625 C37.13258057 8.61646729 37.29250488 9.79152832 37.45727539 11.00219727 C37.65699951 12.50709717 37.85672363 14.01199707 38.0625 15.5625 C38.701875 20.326875 39.34125 25.09125 40 30 C41.32 20.1 42.64 10.2 44 0 C47.63 0 51.26 0 55 0 C53.71995714 8.53361907 52.34782737 17.04952934 50.9375 25.5625 C50.7631543 26.62146484 50.58880859 27.68042969 50.40917969 28.77148438 C50.24192383 29.77630859 50.07466797 30.78113281 49.90234375 31.81640625 C49.75273193 32.71818604 49.60312012 33.61996582 49.44897461 34.54907227 C49.05186256 36.71688515 48.53452071 38.86191715 48 41 C42.72 41 37.44 41 32 41 C31.505 38.628125 31.01 36.25625 30.5 33.8125 C30.34337891 33.07491455 30.18675781 32.3373291 30.02539062 31.57739258 C29.29377874 27.99433304 28.82961695 24.65613624 29 21 C28.34 21 27.68 21 27 21 C26.95101563 21.68964844 26.90203125 22.37929687 26.8515625 23.08984375 C26.36271949 29.23409469 25.47174401 35.0149077 24 41 C18.39 41 12.78 41 7 41 C5.0223052 32.89145133 3.33208305 24.76797661 1.8125 16.5625 C1.63364258 15.61552246 1.45478516 14.66854492 1.27050781 13.69287109 C1.10518555 12.7848877 0.93986328 11.8769043 0.76953125 10.94140625 C0.62104736 10.13388916 0.47256348 9.32637207 0.31958008 8.49438477 C0 6 0 6 0 0 Z " fill="#F6F6F6" transform="translate(276,72)"/>
<path d="M0 0 C2.1134224 1.20882894 3.73161612 2.46497515 5.47265625 4.1640625 C5.99730469 4.67582031 6.52195312 5.18757813 7.0625 5.71484375 C11.39924773 11.13277513 11.30562081 17.72281816 10.96484375 24.36328125 C10.16952737 30.50489107 7.87288625 33.84125927 3.53515625 38.0390625 C-2.60859997 41.39020226 -8.63569661 41.96658327 -15.52734375 41.1640625 C-20.93600733 39.38476383 -24.30934886 35.66925535 -27.52734375 31.1640625 C-30.41958338 25.11572981 -30.66884385 18.2720958 -28.875 11.81640625 C-23.62281216 0.1173269 -12.09459495 -4.00037607 0 0 Z " fill="#F7F7F7" transform="translate(364.52734375,72.8359375)"/>
<path d="M0 0 C12 0 12 0 15.0703125 3.0625 C15.80085697 4.35015032 16.48570355 5.66469532 17.125 7 C18.38758499 9.35258642 19.67950777 11.67877598 21 14 C21.66 14 22.32 14 23 14 C25.16848231 9.86435038 25.16848231 9.86435038 27.11132812 5.62109375 C28.05078125 3.84375 28.05078125 3.84375 31 1 C35.29 1 39.58 1 44 1 C44 14.2 44 27.4 44 41 C39.71 41 35.42 41 31 41 C30.505 31.595 30.505 31.595 30 22 C27.36 26.29 24.72 30.58 22 35 C18 34 18 34 15.859375 31.05859375 C15.14130122 29.86039541 14.44116445 28.65141964 13.75 27.4375 C12.5125 25.313125 11.275 23.18875 10 21 C9.67 27.6 9.34 34.2 9 41 C6.03 41 3.06 41 0 41 C0 27.47 0 13.94 0 0 Z " fill="#FAFAFA" transform="translate(107,72)"/>
<path d="M0 0 C6.001875 -0.0928125 6.001875 -0.0928125 12.125 -0.1875 C13.37555176 -0.21481201 14.62610352 -0.24212402 15.91455078 -0.27026367 C26.24820023 -0.34767864 26.24820023 -0.34767864 31 3 C33.85013152 6.15825385 35.86065053 8.46715584 36.25 12.75 C35.95529683 16.58114115 35.11200231 18.79558271 33 22 C30.3125 23.375 30.3125 23.375 28 24 C29.53537089 27.76165868 31.12103205 31.31200625 33.1875 34.8125 C35 38 35 38 35 40 C30.38 40 25.76 40 21 40 C16.57142857 31.57142857 16.57142857 31.57142857 16 27 C15.01 26.67 14.02 26.34 13 26 C13 30.62 13 35.24 13 40 C8.71 40 4.42 40 0 40 C0 26.8 0 13.6 0 0 Z " fill="#FAFAFA" transform="translate(383,73)"/>
<path d="M0 0 C13 0 13 0 17.33203125 3.9375 C18.53533527 5.59450881 19.6953683 7.28371461 20.8125 9 C21.72612305 10.28777344 21.72612305 10.28777344 22.65820312 11.6015625 C24.14414027 13.70761515 25.57765451 15.85048837 27 18 C27.33 12.06 27.66 6.12 28 0 C30.97 0 33.94 0 37 0 C37 13.2 37 26.4 37 40 C32.71 40 28.42 40 24 40 C20.70014033 36.66566887 18.90906844 34.43887166 16.6875 30.5 C16.12611328 29.59378906 15.56472656 28.68757813 14.98632812 27.75390625 C13.61558251 25.5279091 12.3018187 23.26699689 11 21 C10.67 27.27 10.34 33.54 10 40 C6.7 40 3.4 40 0 40 C0 26.8 0 13.6 0 0 Z " fill="#FBFBFB" transform="translate(199,73)"/>
<path d="M0 0 C4.95 0 9.9 0 15 0 C13.1309917 5.6070249 10.93676251 9.46700009 7.5703125 14.23242188 C6.30841793 16.06289245 6.30841793 16.06289245 5 19 C5.40309894 21.55083136 5.40309894 21.55083136 7 24 C7.65028814 25.23209794 8.29856111 26.46526063 8.9453125 27.69921875 C10.04196366 29.71506298 11.14643817 31.72640768 12.25390625 33.73632812 C15 38.79095124 15 38.79095124 15 41 C10.05 41 5.1 41 0 41 C-2.31 35.72 -4.62 30.44 -7 25 C-7.33 30.28 -7.66 35.56 -8 41 C-12.29 41 -16.58 41 -21 41 C-21 27.8 -21 14.6 -21 1 C-17.04 1 -13.08 1 -9 1 C-8.67 6.28 -8.34 11.56 -8 17 C-5.36 11.39 -2.72 5.78 0 0 Z " fill="#F8F8F8" transform="translate(446,72)"/>
<path d="M0 0 C1.03543945 -0.00483398 1.03543945 -0.00483398 2.09179688 -0.00976562 C6.44289771 0.0356013 10.01945562 0.7243871 14.0625 2.3125 C14.0625 5.2825 14.0625 8.2525 14.0625 11.3125 C12.7425 10.9825 11.4225 10.6525 10.0625 10.3125 C5.61295528 9.31117615 1.6107693 9.14710839 -2.9375 9.3125 C-3.2675 10.6325 -3.5975 11.9525 -3.9375 13.3125 C-3.28523438 13.49425781 -2.63296875 13.67601563 -1.9609375 13.86328125 C12.50862911 18.02488227 12.50862911 18.02488227 16.0625 24.3125 C16.75819039 28.61171025 16.53970649 32.15715797 14.875 36.1875 C12.34930906 39.14865489 9.49406157 40.59671921 6.0625 42.3125 C-1.16626697 42.7156608 -8.11337475 42.91216676 -14.9375 40.3125 C-14.9375 37.0125 -14.9375 33.7125 -14.9375 30.3125 C-13.98875 30.6425 -13.04 30.9725 -12.0625 31.3125 C-7.38302744 32.6769458 -2.76926241 32.48749341 2.0625 32.3125 C2.3925 30.9925 2.7225 29.6725 3.0625 28.3125 C2.18207031 28.00957031 1.30164063 27.70664063 0.39453125 27.39453125 C-11.37317507 23.14979811 -11.37317507 23.14979811 -14.9375 18.3125 C-16.43936547 13.80690359 -16.65339695 9.97036663 -14.75 5.5625 C-10.63120851 0.44951746 -6.28823591 -0.14596648 0 0 Z " fill="#F7F7F7" transform="translate(479.9375,71.6875)"/>
<path d="M0 0 C9.57 0 19.14 0 29 0 C29 2.64 29 5.28 29 8 C23.72 8 18.44 8 13 8 C13 10.64 13 13.28 13 16 C17.62 16 22.24 16 27 16 C27 18.64 27 21.28 27 24 C22.38 24 17.76 24 13 24 C13 26.97 13 29.94 13 33 C17.95 33 22.9 33 28 33 C28 35.64 28 38.28 28 41 C18.76 41 9.52 41 0 41 C0 27.47 0 13.94 0 0 Z " fill="#F6F6F6" transform="translate(161,72)"/>
<path d="M0 0 C9.57 0 19.14 0 29 0 C29 2.64 29 5.28 29 8 C23.72 8 18.44 8 13 8 C13 10.64 13 13.28 13 16 C17.62 16 22.24 16 27 16 C27 18.64 27 21.28 27 24 C22.38 24 17.76 24 13 24 C13 26.97 13 29.94 13 33 C17.95 33 22.9 33 28 33 C28 35.64 28 38.28 28 41 C18.76 41 9.52 41 0 41 C0 27.47 0 13.94 0 0 Z " fill="#F6F6F6" transform="translate(5,72)"/>
<path d="M0 0 C9.57 0 19.14 0 29 0 C29 2.64 29 5.28 29 8 C23.72 8 18.44 8 13 8 C13 10.97 13 13.94 13 17 C17.62 17 22.24 17 27 17 C27 19.31 27 21.62 27 24 C22.38 24 17.76 24 13 24 C13 26.97 13 29.94 13 33 C18.28 33 23.56 33 29 33 C29 35.64 29 38.28 29 41 C19.43 41 9.86 41 0 41 C0 27.47 0 13.94 0 0 Z " fill="#F6F6F6" transform="translate(69,72)"/>
<path d="M0 0 C10.23 0 20.46 0 31 0 C31 3.3 31 6.6 31 10 C28.03 10 25.06 10 22 10 C22 20.23 22 30.46 22 41 C17.71 41 13.42 41 9 41 C9 30.77 9 20.54 9 10 C6.03 10 3.06 10 0 10 C0 6.7 0 3.4 0 0 Z " fill="#F7F7F7" transform="translate(242,72)"/>
<path d="M0 0 C1.19580867 2.84230571 2.19788421 5.59562125 3.13671875 8.5234375 C3.42102249 9.38055328 3.70532623 10.23766907 3.99824524 11.12075806 C4.59796529 12.93640305 5.19190037 14.75396742 5.78051758 16.57324219 C6.6827922 19.36045714 7.60244012 22.14144659 8.52539062 24.921875 C9.10519735 26.68455714 9.68400681 28.44756769 10.26171875 30.2109375 C10.53666672 31.04539398 10.81161469 31.87985046 11.09489441 32.73959351 C11.34548111 33.51694855 11.59606781 34.29430359 11.85424805 35.09521484 C12.07614304 35.77836761 12.29803802 36.46152039 12.5266571 37.16537476 C13 39 13 39 13 42 C11.3767313 42.6708712 9.75132422 43.33657029 8.125 44 C7.22007813 44.37125 6.31515625 44.7425 5.3828125 45.125 C3 46 3 46 1 46 C0.74831055 45.1843457 0.49662109 44.36869141 0.23730469 43.52832031 C-0.71589404 40.44156402 -1.67030704 37.3551863 -2.62548828 34.26904297 C-3.03513904 32.94464431 -3.44433442 31.6201047 -3.85302734 30.29541016 C-6.22210916 22.61772241 -8.64506993 14.9693334 -11.29199219 7.38183594 C-12 5 -12 5 -12 2 C-10.56656 1.46809459 -9.12804633 0.94984742 -7.6875 0.4375 C-6.48673828 0.00244141 -6.48673828 0.00244141 -5.26171875 -0.44140625 C-3 -1 -3 -1 0 0 Z " fill="#F6F6F6" transform="translate(50,71)"/>
<path d="M0 0 C3.14280713 0.60181413 4.1248677 0.98665411 5.9375 3.5625 C7.08638581 7.00915742 7.1414347 9.80601905 7.1875 13.4375 C7.22617187 15.25894531 7.22617187 15.25894531 7.265625 17.1171875 C6.91314878 20.81818785 6.27890756 22.69481276 3.9375 25.5625 C0.38054044 26.07063708 -1.92237777 26.36058556 -4.9375 24.25 C-8.33943302 19.14710047 -7.57172099 12.41495529 -7.0625 6.5625 C-5.81398477 2.56725127 -4.2630463 0.7830085 0 0 Z " fill="#050505" transform="translate(355.0625,79.4375)"/>
<path d="M0 0 C6.34507042 0.59859155 6.34507042 0.59859155 8.9375 2.1875 C10.5339636 4.91087907 10.38630872 6.90953021 10 10 C8.9375 11.8125 8.9375 11.8125 7 13 C3.3125 13.6875 3.3125 13.6875 0 14 C0 9.38 0 4.76 0 0 Z " fill="#0C0C0C" transform="translate(396,79)"/>
</svg>
