<?xml version="1.0" encoding="UTF-8"?>
<svg version="1.1" xmlns="http://www.w3.org/2000/svg" width="512" height="512">
<path d="M0 0 C0.7917783 -0.00235223 1.58355659 -0.00470446 2.39932817 -0.00712797 C5.06877545 -0.01381745 7.73817405 -0.01335976 10.40762901 -0.01294994 C12.33436163 -0.0162486 14.26109356 -0.01997417 16.18782461 -0.02409142 C21.49541865 -0.03411932 26.80300139 -0.03782949 32.11060357 -0.04048073 C37.82993759 -0.04438142 43.54926263 -0.0539599 49.26859093 -0.0626936 C63.08689043 -0.08246426 76.90519067 -0.0925248 90.72350079 -0.10142139 C97.22837278 -0.10580314 103.73324396 -0.11117023 110.23811531 -0.11641026 C131.85743694 -0.13342284 153.4767574 -0.14794249 175.09608459 -0.155159 C176.49425223 -0.15563375 177.89241987 -0.15610964 179.29058751 -0.15658666 C179.98395141 -0.15682303 180.67731531 -0.15705941 181.39169024 -0.15730295 C184.90460205 -0.15850415 188.41751385 -0.1597196 191.93042564 -0.16094494 C192.97614651 -0.16130516 192.97614651 -0.16130516 194.04299305 -0.16167267 C216.64523501 -0.16956527 239.24742448 -0.19299635 261.84964352 -0.22550088 C285.74682717 -0.25980497 309.64397658 -0.27950953 333.54118574 -0.28280324 C346.5675175 -0.28496973 359.59377212 -0.29373884 372.62008095 -0.31926441 C383.71251755 -0.3409501 394.80485828 -0.34903228 405.89731367 -0.33929763 C411.55725003 -0.33474684 417.21698848 -0.33668463 422.87689781 -0.35605907 C428.05979241 -0.3736475 433.24234409 -0.37272797 438.42524211 -0.35716178 C440.29877809 -0.35477916 442.17233756 -0.35914306 444.0458376 -0.37099043 C455.25133385 -0.43745273 463.9171889 -0.0325114 473.53931236 6.32172108 C478.91435302 11.94676363 482.34417303 18.45096161 482.36382675 26.28558159 C482.36890129 27.35827358 482.37397584 28.43096558 482.37920415 29.53616339 C482.37995079 31.31044192 482.37995079 31.31044192 482.38071251 33.12056446 C482.38509476 34.3738062 482.38947702 35.62704795 482.39399207 36.91826671 C482.40596077 40.40386635 482.41160671 43.88945215 482.41617322 47.37506831 C482.42212829 51.13189739 482.43373848 54.88870992 482.44446373 58.64552784 C482.46899145 67.72263315 482.48361622 76.79974395 482.4965238 85.87687221 C482.50023571 88.44085414 482.50420895 91.00483552 482.50827646 93.5688169 C482.53351496 109.49158359 482.55556762 125.41435113 482.56800461 141.33713341 C482.5709343 145.02576227 482.57389596 148.71439111 482.57691002 152.40301991 C482.57765607 153.31980965 482.57840212 154.23659939 482.57917078 155.18117063 C482.59182052 170.02789415 482.62503806 184.87449781 482.66671185 199.72116531 C482.70915 214.96517666 482.73270189 230.20912668 482.73792517 245.45319694 C482.74133735 254.01163712 482.75306958 262.56989005 482.78602791 271.12827206 C482.81405557 278.41825421 482.82501593 285.70801074 482.81383245 292.99804259 C482.8086525 296.71584685 482.81148847 300.43317882 482.83629799 304.15091419 C482.8630081 308.18726631 482.8507076 312.22258316 482.83481407 316.2589922 C482.84869616 317.4262295 482.86257825 318.5934668 482.876881 319.79607493 C482.79544181 328.19999817 481.03975169 334.95864961 475.26629674 341.28119284 C468.77731717 347.55484248 461.66352544 349.59096462 452.86182213 349.53294849 C452.05869402 349.53959532 451.25556591 349.54624215 450.42810059 349.55309039 C447.75800821 349.5716266 445.08836766 349.56912148 442.41821861 349.56659412 C440.49587437 349.57561702 438.57353589 349.58594553 436.65120506 349.59747791 C431.44728403 349.625012 426.24347227 349.63432759 421.03948784 349.64033198 C415.5955378 349.64972496 410.15166909 349.67592913 404.70776939 349.70033741 C394.40554709 349.74398061 384.10334058 349.772541 373.801054 349.79566079 C362.06948496 349.8227241 350.33799781 349.86663496 338.60648727 349.91194952 C314.4799734 350.00476462 290.35343383 350.07645975 266.22681236 350.13422108 C266.98987831 354.06389013 267.76191863 357.99174742 268.53540611 361.91937733 C268.74822227 363.0159264 268.96103844 364.11247547 269.18030357 365.2422533 C271.80052018 378.49502023 275.14021326 391.54799458 280.45508385 403.98993397 C281.22681236 406.13422108 281.22681236 406.13422108 281.22681236 409.13422108 C281.86707359 409.11327381 282.50733482 409.09232655 283.16699791 409.07074451 C286.08260811 408.98732823 288.99796688 408.93548139 291.91431236 408.88422108 C292.92171471 408.85070545 293.92911705 408.81718983 294.96704674 408.78265858 C302.43226466 408.68410785 302.43226466 408.68410785 306.39868736 410.93109608 C308.22681236 413.13422108 308.22681236 413.13422108 308.78931236 416.63422108 C308.13261323 420.72034904 307.45756611 421.65583792 304.22681236 424.13422108 C301.30948448 424.63758564 301.30948448 424.63758564 297.85034752 424.64215565 C295.88185844 424.65907459 295.88185844 424.65907459 293.87360191 424.67633533 C292.42102402 424.66855826 290.96844831 424.6603656 289.51587486 424.6517992 C287.98484188 424.65721983 286.45381412 424.66434215 284.92279625 424.67303944 C280.76574237 424.69128306 276.60908533 424.68420114 272.45202446 424.67152309 C268.10301704 424.66140074 263.75404376 424.67078664 259.40503502 424.67706776 C252.10142474 424.6843464 244.79797621 424.67475081 237.49439049 424.65570545 C229.04867719 424.63393623 220.60335012 424.64098745 212.15764618 424.66301107 C204.90827247 424.68115893 197.65901509 424.68372643 190.40962601 424.6732564 C186.07903143 424.66701806 181.74861844 424.6661951 177.41803551 424.67940235 C173.34673787 424.69095137 169.27593851 424.68295292 165.20469475 424.65982533 C163.70992676 424.6545331 162.21511689 424.65606085 160.72036552 424.66487598 C158.68135124 424.67579282 156.6422454 424.65968035 154.60327721 424.64215565 C152.89100441 424.63989349 152.89100441 424.63989349 151.14414024 424.63758564 C147.56328903 424.01973476 146.38321034 423.01578824 144.22681236 420.13422108 C143.66431236 416.63422108 143.66431236 416.63422108 144.22681236 413.13422108 C146.45079275 410.45403959 148.21748417 409.26336407 151.69971275 408.81781483 C154.65615365 408.74022197 157.5835707 408.78588546 160.53931236 408.88422108 C161.56605064 408.90226795 162.59278893 408.92031483 163.65064049 408.93890858 C166.17699122 408.98591045 168.70141705 409.05159835 171.22681236 409.13422108 C171.40421959 408.54068836 171.58162682 407.94715565 171.76441002 407.33563709 C173.11813387 402.81398834 174.48405582 398.29683236 175.87524986 393.78656483 C176.45127087 391.88176809 177.02678638 389.97681843 177.60181236 388.07172108 C177.88024986 387.18162342 178.15868736 386.29152576 178.44556236 385.37445545 C180.73145777 377.72906202 182.30719414 370.00104114 183.84644127 362.17548084 C184.19120255 360.43657959 184.19120255 360.43657959 184.5429287 358.66254902 C185.1061823 355.82015446 185.66742024 352.97737765 186.22681236 350.13422108 C185.22920891 350.13183272 184.23160545 350.12944437 183.20377159 350.12698364 C158.92470535 350.06817703 134.64573826 349.99228695 110.36678123 349.89850616 C98.62563538 349.85354948 86.88451985 349.81413445 75.14331627 349.78778553 C64.90913568 349.7648045 54.67505105 349.73140516 44.44094658 349.68551952 C39.02256917 349.66158886 33.60428681 349.642859 28.18585777 349.63660717 C23.0837792 349.63055569 17.98194381 349.61055324 12.87995529 349.57994556 C11.00954121 349.57116641 9.13909535 349.5674425 7.2686615 349.56921291 C4.70942895 349.57087016 2.15093377 349.55412831 -0.4081974 349.53294849 C-1.14362959 349.53779607 -1.87906178 349.54264365 -2.63677979 349.54763812 C-10.55200374 349.43996887 -17.08406624 346.81921119 -22.81275088 341.28135055 C-29.57520833 333.87490317 -30.49984295 325.97603911 -30.40137672 316.29936695 C-30.40847111 315.03943867 -30.4155655 313.77951038 -30.42287487 312.48140246 C-30.44169519 309.00944378 -30.42962234 305.53819546 -30.41215193 302.06625545 C-30.39872583 298.3122677 -30.41423364 294.55838034 -30.42597389 290.80440235 C-30.44431542 283.46062974 -30.43586185 276.1171239 -30.41788567 268.77335971 C-30.40383879 262.80349979 -30.39997135 256.8337121 -30.40332794 250.86383724 C-30.40380538 250.01297939 -30.40428283 249.16212153 -30.40477474 248.2854801 C-30.4058011 246.55679101 -30.40685646 244.82810193 -30.4079405 243.09941287 C-30.41650037 227.8270268 -30.39985519 212.55476923 -30.37011147 197.28241444 C-30.34127072 182.47344028 -30.33419385 167.66465117 -30.34960365 152.85565662 C-30.3663753 136.71589738 -30.37039059 120.57622592 -30.35289329 104.43646437 C-30.35104897 102.71457264 -30.34921424 100.9926809 -30.34738922 99.27078915 C-30.34647713 98.42365947 -30.34556504 97.57652979 -30.34462531 96.70372952 C-30.3390263 90.74263232 -30.34232112 84.78157807 -30.34893417 78.82048321 C-30.35667597 71.55368455 -30.34988424 64.28706786 -30.32475913 57.0203058 C-30.3122842 53.31481797 -30.30609301 49.60961316 -30.3173008 45.90411472 C-30.32923281 41.88317899 -30.31004453 37.86298368 -30.28785133 33.84209156 C-30.2960921 32.67671626 -30.30433287 31.51134095 -30.31282336 30.31065124 C-30.22584319 21.77112589 -28.33236834 15.93643241 -23.58568764 8.88422108 C-16.58704331 2.04110218 -9.55786788 -0.01922835 0 0 Z " fill="#E8F4FD" transform="translate(29.7731876373291,43.86577892303467)"/>
<path d="M0 0 C0.7917783 -0.00235223 1.58355659 -0.00470446 2.39932817 -0.00712797 C5.06877545 -0.01381745 7.73817405 -0.01335976 10.40762901 -0.01294994 C12.33436163 -0.0162486 14.26109356 -0.01997417 16.18782461 -0.02409142 C21.49541865 -0.03411932 26.80300139 -0.03782949 32.11060357 -0.04048073 C37.82993759 -0.04438142 43.54926263 -0.0539599 49.26859093 -0.0626936 C63.08689043 -0.08246426 76.90519067 -0.0925248 90.72350079 -0.10142139 C97.22837278 -0.10580314 103.73324396 -0.11117023 110.23811531 -0.11641026 C131.85743694 -0.13342284 153.4767574 -0.14794249 175.09608459 -0.155159 C176.49425223 -0.15563375 177.89241987 -0.15610964 179.29058751 -0.15658666 C179.98395141 -0.15682303 180.67731531 -0.15705941 181.39169024 -0.15730295 C184.90460205 -0.15850415 188.41751385 -0.1597196 191.93042564 -0.16094494 C192.97614651 -0.16130516 192.97614651 -0.16130516 194.04299305 -0.16167267 C216.64523501 -0.16956527 239.24742448 -0.19299635 261.84964352 -0.22550088 C285.74682717 -0.25980497 309.64397658 -0.27950953 333.54118574 -0.28280324 C346.5675175 -0.28496973 359.59377212 -0.29373884 372.62008095 -0.31926441 C383.71251755 -0.3409501 394.80485828 -0.34903228 405.89731367 -0.33929763 C411.55725003 -0.33474684 417.21698848 -0.33668463 422.87689781 -0.35605907 C428.05979241 -0.3736475 433.24234409 -0.37272797 438.42524211 -0.35716178 C440.29877809 -0.35477916 442.17233756 -0.35914306 444.0458376 -0.37099043 C455.25133385 -0.43745273 463.9171889 -0.0325114 473.53931236 6.32172108 C478.91435302 11.94676363 482.34417303 18.45096161 482.36382675 26.28558159 C482.36890129 27.35827358 482.37397584 28.43096558 482.37920415 29.53616339 C482.37995079 31.31044192 482.37995079 31.31044192 482.38071251 33.12056446 C482.38509476 34.3738062 482.38947702 35.62704795 482.39399207 36.91826671 C482.40596077 40.40386635 482.41160671 43.88945215 482.41617322 47.37506831 C482.42212829 51.13189739 482.43373848 54.88870992 482.44446373 58.64552784 C482.46899145 67.72263315 482.48361622 76.79974395 482.4965238 85.87687221 C482.50023571 88.44085414 482.50420895 91.00483552 482.50827646 93.5688169 C482.53351496 109.49158359 482.55556762 125.41435113 482.56800461 141.33713341 C482.5709343 145.02576227 482.57389596 148.71439111 482.57691002 152.40301991 C482.57765607 153.31980965 482.57840212 154.23659939 482.57917078 155.18117063 C482.59182052 170.02789415 482.62503806 184.87449781 482.66671185 199.72116531 C482.70915 214.96517666 482.73270189 230.20912668 482.73792517 245.45319694 C482.74133735 254.01163712 482.75306958 262.56989005 482.78602791 271.12827206 C482.81405557 278.41825421 482.82501593 285.70801074 482.81383245 292.99804259 C482.8086525 296.71584685 482.81148847 300.43317882 482.83629799 304.15091419 C482.8630081 308.18726631 482.8507076 312.22258316 482.83481407 316.2589922 C482.84869616 317.4262295 482.86257825 318.5934668 482.876881 319.79607493 C482.79544181 328.19999817 481.03975169 334.95864961 475.26629674 341.28119284 C468.77731717 347.55484248 461.66352544 349.59096462 452.86182213 349.53294849 C452.05869402 349.53959532 451.25556591 349.54624215 450.42810059 349.55309039 C447.75800821 349.5716266 445.08836766 349.56912148 442.41821861 349.56659412 C440.49587437 349.57561702 438.57353589 349.58594553 436.65120506 349.59747791 C431.44728403 349.625012 426.24347227 349.63432759 421.03948784 349.64033198 C415.5955378 349.64972496 410.15166909 349.67592913 404.70776939 349.70033741 C394.40554709 349.74398061 384.10334058 349.772541 373.801054 349.79566079 C362.06948496 349.8227241 350.33799781 349.86663496 338.60648727 349.91194952 C314.4799734 350.00476462 290.35343383 350.07645975 266.22681236 350.13422108 C266.98987831 354.06389013 267.76191863 357.99174742 268.53540611 361.91937733 C268.74822227 363.0159264 268.96103844 364.11247547 269.18030357 365.2422533 C271.80052018 378.49502023 275.14021326 391.54799458 280.45508385 403.98993397 C281.22681236 406.13422108 281.22681236 406.13422108 281.22681236 409.13422108 C281.86707359 409.11327381 282.50733482 409.09232655 283.16699791 409.07074451 C286.08260811 408.98732823 288.99796688 408.93548139 291.91431236 408.88422108 C292.92171471 408.85070545 293.92911705 408.81718983 294.96704674 408.78265858 C302.43226466 408.68410785 302.43226466 408.68410785 306.39868736 410.93109608 C308.22681236 413.13422108 308.22681236 413.13422108 308.78931236 416.63422108 C308.13261323 420.72034904 307.45756611 421.65583792 304.22681236 424.13422108 C301.30948448 424.63758564 301.30948448 424.63758564 297.85034752 424.64215565 C295.88185844 424.65907459 295.88185844 424.65907459 293.87360191 424.67633533 C292.42102402 424.66855826 290.96844831 424.6603656 289.51587486 424.6517992 C287.98484188 424.65721983 286.45381412 424.66434215 284.92279625 424.67303944 C280.76574237 424.69128306 276.60908533 424.68420114 272.45202446 424.67152309 C268.10301704 424.66140074 263.75404376 424.67078664 259.40503502 424.67706776 C252.10142474 424.6843464 244.79797621 424.67475081 237.49439049 424.65570545 C229.04867719 424.63393623 220.60335012 424.64098745 212.15764618 424.66301107 C204.90827247 424.68115893 197.65901509 424.68372643 190.40962601 424.6732564 C186.07903143 424.66701806 181.74861844 424.6661951 177.41803551 424.67940235 C173.34673787 424.69095137 169.27593851 424.68295292 165.20469475 424.65982533 C163.70992676 424.6545331 162.21511689 424.65606085 160.72036552 424.66487598 C158.68135124 424.67579282 156.6422454 424.65968035 154.60327721 424.64215565 C152.89100441 424.63989349 152.89100441 424.63989349 151.14414024 424.63758564 C147.56328903 424.01973476 146.38321034 423.01578824 144.22681236 420.13422108 C143.66431236 416.63422108 143.66431236 416.63422108 144.22681236 413.13422108 C146.45079275 410.45403959 148.21748417 409.26336407 151.69971275 408.81781483 C154.65615365 408.74022197 157.5835707 408.78588546 160.53931236 408.88422108 C161.56605064 408.90226795 162.59278893 408.92031483 163.65064049 408.93890858 C166.17699122 408.98591045 168.70141705 409.05159835 171.22681236 409.13422108 C171.40421959 408.54068836 171.58162682 407.94715565 171.76441002 407.33563709 C173.11813387 402.81398834 174.48405582 398.29683236 175.87524986 393.78656483 C176.45127087 391.88176809 177.02678638 389.97681843 177.60181236 388.07172108 C177.88024986 387.18162342 178.15868736 386.29152576 178.44556236 385.37445545 C180.73145777 377.72906202 182.30719414 370.00104114 183.84644127 362.17548084 C184.19120255 360.43657959 184.19120255 360.43657959 184.5429287 358.66254902 C185.1061823 355.82015446 185.66742024 352.97737765 186.22681236 350.13422108 C185.22920891 350.13183272 184.23160545 350.12944437 183.20377159 350.12698364 C158.92470535 350.06817703 134.64573826 349.99228695 110.36678123 349.89850616 C98.62563538 349.85354948 86.88451985 349.81413445 75.14331627 349.78778553 C64.90913568 349.7648045 54.67505105 349.73140516 44.44094658 349.68551952 C39.02256917 349.66158886 33.60428681 349.642859 28.18585777 349.63660717 C23.0837792 349.63055569 17.98194381 349.61055324 12.87995529 349.57994556 C11.00954121 349.57116641 9.13909535 349.5674425 7.2686615 349.56921291 C4.70942895 349.57087016 2.15093377 349.55412831 -0.4081974 349.53294849 C-1.14362959 349.53779607 -1.87906178 349.54264365 -2.63677979 349.54763812 C-10.55200374 349.43996887 -17.08406624 346.81921119 -22.81275088 341.28135055 C-29.57520833 333.87490317 -30.49984295 325.97603911 -30.40137672 316.29936695 C-30.40847111 315.03943867 -30.4155655 313.77951038 -30.42287487 312.48140246 C-30.44169519 309.00944378 -30.42962234 305.53819546 -30.41215193 302.06625545 C-30.39872583 298.3122677 -30.41423364 294.55838034 -30.42597389 290.80440235 C-30.44431542 283.46062974 -30.43586185 276.1171239 -30.41788567 268.77335971 C-30.40383879 262.80349979 -30.39997135 256.8337121 -30.40332794 250.86383724 C-30.40380538 250.01297939 -30.40428283 249.16212153 -30.40477474 248.2854801 C-30.4058011 246.55679101 -30.40685646 244.82810193 -30.4079405 243.09941287 C-30.41650037 227.8270268 -30.39985519 212.55476923 -30.37011147 197.28241444 C-30.34127072 182.47344028 -30.33419385 167.66465117 -30.34960365 152.85565662 C-30.3663753 136.71589738 -30.37039059 120.57622592 -30.35289329 104.43646437 C-30.35104897 102.71457264 -30.34921424 100.9926809 -30.34738922 99.27078915 C-30.34647713 98.42365947 -30.34556504 97.57652979 -30.34462531 96.70372952 C-30.3390263 90.74263232 -30.34232112 84.78157807 -30.34893417 78.82048321 C-30.35667597 71.55368455 -30.34988424 64.28706786 -30.32475913 57.0203058 C-30.3122842 53.31481797 -30.30609301 49.60961316 -30.3173008 45.90411472 C-30.32923281 41.88317899 -30.31004453 37.86298368 -30.28785133 33.84209156 C-30.2960921 32.67671626 -30.30433287 31.51134095 -30.31282336 30.31065124 C-30.22584319 21.77112589 -28.33236834 15.93643241 -23.58568764 8.88422108 C-16.58704331 2.04110218 -9.55786788 -0.01922835 0 0 Z M-13.08568764 19.69672108 C-15.30375675 22.90059868 -15.89813187 24.496984 -15.89623547 28.3315115 C-15.89822634 29.217071 -15.90021721 30.1026305 -15.90226841 31.01502514 C-15.89935575 31.99333105 -15.89644308 32.97163696 -15.89344215 33.97958851 C-15.89429817 35.01193119 -15.89515419 36.04427387 -15.89603615 37.10789967 C-15.89769989 40.60057739 -15.89215387 44.09320785 -15.88671303 47.58588123 C-15.8864069 50.11923884 -15.88653982 52.65259653 -15.88707829 55.18595409 C-15.88728174 61.30042745 -15.88298464 67.41488315 -15.87657696 73.52935269 C-15.86938938 80.59905858 -15.86858289 87.66875931 -15.86779213 94.73846912 C-15.86253741 113.41205544 -15.84857635 132.08563847 -15.83568764 150.75922108 C-15.81506264 192.46297108 -15.79443764 234.16672108 -15.77318764 277.13422108 C143.94681236 277.13422108 303.66681236 277.13422108 468.22681236 277.13422108 C468.30931236 235.51297108 468.39181236 193.89172108 468.47681236 151.00922108 C468.51322838 137.85546619 468.54964439 124.70171131 468.58716393 111.1493578 C468.60053966 99.38326187 468.60053966 99.38326187 468.60858727 87.61716175 C468.61232173 82.36651874 468.62701248 77.11604027 468.64911461 71.86545277 C468.67724509 65.17288498 468.68478667 58.48059374 468.67910147 51.78795552 C468.68029071 49.32872049 468.68825325 46.86947746 468.70367289 44.41029048 C468.72350812 41.09343 468.71879548 37.77748722 468.70783043 34.46060658 C468.71948109 33.49395132 468.73113174 32.52729607 468.74313545 31.53134823 C468.69154149 25.74237721 468.0091573 22.58161579 464.22681236 18.13422108 C459.67013464 14.12986793 455.50061439 13.98866531 449.65920353 14.00279331 C448.87751093 14.00074068 448.09581834 13.99868804 447.29043809 13.99657321 C444.64931546 13.99088141 442.00824463 13.99236314 439.36711693 13.99377918 C437.46314554 13.9911968 435.55917469 13.988184 433.65520459 13.98477578 C428.40603652 13.9766877 423.1568821 13.97491521 417.90770853 13.97417831 C412.2531932 13.97233091 406.59868502 13.9647852 400.94417381 13.9580431 C388.57244329 13.94444671 376.200716 13.93843311 363.82897925 13.93403244 C356.10856034 13.93127239 348.38814268 13.92703549 340.66772461 13.92252827 C319.30492743 13.91033421 297.9421318 13.89999956 276.5793314 13.89665318 C275.19759234 13.89643154 273.81585329 13.89620976 272.43411424 13.89598782 C271.04901432 13.89576718 269.66391441 13.8955467 268.27881449 13.89532638 C265.50000584 13.89488382 262.72119719 13.89443671 259.94238853 13.8939867 C258.90891237 13.89382262 258.90891237 13.89382262 257.8545579 13.89365521 C235.50869481 13.89002369 213.16286416 13.8741002 190.81701349 13.85079634 C167.19885805 13.82621059 143.5807277 13.81248766 119.96255761 13.81128526 C107.08502479 13.81036734 94.20753443 13.80458562 81.33001328 13.78646564 C70.3662724 13.77109323 59.40258709 13.76592728 48.43883749 13.77420375 C42.84222004 13.77812032 37.24571459 13.77713164 31.64911079 13.7631464 C26.52873057 13.75046786 21.40854723 13.75155154 16.28816751 13.76373711 C14.43284456 13.76570463 12.57750795 13.76256737 10.72220423 13.75389275 C8.20521001 13.74286665 5.68891877 13.75024099 3.17194462 13.76228428 C2.44735665 13.75468909 1.72276868 13.74709389 0.9762235 13.73926854 C-5.00547042 13.80128837 -9.05963134 15.23541545 -13.08568764 19.69672108 Z " fill="#000000" transform="translate(29.7731876373291,43.86577892303467)"/>
<path d="M0 0 C159.72 0 319.44 0 484 0 C484 34 484 34 480 40 C475.48325528 43.84635448 471.79813132 44.57764556 466.03201294 44.50336456 C464.84921662 44.51208521 464.84921662 44.51208521 463.64252543 44.52098203 C460.9959109 44.53559908 458.3502213 44.5216891 455.70361328 44.50793457 C453.78879891 44.51254281 451.87398807 44.51889521 449.95918465 44.52684355 C444.69389816 44.54357049 439.42890097 44.53527515 434.16361332 44.52289867 C428.48663924 44.5138643 422.80971559 44.5278099 417.13275146 44.53881836 C406.01019316 44.55662539 394.88774268 44.55275385 383.76518011 44.5411678 C374.72741656 44.53214235 365.68968327 44.53090563 356.6519165 44.53526306 C355.36669417 44.53587599 354.08147183 44.53648893 352.75730336 44.53712043 C350.14657894 44.5383993 347.53585453 44.53969616 344.92513013 44.5410108 C321.1302105 44.55209753 297.33535626 44.54059091 273.54044703 44.51964041 C251.81534461 44.50065776 230.09033597 44.50235626 208.36523438 44.52148438 C183.96073841 44.54289973 159.55630628 44.5513243 135.15180016 44.53903532 C132.55056128 44.53776109 129.94932239 44.53650361 127.3480835 44.53526306 C126.06815053 44.53464596 124.78821757 44.53402886 123.46949875 44.53339306 C114.44028537 44.52993616 105.41110521 44.53577581 96.38189697 44.54518127 C85.38160419 44.55638784 74.38142561 44.55338944 63.38114595 44.5320583 C57.76625818 44.52152986 52.15156096 44.51745667 46.5366745 44.53065491 C41.39969222 44.54254737 36.26307769 44.53606815 31.12612891 44.5147447 C29.26484471 44.51026529 27.40352963 44.51257478 25.54226518 44.52224785 C23.01706071 44.53436782 20.49312474 44.52198216 17.96798706 44.50336456 C17.24104794 44.51272923 16.51410882 44.52209389 15.76514125 44.53174233 C10.70126784 44.45684409 7.83961035 43.26972264 4 40 C0 34 0 34 0 0 Z " fill="#8C9BA7" transform="translate(14,335)"/>
<path d="M0 0 C20.36509243 -0.70874007 39.30951689 6.45394878 54.27734375 20.2890625 C68.80774852 34.4715763 76.29337853 52.88907958 76.6171875 73.0703125 C76.44620589 93.02027786 68.50965064 111.55845486 54.58984375 125.82910156 C41.16409823 138.83645473 22.40378281 146.55606768 3.7421875 146.5078125 C1.21622396 146.44824356 -1.296281 146.32888859 -3.8203125 146.1953125 C-4.64917969 146.1746875 -5.47804688 146.1540625 -6.33203125 146.1328125 C-23.30978478 145.12858309 -39.66922056 134.53921513 -51.23046875 122.734375 C-65.33028514 106.62720911 -70.95544822 87.25323832 -69.8203125 66.1953125 C-69.78808594 65.34324219 -69.75585938 64.49117188 -69.72265625 63.61328125 C-68.4437748 45.41381449 -57.13553295 28.24089565 -43.7578125 16.5078125 C-30.92803209 6.45691561 -16.15947624 0.82614909 0 0 Z " fill="#040303" transform="translate(377.8203125,78.8046875)"/>
<path d="M0 0 C-0.5305702 4.5477446 -2.48544728 7.59453726 -5.0625 11.25 C-5.97125014 12.5751118 -6.87729659 13.90208012 -7.78125 15.23046875 C-8.28785156 15.97474121 -8.79445313 16.71901367 -9.31640625 17.48583984 C-13.36727141 23.53511615 -17.24298068 29.70045679 -21.14868164 35.84399414 C-24.06558627 40.42869747 -26.98064667 45.00797926 -30.02734375 49.5078125 C-30.4545874 50.14517334 -30.88183105 50.78253418 -31.32202148 51.43920898 C-32.40266142 53.04303543 -33.49752174 54.63725641 -34.59375 56.23046875 C-36.23995479 59.47257762 -36.51619188 61.41147377 -36 65 C-34.84191318 66.75592425 -34.84191318 66.75592425 -33 68 C-30.67509488 68.4050541 -30.67509488 68.4050541 -28 68.25 C-26.9275 68.22292969 -25.855 68.19585937 -24.75 68.16796875 C-18.0187602 67.8664653 -11.29112029 67.52771109 -4.56399536 67.1449585 C9.63244201 66.3423462 23.77612433 65.66706143 38 66 C35.87250888 80.98201641 28.20618775 93.13549292 16.8515625 102.92578125 C3.30775816 112.77750742 -12.06299363 116.60733358 -28.67578125 114.69140625 C-44.52847012 111.83438258 -58.73081456 104.28356325 -68.12890625 90.98828125 C-73.88612804 82.02906871 -78.55478465 72.81502277 -79 62 C-79.0515625 60.94941406 -79.103125 59.89882812 -79.15625 58.81640625 C-79.5795493 42.71339548 -74.88467458 28.34070353 -64.1875 16.0625 C-46.6744452 -1.98125343 -24.00178617 -6.79983149 0 0 Z " fill="#FDB856" transform="translate(401,96)"/>
<path d="M0 0 C0.76313004 -0.00524185 1.52626007 -0.0104837 2.31251526 -0.0158844 C3.92553491 -0.02230379 5.53860139 -0.02096861 7.15161133 -0.01245117 C9.61689885 -0.00394767 12.07986374 -0.03268882 14.54492188 -0.06445312 C16.11328056 -0.06606546 17.68164333 -0.06548699 19.25 -0.0625 C19.98552597 -0.07373398 20.72105194 -0.08496796 21.47886658 -0.09654236 C24.76824382 -0.05186935 26.75248061 0.09181733 29.38587189 2.14234924 C31.54611737 4.88372636 31.69359272 6.14378018 31.69934082 9.59521484 C31.71062012 10.63828796 31.72189941 11.68136108 31.73352051 12.75604248 C31.72542358 13.89486877 31.71732666 15.03369507 31.70898438 16.20703125 C31.71599365 17.41063293 31.72300293 18.61423462 31.73022461 19.85430908 C31.74481316 23.15210967 31.74139502 26.44890637 31.72870827 29.7466507 C31.71857588 33.1987899 31.72797459 36.65088644 31.73425293 40.10302734 C31.74152869 45.90014339 31.7319437 51.69705554 31.71289062 57.49414062 C31.69112177 64.19487789 31.69817321 70.89512833 31.72019625 77.59585381 C31.73835248 83.35055646 31.74090756 89.10511262 31.73044157 94.85983467 C31.72420776 98.29618433 31.7233676 101.73230521 31.73658752 105.16864014 C31.75029539 108.99933778 31.73129258 112.82949081 31.70898438 116.66015625 C31.7170813 117.79898254 31.72517822 118.93780884 31.73352051 120.11114502 C31.72224121 121.15421814 31.71096191 122.19729126 31.69934082 123.27197266 C31.69783272 124.17750885 31.69632462 125.08304504 31.69477081 126.01602173 C31.02477731 129.23388344 29.75316237 130.43270615 27.19140625 132.43359375 C24.48833133 132.81977416 22.20146257 132.97233865 19.50390625 132.9296875 C18.39462769 132.93187035 18.39462769 132.93187035 17.26293945 132.93409729 C15.70292207 132.93244089 14.14288791 132.9209084 12.58300781 132.90014648 C10.1991616 132.87118796 7.81754028 132.87954169 5.43359375 132.89257812 C3.91535381 132.88634024 2.39712087 132.87794889 0.87890625 132.8671875 C0.16839111 132.87012314 -0.54212402 132.87305878 -1.27416992 132.87608337 C-5.46127463 132.79651701 -7.81471643 132.39963692 -10.80859375 129.43359375 C-11.309165 127.1050415 -11.309165 127.1050415 -11.30979919 124.30957031 C-11.31963333 123.24959839 -11.32946747 122.18962646 -11.33959961 121.09753418 C-11.32993164 119.93484009 -11.32026367 118.772146 -11.31030273 117.57421875 C-11.31570572 116.34964966 -11.3211087 115.12508057 -11.32667542 113.86340332 C-11.33705093 110.50362647 -11.32944765 107.14483189 -11.3129642 103.78514099 C-11.29912473 100.27114448 -11.30557251 96.75717798 -11.30909729 93.24316406 C-11.3118003 87.34171299 -11.29831618 81.4404652 -11.27514648 75.5390625 C-11.248536 68.71399031 -11.24678921 61.88925805 -11.25853485 55.06415176 C-11.2693102 48.50150448 -11.26312753 41.93898028 -11.24897957 35.37634277 C-11.2432176 32.58212376 -11.24330406 29.78799476 -11.24804497 26.99377441 C-11.25369873 23.09337477 -11.23450647 19.19331596 -11.21264648 15.29296875 C-11.21714813 14.13027466 -11.22164978 12.96758057 -11.22628784 11.76965332 C-11.21638321 10.7096814 -11.20647858 9.64970947 -11.1962738 8.55761719 C-11.19384391 7.63511169 -11.19141401 6.7126062 -11.18891048 5.762146 C-10.80859375 3.43359375 -10.80859375 3.43359375 -9.50248814 1.63859558 C-6.64979904 -0.39074911 -3.37516888 -0.01343404 0 0 Z " fill="#010402" transform="translate(218.80859375,157.56640625)"/>
<path d="M0 0 C0.78349018 -0.00115384 1.56698035 -0.00230769 2.37421265 -0.0034965 C5.02139655 -0.00616084 7.66852063 -0.00164247 10.31570148 0.00279331 C12.22394856 0.00235757 14.13219559 0.00148262 16.04044229 0.00020415 C21.30119893 -0.00204029 26.56193535 0.00197979 31.82268941 0.00698221 C37.48935629 0.01128724 43.15602196 0.00984025 48.82269001 0.00907993 C58.64624204 0.00855473 68.46978745 0.01170113 78.29333782 0.01731777 C92.49666973 0.02543329 106.69999842 0.02804805 120.90333239 0.02930576 C143.94543857 0.0314962 166.98754077 0.0381475 190.02964497 0.04760838 C212.41734009 0.05678996 234.80503427 0.06387497 257.1927309 0.06811619 C258.22751978 0.06831348 258.22751978 0.06831348 259.28321349 0.06851475 C266.21094539 0.06983325 273.13867729 0.07110907 280.0664092 0.07235361 C338.18281894 0.08279803 396.29922505 0.10044735 454.41563129 0.12304783 C454.41563129 0.45304783 454.41563129 0.78304783 454.41563129 1.12304783 C305.25563129 1.12304783 156.09563129 1.12304783 2.41563129 1.12304783 C1.75563129 3.10304783 1.09563129 5.08304783 0.41563129 7.12304783 C0.08563129 7.78304783 -0.24436871 8.44304783 -0.58436871 9.12304783 C-0.68187137 10.51950819 -0.71818773 11.92048653 -0.72303391 13.32033825 C-0.72850927 14.20589775 -0.73398464 15.09145725 -0.73962593 16.00385189 C-0.74060311 16.9821578 -0.7415803 17.96046371 -0.74258709 18.96841526 C-0.74751675 20.00075794 -0.7524464 21.03310062 -0.75752544 22.09672642 C-0.772981 25.58938516 -0.78128375 29.08202565 -0.78969097 32.57470798 C-0.79940054 35.10806727 -0.80954569 37.64142491 -0.82009315 40.17478085 C-0.84446283 46.28923956 -0.86436752 52.40369856 -0.88217839 58.51817944 C-0.90299118 65.58790202 -0.93013453 72.65759451 -0.95729351 79.72729588 C-1.02588889 98.40086079 -1.08584688 117.07445663 -1.14686871 135.74804783 C-1.29124371 177.45179783 -1.43561871 219.15554783 -1.58436871 262.12304783 C152.52563129 262.12304783 306.63563129 262.12304783 465.41563129 262.12304783 C465.41563129 262.45304783 465.41563129 262.78304783 465.41563129 263.12304783 C305.69563129 263.12304783 145.97563129 263.12304783 -18.58436871 263.12304783 C-18.66686871 221.50179783 -18.74936871 179.88054783 -18.83436871 136.99804783 C-18.87078472 123.84429295 -18.90720074 110.69053806 -18.94472027 97.13818455 C-18.96278667 81.10571384 -18.96278667 81.10571384 -18.96614361 73.6059885 C-18.96987808 68.35534549 -18.98456882 63.10486702 -19.00667095 57.85427952 C-19.03480143 51.16171173 -19.04234301 44.46942049 -19.03665781 37.77678227 C-19.03784706 35.31754724 -19.04580959 32.85830421 -19.06122923 30.39911723 C-19.08106446 27.08225675 -19.07635183 23.76631397 -19.06538677 20.44943333 C-19.07703743 19.48277807 -19.08868809 18.51612282 -19.1006918 17.52017498 C-19.04909784 11.73120396 -18.36671364 8.57044254 -14.58436871 4.12304783 C-10.02131442 0.11309103 -5.8488636 -0.02095253 0 0 Z " fill="#CDD7DF" transform="translate(32.58436870574951,57.876952171325684)"/>
<path d="M0 0 C0.71353638 -0.00241196 1.42707275 -0.00482391 2.16223145 -0.00730896 C3.66501444 -0.0063331 5.16783454 0.0069986 6.67041016 0.03198242 C8.96251287 0.06631283 11.25075972 0.05262863 13.54296875 0.03320312 C15.00782881 0.04010207 16.47267897 0.04977492 17.9375 0.0625 C18.61784302 0.05754013 19.29818604 0.05258026 19.99914551 0.04747009 C23.11059509 0.12396241 25.36491961 0.57664498 28.14915466 1.9780426 C31.78043873 6.12792115 31.15906789 10.23486707 31.09985352 15.57617188 C31.10700882 16.69199142 31.11416412 17.80781097 31.12153625 18.95744324 C31.13846224 22.65042911 31.11899615 26.34220779 31.09765625 30.03515625 C31.09848458 32.59818625 31.10094259 35.16121619 31.10496521 37.72424316 C31.10782592 43.09775139 31.09362331 48.47081165 31.06567383 53.84423828 C31.03362185 60.05421964 31.03363765 66.26357301 31.0508886 72.47359896 C31.06675967 78.45056668 31.05991939 84.42724227 31.04295158 90.40422058 C31.03776177 92.94638046 31.03826121 95.48855842 31.04449654 98.03071594 C31.04993595 101.58142222 31.02961237 105.13105642 31.00219727 108.68164062 C31.00872314 109.73631027 31.01524902 110.79097992 31.02197266 111.87760925 C30.92888584 118.95430673 30.92888584 118.95430673 28.66062927 122.2797699 C25.41065823 124.28017847 22.26659874 124.22039732 18.5625 124.1953125 C17.80078491 124.20151108 17.03906982 124.20770966 16.25427246 124.21409607 C14.64722977 124.22118548 13.04011351 124.21803543 11.43310547 124.20532227 C8.97616371 124.19144811 6.52302678 124.22554087 4.06640625 124.26367188 C2.50260324 124.26462307 0.93879546 124.26276423 -0.625 124.2578125 C-1.72358337 124.27769981 -1.72358337 124.27769981 -2.84436035 124.29798889 C-6.21149351 124.23660732 -8.12622777 123.9727157 -10.72312927 121.76829529 C-13.38330964 117.14949912 -13.09790001 113.01215173 -13.06469727 107.76757812 C-13.07331284 106.67272598 -13.08192841 105.57787384 -13.09080505 104.44984436 C-13.11350065 100.83220759 -13.10671946 97.21534314 -13.09765625 93.59765625 C-13.10288997 91.08329029 -13.10916552 88.56892631 -13.11643982 86.05456543 C-13.1268505 80.78548936 -13.12260149 75.51661399 -13.10766602 70.24755859 C-13.09073865 64.1619058 -13.10658978 58.07696999 -13.1388889 51.99139547 C-13.16882007 46.12924594 -13.17076671 40.26737395 -13.1613903 34.40516663 C-13.16056944 31.9140581 -13.16745857 29.42293478 -13.18216133 26.93186951 C-13.19955796 23.45079082 -13.18510337 19.9712508 -13.16235352 16.49023438 C-13.17404572 15.45943253 -13.18573792 14.42863068 -13.19778442 13.36659241 C-13.13507411 8.65638145 -13.07489241 6.3646833 -10.21165466 2.48951721 C-6.79796309 0.11989294 -4.01955502 -0.07833122 0 0 Z " fill="#030404" transform="translate(109.53125,166.37109375)"/>
<path d="M0 0 C16.5 0 33 0 50 0 C50.804375 4.5375 51.60875 9.075 52.4375 13.75 C55.18062888 28.53756258 59.28622967 42.50078878 64.26904297 56.69458008 C65 59 65 59 65 61 C38.6 61 12.2 61 -15 61 C-11.83775834 49.40511392 -11.83775834 49.40511392 -9.90673828 43.84887695 C-5.0186341 29.58443986 -2.71521699 14.80439742 0 0 Z " fill="#B2C0CB" transform="translate(231,393)"/>
<path d="M0 0 C0.78628281 -0.0038269 1.57256561 -0.00765381 2.38267517 -0.01159668 C4.04101852 -0.01431323 5.69940489 -0.00696986 7.35766602 0.00976562 C9.89761579 0.03121008 12.43474654 0.00994326 14.97460938 -0.015625 C16.58724583 -0.01298224 18.19988053 -0.00785832 19.8125 0 C20.57192398 -0.00809692 21.33134796 -0.01619385 22.11378479 -0.02453613 C27.33423986 0.06848528 27.33423986 0.06848528 29.53845215 2.0859375 C31.31498809 5.42404537 31.26703081 8.48374762 31.24389648 12.17382812 C31.25075974 12.93851913 31.25762299 13.70321014 31.26469421 14.49107361 C31.28297386 17.01507204 31.27912362 19.53844967 31.2734375 22.0625 C31.27799839 23.81840212 31.28330369 25.57430246 31.2893219 27.3302002 C31.298255 31.0087815 31.29582723 34.68714572 31.28588867 38.36572266 C31.27439211 43.08043404 31.29461967 47.79439723 31.32380581 52.50901031 C31.3421478 56.13442749 31.34187949 59.75966465 31.33616829 63.38511658 C31.33601486 65.12345938 31.34207675 66.86181422 31.35445976 68.60011292 C31.36933259 71.03011098 31.35872177 73.45871747 31.34155273 75.88867188 C31.3512207 76.60671494 31.36088867 77.324758 31.37084961 78.06455994 C31.32118504 81.42010961 31.0506921 83.24590013 29.03370667 85.97557068 C25.82750359 88.24910555 22.7242442 88.12332722 18.93359375 88.09765625 C18.17187866 88.10385483 17.41016357 88.11005341 16.62536621 88.11643982 C15.01832352 88.12352923 13.41120726 88.12037918 11.80419922 88.10766602 C9.34725746 88.09379186 6.89412053 88.12788462 4.4375 88.16601562 C2.87369699 88.16696682 1.30988921 88.16510798 -0.25390625 88.16015625 C-1.35248962 88.18004356 -1.35248962 88.18004356 -2.4732666 88.20033264 C-5.98185972 88.13637231 -7.75921431 87.90797562 -10.35302734 85.4708252 C-12.57151236 81.86211555 -12.72491938 78.97591221 -12.67773438 74.86694336 C-12.68474365 74.11185989 -12.69175293 73.35677643 -12.69897461 72.57881165 C-12.71652478 70.09252736 -12.70494444 67.60738882 -12.69140625 65.12109375 C-12.69410176 63.38904096 -12.69798467 61.65698964 -12.70300293 59.92494202 C-12.70889367 56.29934242 -12.70034784 52.67413762 -12.68164062 49.04858398 C-12.65883401 44.40224565 -12.67198725 39.75683067 -12.69593048 35.11052608 C-12.71038552 31.53570092 -12.70578417 27.96109466 -12.69541931 24.38626289 C-12.69275208 22.67304945 -12.69602167 20.95981609 -12.70533752 19.2466259 C-12.71550054 16.85260231 -12.70000824 14.46007431 -12.67773438 12.06616211 C-12.6858313 11.35904083 -12.69392822 10.65191956 -12.70227051 9.92337036 C-12.64495895 6.59738116 -12.35722215 4.7981694 -10.35975647 2.09266663 C-7.08906475 -0.22907911 -3.86507217 -0.04131926 0 0 Z " fill="#030303" transform="translate(54.16015625,202.46875)"/>
<path d="M0 0 C0.71353638 -0.00241196 1.42707275 -0.00482391 2.16223145 -0.00730896 C3.66501444 -0.0063331 5.16783454 0.0069986 6.67041016 0.03198242 C8.96251287 0.06631283 11.25075972 0.05262863 13.54296875 0.03320312 C15.00782881 0.04010207 16.47267897 0.04977492 17.9375 0.0625 C18.61784302 0.05754013 19.29818604 0.05258026 19.99914551 0.04747009 C24.79450683 0.16535993 27.15423183 1.19355252 30.46875 4.62890625 C31.09693909 7.81640625 31.09693909 7.81640625 31.09985352 11.62890625 C31.10700882 12.32532227 31.11416412 13.02173828 31.12153625 13.73925781 C31.13841643 16.03647892 31.119028 18.33174636 31.09765625 20.62890625 C31.09848503 22.22786622 31.10094475 23.82682612 31.10496521 25.42578125 C31.10782271 28.77500082 31.09312774 32.12355146 31.06567383 35.47265625 C31.03159027 39.76372595 31.03760922 44.0535996 31.0563364 48.34472656 C31.06690984 51.64593457 31.05796563 54.9468647 31.04295158 58.24804688 C31.03777178 59.83006973 31.03824916 61.41212163 31.04449654 62.99414062 C31.04995326 65.20636284 31.02956292 67.41687857 31.00219727 69.62890625 C30.99599869 70.88703125 30.98980011 72.14515625 30.9834137 73.44140625 C30.37551982 77.20631477 29.52300097 78.40519926 26.46875 80.62890625 C23.69839676 81.03901613 21.33150943 81.21406473 18.5625 81.1953125 C17.80078491 81.20151108 17.03906982 81.20770966 16.25427246 81.21409607 C14.64722977 81.22118548 13.04011351 81.21803543 11.43310547 81.20532227 C8.97616371 81.19144811 6.52302678 81.22554087 4.06640625 81.26367188 C2.50260324 81.26462307 0.93879546 81.26276423 -0.625 81.2578125 C-1.72358337 81.27769981 -1.72358337 81.27769981 -2.84436035 81.29798889 C-6.38661883 81.23341485 -8.13101853 81.01369651 -10.72312927 78.52159119 C-12.93552628 74.98213312 -13.04353849 72.87028295 -13.06469727 68.71484375 C-13.07331284 68.03939514 -13.08192841 67.36394653 -13.09080505 66.66802979 C-13.11341696 64.44626 -13.10673657 62.22575637 -13.09765625 60.00390625 C-13.1028937 58.45360948 -13.10917063 56.90331591 -13.11643982 55.35302734 C-13.12683487 52.1082456 -13.12229537 48.86390265 -13.10766602 45.61914062 C-13.09047127 41.4659489 -13.1139848 37.31413978 -13.14915562 33.16110229 C-13.17114041 29.96108883 -13.16968583 26.76140574 -13.1613903 23.56134033 C-13.16057151 22.03035973 -13.16742129 20.49935469 -13.18216133 18.96844482 C-13.19963134 16.82576041 -13.1850508 14.68555451 -13.16235352 12.54296875 C-13.16139175 11.32561035 -13.16042999 10.10825195 -13.15943909 8.85400391 C-11.73750679 1.55386037 -6.74025028 -0.13135087 0 0 Z " fill="#050404" transform="translate(164.53125,209.37109375)"/>
<path d="M0 0 C2.4375 1.5625 2.4375 1.5625 4 4 C3.8795923 8.12757579 3.54492815 10.34246677 0.8828125 13.5546875 C-0.02726563 14.32039063 -0.93734375 15.08609375 -1.875 15.875 C-2.87660156 16.7309375 -3.87820312 17.586875 -4.91015625 18.46875 C-5.92980469 19.3040625 -6.94945312 20.139375 -8 21 C-9.32837891 22.09828125 -9.32837891 22.09828125 -10.68359375 23.21875 C-12.46977823 24.68379285 -14.26167112 26.14189786 -16.05859375 27.59375 C-19.37388231 30.30585857 -22.62863384 33.08112789 -25.875 35.875 C-36.14702376 44.71028869 -46.4670039 53.47570027 -57 62 C-57.78375 62.76441406 -58.5675 63.52882812 -59.375 64.31640625 C-62 66 -62 66 -65.484375 66.03125 C-69.51621349 64.84857738 -71.28672547 63.44509493 -74.25 60.5 C-77.87406998 57.01436652 -81.50665535 53.69923462 -85.4375 50.5625 C-89.96783567 46.90858773 -94.24818242 43.06285348 -98.50390625 39.09936523 C-102.69003988 35.22460255 -107.05801433 31.61611533 -111.52734375 28.0703125 C-114 26 -114 26 -116.50390625 23.1796875 C-118.75792969 20.74411504 -118.75792969 20.74411504 -121.46875 20.93359375 C-124.59852825 22.25215773 -126.84959522 23.92863916 -129.5 26.0625 C-130.6476387 26.97236263 -131.79613991 27.88113798 -132.9453125 28.7890625 C-133.58243164 29.29598633 -134.21955078 29.80291016 -134.87597656 30.32519531 C-141.6597926 35.67427324 -148.57764075 40.85445781 -155.46435547 46.06982422 C-157.81175438 47.85670423 -160.14371019 49.66183882 -162.47265625 51.47265625 C-163.79382262 52.48235757 -165.1154068 53.49151256 -166.4375 54.5 C-167.02128418 54.96269287 -167.60506836 55.42538574 -168.20654297 55.90209961 C-171.90340189 58.68748598 -174.38355322 59.64538058 -179 59 C-181.96649643 56.97029191 -182.82492306 55.65653852 -183.75 52.1875 C-182.54452797 47.06424386 -179.09568593 45.08751708 -175 42 C-174.13882568 41.34572021 -174.13882568 41.34572021 -173.26025391 40.67822266 C-169.87516521 38.10869201 -166.47442684 35.56111186 -163.0625 33.02734375 C-159.61907519 30.46801987 -156.20838351 27.87208193 -152.8125 25.25 C-151.27142578 24.06857422 -151.27142578 24.06857422 -149.69921875 22.86328125 C-146.70036245 20.55509132 -143.73510083 18.20623158 -140.76953125 15.85546875 C-138.88824803 14.38252228 -137.00673687 12.90986688 -135.125 11.4375 C-134.23272705 10.72174805 -133.3404541 10.00599609 -132.42114258 9.26855469 C-123.69142794 2.48014241 -123.69142794 2.48014241 -118 3 C-115.37608976 4.43897967 -113.34126618 6.31375112 -111.1875 8.375 C-110.5793042 8.92647705 -109.9711084 9.4779541 -109.34448242 10.04614258 C-107.54679842 11.68081003 -105.77286702 13.3385146 -104 15 C-102.27409349 16.56610035 -100.5453283 18.12906177 -98.8125 19.6875 C-97.62720703 20.76451172 -97.62720703 20.76451172 -96.41796875 21.86328125 C-93.87586356 24.10969731 -91.26620605 26.24621053 -88.625 28.375 C-83.45428164 32.55417436 -78.58267631 36.9841042 -73.7265625 41.51953125 C-72.82679688 42.33808594 -71.92703125 43.15664062 -71 44 C-70.14148438 44.78761719 -69.28296875 45.57523438 -68.3984375 46.38671875 C-66.20739285 48.24002908 -66.20739285 48.24002908 -64.05541992 47.76489258 C-61.80276187 46.9266009 -60.49889676 45.97532577 -58.71484375 44.375 C-57.80412109 43.5696582 -57.80412109 43.5696582 -56.875 42.74804688 C-56.235625 42.17119141 -55.59625 41.59433594 -54.9375 41 C-53.58310094 39.80087405 -52.22762664 38.60296149 -50.87109375 37.40625 C-50.20835449 36.81972656 -49.54561523 36.23320312 -48.86279297 35.62890625 C-46.45659328 33.52482181 -43.98850236 31.50577033 -41.5 29.5 C-37.08330562 25.92458074 -32.78227374 22.233924 -28.5 18.5 C-22.43033909 13.21007657 -16.30305528 8.01206805 -10 3 C-9.30261719 2.43410156 -8.60523438 1.86820312 -7.88671875 1.28515625 C-5.12098176 -0.59875155 -3.26598692 -0.47628976 0 0 Z " fill="#040404" transform="translate(239,111)"/>
<path d="M0 0 C1.15101196 -0.01134979 2.30202393 -0.02269958 3.48791504 -0.03439331 C4.74672989 -0.03146271 6.00554474 -0.0285321 7.30250549 -0.0255127 C8.64472663 -0.03285397 9.98694145 -0.04144037 11.32914734 -0.05117798 C14.97174791 -0.07339642 18.6141223 -0.07632454 22.25678134 -0.07443047 C25.29857297 -0.07431078 28.34031663 -0.08287393 31.38209492 -0.09120798 C38.55855989 -0.11044307 45.73490853 -0.11332544 52.91139221 -0.10656738 C60.31310107 -0.09992547 67.71431173 -0.12279627 75.11591953 -0.15988111 C81.47274283 -0.19057467 87.82940584 -0.20193857 94.18630177 -0.1980443 C97.98213618 -0.19597649 101.77758289 -0.20146041 105.57334709 -0.22593689 C109.14323861 -0.24819651 112.71231993 -0.24633403 116.28221512 -0.22600937 C118.21474272 -0.22097249 120.14728536 -0.24062344 122.07971191 -0.26101685 C131.52766659 -0.16923549 131.52766659 -0.16923549 134.63394165 2.77270508 C136.35157776 5.39440918 136.35157776 5.39440918 136.91407776 7.95690918 C136.16381331 11.20805514 134.93170612 12.30785704 132.35157776 14.39440918 C129.69695187 14.89498043 129.69695187 14.89498043 126.61376953 14.89561462 C125.44303894 14.90544876 124.27230835 14.9152829 123.06610107 14.92541504 C121.78544266 14.91574707 120.50478424 14.9060791 119.18531799 14.89611816 C117.82014916 14.89990202 116.45498417 14.90540261 115.08982849 14.91249084 C111.38527335 14.9264531 107.68118223 14.91527128 103.97665286 14.89877963 C100.10097814 14.88493199 96.22533042 14.89138877 92.34963989 14.89491272 C85.84215309 14.89761476 79.33485075 14.88413882 72.82740784 14.86096191 C65.30079833 14.83434094 57.77449702 14.83260858 50.24785656 14.84435028 C43.00978232 14.85512334 35.77181972 14.84894546 28.53375435 14.834795 C25.45205615 14.82903219 22.37043957 14.82912014 19.28874016 14.8338604 C15.66153522 14.8386272 12.0346685 14.82854132 8.40752792 14.80690575 C6.43887703 14.79867283 4.47018187 14.80519416 2.50152588 14.81210327 C1.33361511 14.80219864 0.16570435 14.79229401 -1.03759766 14.78208923 C-2.56320737 14.77844439 -2.56320737 14.77844439 -4.11963749 14.77472591 C-6.64842224 14.39440918 -6.64842224 14.39440918 -8.47199917 12.99127293 C-9.93173589 11.00984235 -10.08128996 9.84025566 -10.08592224 7.39440918 C-10.10525818 6.71378418 -10.12459412 6.03315918 -10.14451599 5.33190918 C-8.88514488 0.41342043 -4.4095126 0.0164401 0 0 Z " fill="#040505" transform="translate(340.64842224121094,246.6055908203125)"/>
<path d="M0 0 C1.15101196 -0.01134979 2.30202393 -0.02269958 3.48791504 -0.03439331 C4.74672989 -0.03146271 6.00554474 -0.0285321 7.30250549 -0.0255127 C8.64472663 -0.03285397 9.98694145 -0.04144037 11.32914734 -0.05117798 C14.97174791 -0.07339642 18.6141223 -0.07632454 22.25678134 -0.07443047 C25.29857297 -0.07431078 28.34031663 -0.08287393 31.38209492 -0.09120798 C38.55855989 -0.11044307 45.73490853 -0.11332544 52.91139221 -0.10656738 C60.31310107 -0.09992547 67.71431173 -0.12279627 75.11591953 -0.15988111 C81.47274283 -0.19057467 87.82940584 -0.20193857 94.18630177 -0.1980443 C97.98213618 -0.19597649 101.77758289 -0.20146041 105.57334709 -0.22593689 C109.14323861 -0.24819651 112.71231993 -0.24633403 116.28221512 -0.22600937 C118.21474272 -0.22097249 120.14728536 -0.24062344 122.07971191 -0.26101685 C131.52910638 -0.1692215 131.52910638 -0.1692215 134.66519165 2.73754883 C136.35157776 5.39440918 136.35157776 5.39440918 136.41407776 8.51940918 C135.18203295 11.85317748 134.37242259 12.6211873 131.35157776 14.39440918 C128.71256924 14.7719326 128.71256924 14.7719326 125.6517334 14.77536011 C124.48941696 14.78381958 123.32710052 14.79227905 122.12956238 14.80099487 C120.8582547 14.79492218 119.58694702 14.78884949 118.27711487 14.78259277 C116.92179949 14.78665881 115.56648743 14.79200087 114.21118164 14.79852295 C110.53356571 14.81219744 106.85620229 14.80689782 103.17858195 14.79738569 C99.33093125 14.78979129 95.48330219 14.79683395 91.63565063 14.80154419 C85.17527889 14.80700173 78.71501005 14.79980951 72.25465393 14.78552246 C64.78258461 14.76918898 57.31076077 14.77448941 49.83869737 14.79100168 C43.42501342 14.80460838 37.01140343 14.80654043 30.59770972 14.79868567 C26.76628027 14.79400553 22.93496629 14.79339374 19.10354424 14.80329514 C15.50262117 14.81195098 11.90201523 14.80596861 8.30112648 14.78861237 C6.34677697 14.78274332 4.39240068 14.79167438 2.43806458 14.80099487 C1.27856796 14.7925354 0.11907135 14.78407593 -1.07556152 14.77536011 C-2.08526032 14.77422903 -3.09495913 14.77309795 -4.13525486 14.7719326 C-6.64842224 14.39440918 -6.64842224 14.39440918 -8.46962643 12.9916935 C-9.93210127 11.01002024 -10.08128675 9.84194676 -10.08592224 7.39440918 C-10.10525818 6.71378418 -10.12459412 6.03315918 -10.14451599 5.33190918 C-8.88514488 0.41342043 -4.4095126 0.0164401 0 0 Z " fill="#010101" transform="translate(340.64842224121094,275.6055908203125)"/>
<path d="M0 0 C9.60369545 3.3396934 15.36794338 12.36701856 20 21 C22.8055166 27.01699943 24.94805829 32.58299585 25.55908203 39.21459961 C25.64336456 40.11174179 25.72764709 41.00888397 25.81448364 41.93321228 C25.87570404 42.61525223 25.93692444 43.29729218 26 44 C19.93529026 44.28812065 13.87043268 44.5728219 7.80541992 44.85449219 C5.74645765 44.95058032 3.68753713 45.04756787 1.62866211 45.14550781 C-1.34771097 45.28693063 -4.32422417 45.42501079 -7.30078125 45.5625 C-8.2064534 45.60624756 -9.11212555 45.64999512 -10.04524231 45.69506836 C-16.36724806 45.98270354 -22.67187876 46.04794428 -29 46 C-27.5375379 42.22065627 -25.85388591 38.98258772 -23.65625 35.5703125 C-22.99117432 34.53390625 -22.32609863 33.4975 -21.64086914 32.4296875 C-20.93438232 31.33914062 -20.22789551 30.24859375 -19.5 29.125 C-18.77508657 28.00014347 -18.05039676 26.8751428 -17.32592773 25.75 C-2.02750371 2.02750371 -2.02750371 2.02750371 0 0 Z " fill="#F64453" transform="translate(414,104)"/>
<path d="M0 0 C4.62 0 9.24 0 14 0 C14 34.32 14 68.64 14 104 C9.38 104 4.76 104 0 104 C0 69.68 0 35.36 0 0 Z " fill="#4BD16D" transform="translate(222,172)"/>
<path d="M0 0 C4.95 0 9.9 0 15 0 C15 31.35 15 62.7 15 95 C10.05 95 5.1 95 0 95 C0 63.65 0 32.3 0 0 Z " fill="#4A8CDB" transform="translate(111,181)"/>
<path d="M0 0 C16.5 0 33 0 50 0 C52 10 52 10 51 14 C51 13.01 51 12.02 51 11 C38.46 11.33 25.92 11.66 13 12 C12.154375 15.8775 11.30875 19.755 10.4375 23.75 C7.69035448 35.96537258 4.6353172 48.7293656 -1 60 C20.78 59.67 42.56 59.34 65 59 C65 59.66 65 60.32 65 61 C38.6 61 12.2 61 -15 61 C-11.83775834 49.40511392 -11.83775834 49.40511392 -9.90673828 43.84887695 C-5.0186341 29.58443986 -2.71521699 14.80439742 0 0 Z " fill="#9DA9B3" transform="translate(231,393)"/>
<path d="M0 0 C4.95 0 9.9 0 15 0 C15 19.8 15 39.6 15 60 C10.05 60 5.1 60 0 60 C0 40.2 0 20.4 0 0 Z " fill="#DA9E4A" transform="translate(56,216)"/>
<path d="M0 0 C4.95 0 9.9 0 15 0 C15 17.16 15 34.32 15 52 C10.05 52 5.1 52 0 52 C0 34.84 0 17.68 0 0 Z " fill="#D92E3C" transform="translate(166,224)"/>
<path d="M0 0 C5.61 0 11.22 0 17 0 C17.03738281 2.3615625 17.07476563 4.723125 17.11328125 7.15625 C17.15961351 9.46656067 17.21080425 11.77671679 17.26245117 14.08691406 C17.29551798 15.68121798 17.32360559 17.27563383 17.34643555 18.87011719 C17.38032072 21.17430927 17.43264737 23.47749225 17.48828125 25.78125 C17.49467117 26.48366821 17.5010611 27.18608643 17.50764465 27.90979004 C17.68079706 33.85907933 19.328285 38.65657 22 44 C11.33775713 44.62110153 11.33775713 44.62110153 6.5 42.375 C2.57165467 38.64307194 0.20098736 35.68289093 -0.45410156 30.19775391 C-0.45347657 28.79053116 -0.43136932 27.38319541 -0.390625 25.9765625 C-0.38496521 25.23038666 -0.37930542 24.48421082 -0.37347412 23.71542358 C-0.35122898 21.35127363 -0.30105984 18.98868541 -0.25 16.625 C-0.22991944 15.01434493 -0.2116714 13.40366591 -0.1953125 11.79296875 C-0.15481751 7.86090552 -0.07651817 3.9321835 0 0 Z " fill="#798A98" transform="translate(14,335)"/>
<path d="M0 0 C2.31 0 4.62 0 7 0 C7 34.32 7 68.64 7 104 C4.69 104 2.38 104 0 104 C0 69.68 0 35.36 0 0 Z " fill="#44BC62" transform="translate(222,172)"/>
<path d="M0 0 C2.31 0 4.62 0 7 0 C7 31.02 7 62.04 7 94 C4.69 94 2.38 94 0 94 C0 62.98 0 31.96 0 0 Z " fill="#57A3FF" transform="translate(119,182)"/>
<path d="M0 0 C1.78277344 -0.0299707 1.78277344 -0.0299707 3.6015625 -0.06054688 C4.74367188 -0.05990234 5.88578125 -0.05925781 7.0625 -0.05859375 C8.10535156 -0.06044678 9.14820313 -0.0622998 10.22265625 -0.06420898 C13.69395343 0.56285815 14.87153166 1.67268223 17 4.4375 C17.5 7.4375 17.5 7.4375 17 10.4375 C14.8463688 13.25248503 13.65168857 14.31633428 10.13085938 14.97094727 C6.58590181 15.00649163 3.04510889 15.03142172 -0.5 15 C-1.73621094 15.02384766 -2.97242188 15.04769531 -4.24609375 15.07226562 C-5.43332031 15.07033203 -6.62054688 15.06839844 -7.84375 15.06640625 C-8.92849609 15.06713135 -10.01324219 15.06785645 -11.13085938 15.06860352 C-14 14.4375 -14 14.4375 -16.38476562 12.09350586 C-18 9.4375 -18 9.4375 -18 6.3125 C-15.2066959 -1.71824929 -7.10152697 -0.04236269 0 0 Z " fill="#040404" transform="translate(303,275.5625)"/>
<path d="M0 0 C1.13244141 -0.01998047 2.26488281 -0.03996094 3.43164062 -0.06054688 C11.69132066 -0.05567965 11.69132066 -0.05567965 15.8125 2.27734375 C17.5625 4.4375 17.5625 4.4375 18.125 7.4375 C17.43114726 11.13804794 16.49796045 12.13158967 13.5625 14.4375 C10.69335938 14.95507812 10.69335938 14.95507812 7.40625 14.96875 C6.21902344 14.97390625 5.03179687 14.9790625 3.80859375 14.984375 C2.57238281 14.96890625 1.33617187 14.9534375 0.0625 14.9375 C-1.17371094 14.95296875 -2.40992188 14.9684375 -3.68359375 14.984375 C-5.46443359 14.97664063 -5.46443359 14.97664063 -7.28125 14.96875 C-8.36599609 14.96423828 -9.45074219 14.95972656 -10.56835938 14.95507812 C-14.10592897 14.31691887 -15.32116652 13.30619388 -17.4375 10.4375 C-17.4375 6.875 -17.4375 6.875 -16.4375 3.4375 C-11.84375318 -1.10369431 -6.05515088 -0.03778029 0 0 Z " fill="#060606" transform="translate(302.4375,246.5625)"/>
<path d="M0 0 C1.71316406 -0.00773437 1.71316406 -0.00773437 3.4609375 -0.015625 C4.64945313 -0.00015625 5.83796875 0.0153125 7.0625 0.03125 C8.25101562 0.01578125 9.43953125 0.0003125 10.6640625 -0.015625 C11.80617188 -0.01046875 12.94828125 -0.0053125 14.125 0 C15.16785156 0.00451172 16.21070313 0.00902344 17.28515625 0.01367188 C20.74800844 0.65899946 21.9351614 1.77071533 24.0625 4.53125 C24.5625 7.53125 24.5625 7.53125 24.0625 10.53125 C21.9351614 13.29178467 20.74800844 14.40350054 17.28515625 15.04882812 C16.24230469 15.05333984 15.19945312 15.05785156 14.125 15.0625 C12.41183594 15.07023437 12.41183594 15.07023437 10.6640625 15.078125 C9.47554688 15.06265625 8.28703125 15.0471875 7.0625 15.03125 C5.87398437 15.04671875 4.68546875 15.0621875 3.4609375 15.078125 C2.31882813 15.07296875 1.17671875 15.0678125 0 15.0625 C-1.04285156 15.05798828 -2.08570313 15.05347656 -3.16015625 15.04882812 C-6.62300844 14.40350054 -7.8101614 13.29178467 -9.9375 10.53125 C-10.4375 7.53125 -10.4375 7.53125 -9.9375 4.53125 C-6.93102981 0.62991281 -4.84569476 0.02096407 0 0 Z " fill="#020203" transform="translate(248.9375,349.46875)"/>
<path d="M0 0 C2.31 0 4.62 0 7 0 C7 19.47 7 38.94 7 59 C4.69 59 2.38 59 0 59 C0 39.53 0 20.06 0 0 Z " fill="#FFBA57" transform="translate(64,217)"/>
<path d="M0 0 C2.31 0 4.62 0 7 0 C7 16.83 7 33.66 7 51 C4.69 51 2.38 51 0 51 C0 34.17 0 17.34 0 0 Z " fill="#FA4655" transform="translate(174,225)"/>
<path d="M0 0 C0.66 0.33 1.32 0.66 2 1 C0.56564079 2.4614226 -0.87260586 3.91903049 -2.3125 5.375 C-3.11300781 6.18710938 -3.91351563 6.99921875 -4.73828125 7.8359375 C-7 10 -7 10 -10 12 C-11.64665854 14.86093915 -12.80747002 17.94974161 -14.0625 21 C-14.41376953 21.81339844 -14.76503906 22.62679687 -15.12695312 23.46484375 C-21.70876145 39.2163926 -21.88752457 56.0105566 -16 72 C-14.29644748 75.85069969 -12.34456684 79.53107509 -10.29296875 83.20703125 C-9 86 -9 86 -10 89 C-21.87626043 74.68110445 -26.06155813 59.34692924 -25 41 C-22.64847223 23.99996438 -13.36760951 10.32302941 0 0 Z " fill="#DCA04A" transform="translate(347,103)"/>
<path d="M0 0 C0.33 0 0.66 0 1 0 C1 1.98 1 3.96 1 6 C-5.06470974 6.28812065 -11.12956732 6.5728219 -17.19458008 6.85449219 C-19.25354235 6.95058032 -21.31246287 7.04756787 -23.37133789 7.14550781 C-26.34771097 7.28693063 -29.32422417 7.42501079 -32.30078125 7.5625 C-33.2064534 7.60624756 -34.11212555 7.64999512 -35.04524231 7.69506836 C-41.36724806 7.98270354 -47.67187876 8.04794428 -54 8 C-53.34 6.35 -52.68 4.7 -52 3 C-51.67 3.66 -51.34 4.32 -51 5 C-34.17 5 -17.34 5 0 5 C0 3.35 0 1.7 0 0 Z " fill="#C52B38" transform="translate(439,142)"/>
</svg>
