<?xml version="1.0" encoding="UTF-8"?>
<svg version="1.1" xmlns="http://www.w3.org/2000/svg" width="512" height="512">
<path d="M0 0 C2.66894531 2.29663086 2.66894531 2.29663086 5.328125 4.96484375 C5.80320496 5.4394252 6.27828491 5.91400665 6.76776123 6.40296936 C7.76285308 7.40038657 8.75429113 8.40146137 9.7421875 9.40600586 C11.25102102 10.93853706 12.77284792 12.45720211 14.296875 13.97460938 C24.28162316 24.01676602 24.28162316 24.01676602 24.3125 31.4375 C24.32925781 32.36433594 24.34601563 33.29117188 24.36328125 34.24609375 C23.77418061 38.71185669 21.87205105 41.26859143 18.44406128 44.14372253 C17.42337555 44.86739517 16.40268982 45.59106781 15.35107422 46.33666992 C-19.91544358 71.8044355 -19.91544358 71.8044355 -39.28686523 109.07834911 C-43.10059132 133.64564549 -41.32435758 159.43706159 -38.98823547 184.08720398 C-38.86311742 185.45531456 -38.86311742 185.45531456 -38.73547173 186.85106373 C-38.5754565 188.54486095 -38.40062463 190.23735213 -38.20800972 191.92775249 C-37.89107726 195.23849594 -37.72757554 197.47499513 -39.28199768 200.47061157 C-42.30096193 203.15813355 -45.1719418 203.12418762 -49.03031921 203.12025452 C-50.06938416 203.12162918 -51.1084491 203.12300385 -52.17900085 203.12442017 C-53.31835587 203.12082489 -54.45771088 203.11722961 -55.6315918 203.11352539 C-57.43178268 203.11374443 -57.43178268 203.11374443 -59.26834106 203.1139679 C-62.55940532 203.1133902 -65.850407 203.10837154 -69.14146018 203.10139394 C-72.58078054 203.0951468 -76.02010172 203.09455552 -79.45942688 203.09336853 C-85.97233141 203.09025924 -92.48521917 203.08205125 -98.99811631 203.07201904 C-106.4127946 203.06084545 -113.82747368 203.05534431 -121.24215829 203.05032361 C-136.49478191 203.03986831 -151.74738879 203.02227662 -167 203 C-166.58790283 204.06436279 -166.17580566 205.12872559 -165.7512207 206.2253418 C-165.20497402 207.65403211 -164.65900927 209.08283024 -164.11328125 210.51171875 C-163.84229614 211.20938354 -163.57131104 211.90704834 -163.29211426 212.62585449 C-159.34667675 223.00400532 -157.54137636 233.92639259 -157 245 C-156.92072266 246.28970703 -156.92072266 246.28970703 -156.83984375 247.60546875 C-156.26564576 265.30574604 -160.42384154 282.6887691 -167 299 C-153.29977121 299.73616046 -139.60818464 300.25717682 -125.89039326 300.52589893 C-119.51404934 300.65710742 -113.15593529 300.85394871 -106.78833008 301.21850586 C-73.97097519 303.56064296 -73.97097519 303.56064296 -45.47802734 289.67333984 C-38.01456016 282.76307745 -31.24703807 275.08695045 -25.19807243 266.90873528 C-21.22166999 261.69200878 -17.59671235 258.99803453 -11 258 C0.07530775 258.40149247 7.02557345 267.84496784 14.375 275.1875 C15.08527344 275.88552734 15.79554688 276.58355469 16.52734375 277.30273438 C17.20667969 277.98013672 17.88601563 278.65753906 18.5859375 279.35546875 C19.1948584 279.96028076 19.8037793 280.56509277 20.43115234 281.18823242 C23.59569914 284.84277674 24.35111544 287.96087997 24.5 292.75 C24.57734375 294.22726562 24.57734375 294.22726562 24.65625 295.734375 C22.93502073 304.29953969 15.67402638 308.9718901 8.96089172 313.78947449 C-10.52908794 327.81669613 -34.54047659 346.07780476 -39.13484669 370.94926834 C-42.71201309 395.56184143 -41.01508845 421.33770101 -38.68501282 446.01057434 C-38.6059756 446.92746599 -38.52693838 447.84435764 -38.4455061 448.78903389 C-38.29531482 450.49301256 -38.12349053 452.19528139 -37.92582417 453.89440727 C-37.73086548 456.16862488 -37.73086548 456.16862488 -38 460 C-40.59251567 462.70246545 -42.27891688 463.87874901 -45.9935236 464.50336456 C-47.67122916 464.50562672 -47.67122916 464.50562672 -49.38282776 464.50793457 C-51.31551514 464.52485352 -51.31551514 464.52485352 -53.2872467 464.54211426 C-54.70785748 464.53433773 -56.12846603 464.52614509 -57.54907227 464.51757812 C-59.0506966 464.52300043 -60.55231561 464.5301237 -62.05392456 464.53881836 C-66.12621413 464.5570405 -70.19809798 464.54998937 -74.27039456 464.53730202 C-78.53264533 464.5271704 -82.79486151 464.53656797 -87.05711365 464.54284668 C-94.21351353 464.55012183 -101.36974824 464.54053807 -108.52612305 464.52148438 C-116.80088068 464.4997075 -125.07524422 464.50677331 -133.34999233 464.52879 C-140.45501441 464.54693789 -147.5599178 464.54950559 -154.66495556 464.53903532 C-158.90834607 464.53279807 -163.15155127 464.53197121 -167.39492989 464.54518127 C-171.38334623 464.55673066 -175.37125397 464.54873126 -179.35961533 464.52560425 C-180.8237454 464.52031256 -182.28791823 464.52183886 -183.75203133 464.53065491 C-185.74939069 464.54157366 -187.74684354 464.5254576 -189.74415588 464.50793457 C-191.42129591 464.50567242 -191.42129591 464.50567242 -193.13231754 464.50336456 C-196.65250864 463.8854651 -197.80029428 462.754721 -200 460 C-201.1968723 457.6062554 -201.1376542 456.10495338 -201.15821838 453.43161011 C-201.17290161 451.98866577 -201.17290161 451.98866577 -201.18788147 450.51657104 C-201.19363693 449.4577774 -201.1993924 448.39898376 -201.20532227 447.30810547 C-201.21522186 446.19590637 -201.22512146 445.08370728 -201.23532104 443.93780518 C-201.26700455 440.24762122 -201.29172056 436.55742437 -201.31640625 432.8671875 C-201.33696986 430.3141343 -201.35796617 427.76108455 -201.37937927 425.20803833 C-201.42900543 419.16616293 -201.47425484 413.12426996 -201.51740164 407.08234608 C-201.56676067 400.20452723 -201.62168374 393.32675636 -201.67708123 386.44898391 C-201.79092526 372.29936738 -201.89775902 358.14970478 -202 344 C-202.61515472 344.48206406 -203.23030945 344.96412811 -203.86410522 345.46080017 C-204.6725589 346.09240555 -205.48101257 346.72401093 -206.31396484 347.37475586 C-207.11474457 348.00119492 -207.91552429 348.62763397 -208.74057007 349.27305603 C-232.23407252 367.22978123 -264.32823633 372.61969397 -293.0625 368.9375 C-325.14614685 364.30633074 -353.5303587 347.15275519 -373.04296875 321.26953125 C-382.84885934 307.55035495 -389.12546063 292.33508787 -393 276 C-393.26425781 274.91203125 -393.52851563 273.8240625 -393.80078125 272.703125 C-399.84092251 241.63954136 -391.92136537 210.05097283 -375.1875 183.75 C-370.70962395 177.27118327 -365.44518434 171.6603436 -360 166 C-359.44054687 165.36578125 -358.88109375 164.7315625 -358.3046875 164.078125 C-340.5550432 144.56280927 -310.36100956 133.11531788 -284.55566406 131.88330078 C-256.24139781 130.84362824 -230.09682109 137.18335834 -206.74609375 153.65258789 C-205.85462646 154.28024551 -204.96315918 154.90790314 -204.04467773 155.55458069 C-203.03256226 156.27006325 -203.03256226 156.27006325 -202 157 C-201.99641747 156.13335582 -201.99641747 156.13335582 -201.99276257 155.24920368 C-201.93360557 141.18566738 -201.85805111 127.12229894 -201.76428509 113.05894947 C-201.71933502 106.25798404 -201.67991863 99.45707087 -201.65356445 92.65600586 C-201.62812185 86.09420463 -201.5872118 79.5326179 -201.53681374 72.97095299 C-201.52011212 70.4659279 -201.50861843 67.96086257 -201.50238609 65.45578957 C-201.49278112 61.95050224 -201.46476374 58.44581426 -201.43237305 54.94067383 C-201.43380814 53.90201675 -201.43524323 52.86335968 -201.4367218 51.79322815 C-201.31643583 42.60569894 -201.31643583 42.60569894 -198 39 C-194.31759234 37.17956537 -191.52528628 36.78938284 -187.44665527 36.97050476 C-185.78744301 37.03396591 -185.78744301 37.03396591 -184.0947113 37.09870911 C-182.2872921 37.18266182 -182.2872921 37.18266182 -180.44335938 37.26831055 C-177.79387611 37.37073469 -175.14436738 37.47120361 -172.49475098 37.56999207 C-171.79751797 37.59708704 -171.10028496 37.62418202 -170.38192368 37.65209806 C-161.35821724 37.99669152 -152.33014242 38.15464358 -143.3016367 38.31827867 C-134.54412836 38.47761789 -125.79881391 38.69409256 -117.04931641 39.10864258 C-107.8348948 39.53559425 -98.63113559 39.78574526 -89.40625 39.76171875 C-88.28857805 39.75880774 -88.28857805 39.75880774 -87.14832687 39.75583792 C-67.56816232 39.60643612 -52.82877517 36.93518928 -38.19958496 22.67134094 C-32.22704975 16.36821197 -26.84473513 9.67404538 -21.84533691 2.58088684 C-16.11521413 -5.20322985 -7.72598198 -4.3186228 0 0 Z " fill="#010101" transform="translate(441,28)"/>
<path d="M0 0 C22.43966822 16.43765106 37.73673815 40.33379826 42.82421875 67.6953125 C45.06231139 89.02433537 42.85266975 110.05600786 33.21484375 129.41796875 C32.52068359 130.82755859 32.52068359 130.82755859 31.8125 132.265625 C28.55939851 138.53884724 24.7763565 144.03219907 20.21484375 149.41796875 C19.53550781 150.23136719 18.85617188 151.04476562 18.15625 151.8828125 C6.040851 165.89866624 -8.55839416 174.94248573 -25.78515625 181.41796875 C-26.90083984 181.86269531 -26.90083984 181.86269531 -28.0390625 182.31640625 C-50.64015352 190.7241786 -78.99871171 187.80603853 -100.78515625 178.41796875 C-118.7449596 170.00588287 -135.5076716 156.60531565 -145.78515625 139.41796875 C-146.76742187 137.79181641 -146.76742187 137.79181641 -147.76953125 136.1328125 C-160.70526204 113.7981319 -165.83676931 83.63823145 -159.16015625 58.35546875 C-158.43152919 56.02233889 -157.64251402 53.70692703 -156.78515625 51.41796875 C-156.36105469 50.24105469 -155.93695313 49.06414062 -155.5 47.8515625 C-145.13313858 21.54456876 -125.09878372 1.86010095 -99.859375 -10.3046875 C-94.32030736 -12.60618066 -88.60421159 -14.16117423 -82.78515625 -15.58203125 C-81.81920532 -15.85019653 -81.81920532 -15.85019653 -80.83374023 -16.1237793 C-53.59584632 -23.14353269 -22.75983586 -15.82971455 0 0 Z " fill="#F9AF3B" transform="translate(223.78515625,194.58203125)"/>
<path d="M0 0 C1.01539352 -0.00131424 2.03078705 -0.00262848 3.07695007 -0.00398254 C6.41710487 0.00226404 9.75268091 0.07214224 13.09204102 0.14282227 C15.41371695 0.15961706 17.73542488 0.17242411 20.05714417 0.18141174 C26.1555147 0.21570663 32.25194302 0.30405511 38.34954834 0.40374756 C44.57659634 0.4959648 50.80395951 0.53695173 57.03149414 0.58227539 C69.24132991 0.67867683 81.44972682 0.83219764 93.65844727 1.02172852 C92.71261514 2.13788395 91.76495749 3.25249259 90.81654358 4.36645508 C90.02525102 5.29775238 90.02525102 5.29775238 89.21797276 6.24786377 C87.16632881 8.58148312 84.94533754 10.67418616 82.65454102 12.77172852 C68.89286134 25.16933498 68.89286134 25.16933498 62.08618164 41.91967773 C61.37354967 45.4218246 60.31318527 48.82180746 59.3046875 52.24829102 C58.5105678 54.94946069 57.746796 57.65742801 56.99047852 60.36938477 C56.22420762 63.09838942 55.40721466 65.76109428 54.49438477 68.44750977 C53.0954992 72.75529289 53.33592668 76.7235366 54.65844727 81.02172852 C61.88632815 82.5515297 67.14189881 81.11734437 74.09594727 78.89672852 C76.22737032 78.24149635 78.35888133 77.58655021 80.49047852 76.93188477 C82.05596436 76.44292725 82.05596436 76.44292725 83.65307617 75.9440918 C86.35760416 75.11405876 89.06807289 74.33223238 91.79516602 73.58032227 C92.56094971 73.36714355 93.3267334 73.15396484 94.11572266 72.93432617 C95.51017966 72.54829449 96.90639765 72.16853982 98.3046875 71.79663086 C102.68987622 70.553416 105.98312793 68.69133726 109.65844727 66.02172852 C111.14344727 65.03172852 111.14344727 65.03172852 112.65844727 64.02172852 C112.65844727 87.12172852 112.65844727 110.22172852 112.65844727 134.02172852 C69.75844727 134.02172852 26.85844727 134.02172852 -17.34155273 134.02172852 C-17.48592773 113.74735352 -17.63030273 93.47297852 -17.77905273 72.58422852 C-17.84278076 66.19249268 -17.90650879 59.80075684 -17.97216797 53.21533203 C-18.00378418 45.3848877 -18.00378418 45.3848877 -18.00965881 41.71421814 C-18.02318853 38.49194594 -18.062594 35.27102436 -18.11026901 32.0491119 C-18.14784642 28.84153569 -18.13843055 25.63402718 -18.13623047 22.42626953 C-18.16141723 21.29697556 -18.18660398 20.1676816 -18.21255398 19.0041666 C-18.1511426 12.29416732 -17.06437913 7.73837303 -12.50781155 2.65794468 C-8.56309697 -0.32157269 -4.79212701 -0.16368579 0 0 Z " fill="#CEE3FA" transform="translate(274.341552734375,341.978271484375)"/>
<path d="M0 0 C36.63 0 73.26 0 111 0 C107.22096513 4.40887402 104.05110391 8.02017823 99.8125 11.7578125 C88.01359383 22.53519452 80.30799822 31.10696238 77.51855469 47.37255859 C76.60439486 52.00447386 75.07419662 56.4501189 73.625 60.9375 C70.62986424 69.58673409 70.62986424 69.58673409 72 78.375 C74.48091546 80.39074381 76.30962136 80.55287906 79.4609375 80.38671875 C84.43506905 79.62912025 89.19618733 78.10268064 93.99365234 76.61621094 C96.8350275 75.74353743 99.68851388 74.91400924 102.54223633 74.08276367 C104.71797174 73.44686091 106.89026808 72.80009737 109.0625 72.15234375 C111.41074945 71.4558386 113.75255056 70.80527754 116.125 70.19140625 C121.57435709 68.75608452 124.30848117 67.26831865 128 63 C128.66 63 129.32 63 130 63 C130 85.77 130 108.54 130 132 C99.25248053 132.36147302 99.25248053 132.36147302 84.06949043 132.45228481 C75.85623513 132.5021682 67.64380198 132.56550353 59.43115234 132.67895508 C52.9289682 132.76873493 46.42740416 132.82674054 39.92461741 132.84679645 C36.48185548 132.85851913 33.04086731 132.88600751 29.59867477 132.95157051 C25.75343659 133.02421441 21.90992437 133.0259047 18.06396484 133.02172852 C16.92604492 133.054086 15.788125 133.08644348 14.61572266 133.11978149 C7.29374401 133.03363933 7.29374401 133.03363933 3.94800758 130.3605566 C-0.71941852 124.29963969 -0.8237626 118.07692361 -0.68115234 110.68725586 C-0.6820285 109.48625244 -0.68290466 108.28524902 -0.68380737 107.04785156 C-0.68036345 103.78132986 -0.65044859 100.51638614 -0.60836363 97.25017619 C-0.5706454 93.82697565 -0.56731481 90.40373823 -0.56021118 86.98036194 C-0.54162366 80.50986987 -0.49247089 74.03999204 -0.43211424 67.56976944 C-0.35824991 59.47436559 -0.32557871 51.37886026 -0.29296875 43.28320312 C-0.2346702 28.85499128 -0.11445841 14.42811813 0 0 Z " fill="#CFE5FC" transform="translate(257,82)"/>
<path d="M0 0 C4.59798481 0.806664 5.77751096 1.89172351 8.5625 5.625 C9.28915187 9.06461713 9.23973726 12.4325566 9.19140625 15.9375 C9.19381821 16.94280762 9.19623016 17.94811523 9.19871521 18.98388672 C9.19773668 21.112182 9.18434173 23.24050271 9.15942383 25.36865234 C9.12540678 28.58652029 9.13869299 31.80159408 9.15820312 35.01953125 C9.14972845 49.79879112 8.87130271 62.46782025 -2.06640625 73.53125 C-10.03452664 80.56734972 -17.45895286 82.94588754 -27.9921875 82.8203125 C-28.89373566 82.8174826 -29.79528381 82.81465271 -30.72415161 82.81173706 C-33.58707276 82.80059439 -36.44967434 82.7755008 -39.3125 82.75 C-41.26041213 82.73996255 -43.20832919 82.73083804 -45.15625 82.72265625 C-49.9167887 82.70067443 -54.67709027 82.6661855 -59.4375 82.625 C-59.14359375 84.26855469 -59.14359375 84.26855469 -58.84375 85.9453125 C-58.4375 89.625 -58.4375 89.625 -59.9375 92.5 C-63.24707223 95.3131364 -65.10083207 95.60711683 -69.4375 95.625 C-72.18404306 94.14442999 -74.31153488 92.14212724 -76.5625 90 C-77.45388672 89.19755859 -77.45388672 89.19755859 -78.36328125 88.37890625 C-80.08129701 86.82017672 -81.76265964 85.22989638 -83.4375 83.625 C-84.85095703 82.2946875 -84.85095703 82.2946875 -86.29296875 80.9375 C-88.4375 78.625 -88.4375 78.625 -89.625 75.25 C-89.35496582 70.0293392 -87.20946121 68.0521364 -83.4375 64.625 C-80.60633423 62.21135166 -77.74215876 59.85588352 -74.828125 57.54296875 C-72.43100905 55.6912068 -72.43100905 55.6912068 -70.4375 53.625 C-66.07501885 53.04882324 -64.10224041 53.16799097 -60.4375 55.6875 C-57.84843954 59.49018256 -58.61082485 61.238455 -59.4375 65.625 C-54.02986899 65.74925623 -48.62308171 65.83964659 -43.21435547 65.8996582 C-41.37729401 65.92469289 -39.54033107 65.95873145 -37.70361328 66.00219727 C-35.05216073 66.06334037 -32.40203266 66.09131957 -29.75 66.11328125 C-28.93821289 66.13908768 -28.12642578 66.1648941 -27.29003906 66.19148254 C-21.24608937 66.19440809 -16.93041279 64.7705111 -12.4375 60.625 C-7.91448022 54.91385572 -7.88698656 48.75266063 -7.96875 41.73828125 C-7.95817566 40.20822701 -7.95817566 40.20822701 -7.9473877 38.64726257 C-7.92545211 35.4104159 -7.92833919 32.17439881 -7.9375 28.9375 C-7.9495401 24.6623145 -7.93587881 20.3883586 -7.90625 16.11328125 C-7.92322937 14.6475341 -7.92322937 14.6475341 -7.94055176 13.1521759 C-7.90845848 8.83978443 -7.82748704 6.29483108 -5.62304688 2.50854492 C-3.4375 0.625 -3.4375 0.625 0 0 Z " fill="#020100" transform="translate(219.4375,249.375)"/>
<path d="M0 0 C2.97305992 1.64651525 5.42939742 3.78996049 8 6 C8.50499023 6.40750488 9.00998047 6.81500977 9.53027344 7.23486328 C11.20910948 8.59015809 12.85583716 9.97792139 14.5 11.375 C15.04092285 11.80852783 15.5818457 12.24205566 16.13916016 12.6887207 C18.25243718 14.54795557 19.81773484 16.20766095 20.45849609 18.99316406 C20.60479385 22.19983255 20.30265506 24.51304661 18.6015625 27.25 C17.94929688 27.8275 17.29703125 28.405 16.625 29 C15.5421875 29.97646484 15.5421875 29.97646484 14.4375 30.97265625 C13.633125 31.64167969 12.82875 32.31070313 12 33 C10.6696875 34.11181641 10.6696875 34.11181641 9.3125 35.24609375 C0.26171007 42.62617101 0.26171007 42.62617101 -6 42 C-8.375 40.5 -8.375 40.5 -10 38 C-10.21354367 35.31657737 -10.0712573 32.69681456 -10 30 C-15.44428237 29.90083274 -20.88803448 29.82839091 -26.33300781 29.78027344 C-28.18368696 29.76020661 -30.03430309 29.73294655 -31.88476562 29.69824219 C-34.55093977 29.64950567 -37.21627287 29.62698213 -39.8828125 29.609375 C-40.70492218 29.58872986 -41.52703186 29.56808472 -42.37405396 29.54681396 C-47.74590114 29.54473419 -50.72283431 30.45966038 -55 34 C-61.01153536 40.51249663 -61.27378243 46.12976856 -61.23828125 54.62890625 C-61.25369261 56.73633463 -61.26999562 58.84375664 -61.28710938 60.95117188 C-61.30360116 64.2650356 -61.31246612 67.57843234 -61.30541992 70.89233398 C-61.30280681 74.0967279 -61.33086121 77.29970171 -61.36328125 80.50390625 C-61.35307449 81.49564346 -61.34286774 82.48738068 -61.33235168 83.50917053 C-61.43011654 90.36305052 -61.43011654 90.36305052 -64.34838867 93.62475586 C-67.58984574 95.30592036 -69.39839541 95.61303908 -73 95 C-75.15258789 93.6706543 -75.15258789 93.6706543 -77 91 C-77.60313159 87.26028297 -77.53591071 83.55021529 -77.49609375 79.76953125 C-77.49754898 78.66453781 -77.49900421 77.55954437 -77.50050354 76.42106628 C-77.49884355 74.08170946 -77.48727126 71.74234183 -77.46655273 69.40307617 C-77.43774766 65.84310776 -77.44591324 62.28464276 -77.45898438 58.72460938 C-77.45274206 56.44790949 -77.44434729 54.17121429 -77.43359375 51.89453125 C-77.43652939 50.83796829 -77.43946503 49.78140533 -77.44248962 48.69282532 C-77.29860481 37.26446401 -74.13094709 29.65338368 -66.44140625 21.30859375 C-55.94168264 11.26209562 -42.29963727 12.50425242 -28.8125 12.75 C-26.8873884 12.77009883 -24.96225651 12.78834361 -23.03710938 12.8046875 C-18.35756496 12.84840786 -13.67901027 12.91724762 -9 13 C-9.495 12.01 -9.495 12.01 -10 11 C-10.35872645 7.12575435 -10.56710729 4.85066094 -8.375 1.5625 C-5.15577836 -0.55540897 -3.80569211 -0.73186387 0 0 Z " fill="#030200" transform="translate(179,213)"/>
<path d="M0 0 C1.18480453 -0.00960754 2.36960907 -0.01921509 3.59031677 -0.02911377 C5.50446129 -0.03548859 5.50446129 -0.03548859 7.45727539 -0.04199219 C9.4286422 -0.0505423 9.4286422 -0.0505423 11.43983459 -0.05926514 C14.21965927 -0.06975329 16.99945521 -0.07561062 19.77929688 -0.07910156 C23.33467788 -0.08458999 26.88967664 -0.10863413 30.44493771 -0.13707352 C33.84487627 -0.16021272 37.24476216 -0.16214974 40.64477539 -0.16699219 C41.9188475 -0.17933899 43.19291962 -0.19168579 44.50559998 -0.20440674 C45.69355667 -0.20140564 46.88151337 -0.19840454 48.10546875 -0.1953125 C49.14819443 -0.19895813 50.1909201 -0.20260376 51.26524353 -0.20635986 C54.56666017 0.21901406 56.44748641 1.2042672 59.11743164 3.16113281 C60.68678758 6.29984469 60.46944267 8.69969103 60.11743164 12.16113281 C58.46377964 14.7869476 57.77382163 15.74396519 55.11743164 17.16113281 C50.7137875 17.88470945 46.35191919 17.78629776 41.89868164 17.72753906 C39.92678892 17.7361479 37.95489601 17.74477816 35.98300934 17.75467587 C32.52773105 17.76498339 29.07265328 17.74212875 25.61743164 17.72363281 C21.49389386 17.70539822 17.37074396 17.69489041 13.24719238 17.71336365 C10.68184191 17.72266173 8.11634298 17.71342065 5.55114746 17.68373108 C4.38643921 17.68731125 3.22173096 17.69089142 2.02172852 17.69458008 C0.99978394 17.6883815 -0.02216064 17.68218292 -1.07507324 17.67579651 C-4.63016829 18.29037164 -6.30086142 19.6943484 -8.88256836 22.16113281 C-10.07883283 24.55366175 -10.02265192 26.10479178 -10.05834961 28.77441406 C-10.08219727 29.69287109 -10.10604492 30.61132812 -10.13061523 31.55761719 C-10.17332012 33.48968963 -10.20471326 35.42204776 -10.22436523 37.35449219 C-10.35575381 41.72698171 -10.46000948 44.45538846 -12.74194336 48.26660156 C-15.51765476 50.72320746 -17.18749259 51.16113281 -20.88256836 51.16113281 C-23.76129413 49.78719551 -25.63246273 48.41123844 -27.88256836 46.16113281 C-28.34382776 42.13895087 -28.20650934 38.08166231 -28.19506836 34.03613281 C-28.21118164 32.91980469 -28.22729492 31.80347656 -28.24389648 30.65332031 C-28.24964354 20.90632051 -26.60350994 14.2043463 -19.85131836 6.92285156 C-14.07246285 1.75169316 -7.59955302 0.04980159 0 0 Z " fill="#000000" transform="translate(170.882568359375,104.8388671875)"/>
<path d="M0 0 C2.05938216 1.57885966 2.84571211 2.69142423 4 5 C4.09321192 6.53564837 4.13174506 8.07483219 4.140625 9.61328125 C4.16962891 10.9909668 4.16962891 10.9909668 4.19921875 12.39648438 C4.23286524 14.32856908 4.25128608 16.2609835 4.25390625 18.19335938 C4.3788389 22.89806002 4.44385326 25.26798567 7.359375 29.10546875 C11.21416204 31.87110738 13.97777346 32.12385931 18.60131836 32.12597656 C19.74938461 32.12978333 20.89745087 32.13359009 22.08030701 32.13751221 C23.32095413 32.13853943 24.56160126 32.13956665 25.83984375 32.140625 C28.45508688 32.1589466 31.07032151 32.1785163 33.68554688 32.19921875 C37.81801361 32.22960534 41.95017463 32.25231681 46.08276367 32.25048828 C50.06462921 32.24955063 54.04567094 32.28829679 58.02734375 32.328125 C59.88527809 32.31752045 59.88527809 32.31752045 61.78074646 32.30670166 C63.50757408 32.33132477 63.50757408 32.33132477 65.26928711 32.35644531 C66.28171982 32.36009094 67.29415253 32.36373657 68.33726501 32.36749268 C72.00151914 33.23790133 73.04190799 34.86060957 75 38 C75.5 41.5625 75.5 41.5625 75 45 C72.78136971 47.90717073 71.48055071 48.83981643 68 50 C66.19737349 50.10302066 64.39121709 50.14849863 62.58569336 50.16113281 C61.47701401 50.17074036 60.36833466 50.1803479 59.22605896 50.19024658 C58.02610794 50.19449646 56.82615692 50.19874634 55.58984375 50.203125 C54.35263077 50.20882507 53.11541779 50.21452515 51.8407135 50.22039795 C49.21714128 50.22985424 46.59355714 50.23638442 43.9699707 50.24023438 C39.97786373 50.24676059 35.98612689 50.28090572 31.99414062 50.3125 C29.44271138 50.31903393 26.89127846 50.32428287 24.33984375 50.328125 C23.15406235 50.3404718 21.96828094 50.3528186 20.74656677 50.36553955 C9.94951382 50.33688319 1.01584818 48.6261889 -7 41 C-13.14327403 33.2400749 -13.33985072 25.91493229 -13.3125 16.375 C-13.32861328 15.24320312 -13.34472656 14.11140625 -13.36132812 12.9453125 C-13.36197266 11.85734375 -13.36261719 10.769375 -13.36328125 9.6484375 C-13.36626221 8.66020996 -13.36924316 7.67198242 -13.37231445 6.65380859 C-12.93913241 3.56614377 -12.16149786 2.2195055 -10 0 C-6.22941703 -1.25686099 -3.86146303 -0.82745636 0 0 Z " fill="#000000" transform="translate(156,403)"/>
<path d="M0 0 C3.45259693 1.72629846 5.07238601 2.83225473 7.671875 5.4765625 C8.33574219 6.146875 8.99960937 6.8171875 9.68359375 7.5078125 C10.70646484 8.55582031 10.70646484 8.55582031 11.75 9.625 C12.44738281 10.33140625 13.14476562 11.0378125 13.86328125 11.765625 C15.5801293 13.50599152 17.29123998 15.25170272 19 17 C14.06757111 22.94115185 8.75164046 28.40944175 3.296875 33.87109375 C2.37787415 34.793423 1.45887329 35.71575226 0.51202393 36.66603088 C-1.4192592 38.6032586 -3.35255368 40.53845273 -5.28710938 42.47241211 C-7.76936524 44.95456546 -10.24461781 47.44358192 -12.71825027 49.93432522 C-15.08373852 52.31355388 -17.45635047 54.68563169 -19.828125 57.05859375 C-21.16245575 58.40370277 -21.16245575 58.40370277 -22.52374268 59.77598572 C-23.75577423 61.00340233 -23.75577423 61.00340233 -25.01269531 62.25561523 C-25.73628235 62.98062729 -26.45986938 63.70563934 -27.2053833 64.45262146 C-29 66 -29 66 -31 66 C-32.2265625 64.49609375 -32.2265625 64.49609375 -33.625 62.4375 C-36.4189299 58.56581336 -39.50420931 55.58526209 -43.16796875 52.54296875 C-44.85890943 51.11882895 -46.43675745 49.56324255 -48 48 C-32.16 32.16 -16.32 16.32 0 0 Z " fill="#C84040" transform="translate(409,63)"/>
<path d="M0 0 C4.64080887 2.09691569 7.73327953 5.32828506 11.3125 8.875 C11.97056641 9.50019531 12.62863281 10.12539063 13.30664062 10.76953125 C13.92345703 11.37925781 14.54027344 11.98898437 15.17578125 12.6171875 C15.74208252 13.17003418 16.30838379 13.72288086 16.8918457 14.29248047 C18 16 18 16 17.840271 17.81442261 C16.69154945 20.80229183 14.93509665 22.42404583 12.66381836 24.67675781 C11.7429393 25.59741028 10.82206024 26.51806274 9.87327576 27.46661377 C8.86229096 28.46227919 7.8511431 29.45777907 6.83984375 30.453125 C5.80928859 31.47808326 4.77939506 32.50370714 3.75013733 33.52996826 C1.04249408 36.22617017 -1.67403772 38.91324072 -4.39251709 41.59851074 C-7.16618973 44.34146729 -9.93136429 47.09296124 -12.69726562 49.84375 C-18.12322744 55.2375602 -23.55860743 60.62175234 -29 66 C-32.41984554 64.86005149 -32.71888739 64.26203606 -34.625 61.375 C-38.03648794 56.60236283 -42.25139076 53.37678879 -47 50 C-45.49622732 46.47552204 -43.46154914 44.22424627 -40.74975586 41.53857422 C-39.87222153 40.66441864 -38.99468719 39.79026306 -38.09056091 38.88961792 C-37.13201992 37.94460927 -36.17344676 36.99963324 -35.21484375 36.0546875 C-34.23309878 35.07921603 -33.25186924 34.10322556 -32.27113342 33.1267395 C-29.69305471 30.56194141 -27.1094626 28.00277627 -24.52423096 25.44519043 C-20.38159008 21.3457336 -16.24570853 17.23948429 -12.1130085 13.1300087 C-10.66786343 11.69509728 -9.21936031 10.2636402 -7.77049255 8.83248901 C-6.89611038 7.96463776 -6.02172821 7.0967865 -5.12084961 6.20263672 C-4.34744736 5.43748749 -3.5740451 4.67233826 -2.77720642 3.88400269 C-0.93731726 2.11499476 -0.93731726 2.11499476 0 0 Z " fill="#CA4141" transform="translate(409,324)"/>
<path d="M0 0 C0.84125931 -0.00540298 1.68251862 -0.01080597 2.54927063 -0.01637268 C5.32292136 -0.02885358 8.09553278 -0.01237343 10.86914062 0.00561523 C12.80057835 0.00546023 14.73201639 0.00397104 16.66345215 0.00120544 C20.70855483 -0.00017826 24.75330282 0.01237486 28.79833984 0.03515625 C33.98028188 0.0635407 39.16163466 0.06080313 44.3436203 0.04806614 C48.33108543 0.04110717 52.31841465 0.04890076 56.30586243 0.06132317 C58.2164101 0.06583553 60.12697238 0.06617634 62.03752136 0.06225777 C64.70891161 0.05934342 67.37949325 0.07586307 70.05078125 0.09765625 C71.23230522 0.09090378 71.23230522 0.09090378 72.43769836 0.08401489 C76.96324892 0.14527662 79.93498823 0.67623176 83.52539062 3.50170898 C84.96969917 6.39032608 84.90227568 8.298186 84.52539062 11.50170898 C82.55708479 14.14402924 80.96090164 16.14848719 77.65521049 16.96188545 C75.37346192 17.14593245 73.14033173 17.16593761 70.85131836 17.1328125 C69.55775925 17.14354546 69.55775925 17.14354546 68.23806763 17.15449524 C65.39449703 17.17137056 62.55250544 17.15198849 59.70898438 17.13061523 C57.73030975 17.13144397 55.75163519 17.1339035 53.77296448 17.13792419 C49.62943764 17.1407813 45.48645163 17.12608805 41.34301758 17.09863281 C36.03081612 17.06452803 30.71958029 17.07057654 25.40733242 17.08929539 C21.32294153 17.0998607 17.23877557 17.09093217 13.15440559 17.07591057 C11.19558441 17.07072636 9.23673977 17.07121344 7.27792168 17.07745552 C4.54145605 17.08290293 1.8063761 17.06254911 -0.92993164 17.03515625 C-1.73991104 17.04168213 -2.54989044 17.04820801 -3.38441467 17.05493164 C-6.9989402 16.99337245 -9.05821095 16.81973373 -11.97325134 14.59336853 C-13.59030037 12.34053079 -14.04247009 11.24639674 -14.03710938 8.50170898 C-14.05902344 7.84170898 -14.0809375 7.18170898 -14.10351562 6.50170898 C-12.06786104 0.02807454 -5.76154753 -0.07071688 0 0 Z " fill="#030303" transform="translate(286.474609375,434.498291015625)"/>
<path d="M0 0 C0.86062042 -0.00861557 1.72124084 -0.01723114 2.60794067 -0.02610779 C5.45190536 -0.04880443 8.29488756 -0.04202192 11.13891602 -0.03295898 C13.11662591 -0.03819318 15.0943333 -0.04446891 17.07203674 -0.05174255 C21.21725204 -0.06215378 25.36212422 -0.05757525 29.50732422 -0.04296875 C34.81842948 -0.02578564 40.12845245 -0.04926669 45.43943691 -0.08445835 C49.52386133 -0.10642418 53.6080265 -0.10499274 57.69249153 -0.09669304 C59.65050506 -0.09587296 61.60853751 -0.10274712 63.5664959 -0.11746407 C66.30542272 -0.13489363 69.0424014 -0.1203811 71.78125 -0.09765625 C72.58920517 -0.10934845 73.39716034 -0.12104065 74.229599 -0.13308716 C78.44826612 -0.06190551 80.01981688 0.19381791 83.46620178 2.88148499 C85.45532227 5.53344727 85.45532227 5.53344727 85.95532227 8.59594727 C85.40787419 11.81220474 84.74775316 13.24101637 82.45532227 15.53344727 C78.68255684 16.79103574 75.13970884 16.70524596 71.20776367 16.72631836 C70.36679642 16.73449585 69.52582916 16.74267334 68.65937805 16.75109863 C65.87522085 16.77592052 63.09111444 16.79245855 60.30688477 16.80688477 C59.35604382 16.81220844 58.40520287 16.81753212 57.42554855 16.82301712 C52.39479122 16.84973206 47.36405859 16.8691141 42.33325195 16.88354492 C37.1354498 16.90020813 31.93827978 16.94500458 26.74071693 16.99591637 C22.74471295 17.02955099 18.74885993 17.04111804 14.75272751 17.046772 C12.83654308 17.05349265 10.92036887 17.06873579 9.00432205 17.09266281 C6.32291094 17.12424275 3.64321777 17.12436248 0.96166992 17.11694336 C0.17084518 17.13334869 -0.61997955 17.14975403 -1.43476868 17.16665649 C-5.44558135 17.12123685 -7.32951447 16.69959076 -10.54116821 14.21963501 C-12.54467773 11.53344727 -12.54467773 11.53344727 -13.10717773 7.97094727 C-11.84601287 0.26382866 -6.87839331 -0.05541815 0 0 Z " fill="#020202" transform="translate(285.544677734375,173.466552734375)"/>
<path d="M0 0 C0.69134033 -0.00145523 1.38268066 -0.00291046 2.0949707 -0.00440979 C3.55066154 -0.00275634 5.00637087 0.00874293 6.46191406 0.02954102 C8.68109933 0.0585102 10.8978941 0.05013801 13.1171875 0.03710938 C25.19975421 0.09021525 25.19975421 0.09021525 29.6875 3.49609375 C31.13180855 6.38471084 31.06438506 8.29257076 30.6875 11.49609375 C27.98132552 15.03004688 26.49704188 16.35516401 22.06225586 17.12719727 C20.67586272 17.15323169 19.28873642 17.15105938 17.90234375 17.125 C17.16423965 17.12741196 16.42613556 17.12982391 15.66566467 17.13230896 C14.11160893 17.13133301 12.55751735 17.11799917 11.00366211 17.09301758 C8.62819256 17.05863995 6.25643278 17.07238338 3.88085938 17.09179688 C2.36717171 17.0848995 0.85349361 17.07522809 -0.66015625 17.0625 C-1.36753433 17.06745987 -2.07491241 17.07241974 -2.8037262 17.07752991 C-6.23192086 16.99580042 -8.02042358 16.7245065 -10.75537109 14.58569336 C-12.43603247 12.33031852 -12.88042951 11.27600039 -12.875 8.49609375 C-12.89691406 7.83609375 -12.91882813 7.17609375 -12.94140625 6.49609375 C-11.04859622 0.47672271 -5.48108688 -0.00791866 0 0 Z " fill="#030303" transform="translate(285.3125,139.50390625)"/>
<path d="M0 0 C0.68896866 -0.00478363 1.37793732 -0.00956726 2.08778381 -0.01449585 C3.53925877 -0.01788525 4.99081106 -0.0087496 6.44213867 0.01220703 C8.65132875 0.03895562 10.85542152 0.01245874 13.06445312 -0.01953125 C14.48047986 -0.01622617 15.89650344 -0.00981788 17.3125 0 C18.58988037 0.00563965 19.86726074 0.0112793 21.18334961 0.01708984 C25.82806739 0.86612772 27.45276199 2.30522315 30.72265625 5.6640625 C31.50554131 9.4219108 31.10486486 11.00890814 29.17773438 14.31225586 C25.88949634 17.46217601 23.1424033 17.37128093 18.81640625 17.29296875 C18.05469116 17.29538071 17.29297607 17.29779266 16.50817871 17.30027771 C14.90106998 17.29930017 13.29392719 17.28592844 11.68701172 17.26098633 C9.23027917 17.22666898 6.7771437 17.24032945 4.3203125 17.25976562 C2.75649514 17.2528669 1.19268705 17.24319427 -0.37109375 17.23046875 C-1.10348267 17.23542862 -1.83587158 17.24038849 -2.5904541 17.24549866 C-6.01207405 17.16668432 -7.95433919 16.90320517 -10.73632812 14.84350586 C-13.02605501 11.60516747 -12.88817373 9.53265234 -12.27734375 5.6640625 C-8.54353888 0.85187554 -6.00154424 0.0265203 0 0 Z " fill="#050606" transform="translate(285.27734375,400.3359375)"/>
<path d="M0 0 C2.01169666 0.013857 4.01872624 -0.02019614 6.0300293 -0.05834961 C7.94138672 -0.05544922 7.94138672 -0.05544922 9.89135742 -0.05249023 C11.05465576 -0.05321533 12.2179541 -0.05394043 13.41650391 -0.0546875 C17.52495466 0.7642149 19.03815477 2.30876834 21.58276367 5.57641602 C21.70776367 9.13891602 21.70776367 9.13891602 20.58276367 12.57641602 C15.88541094 17.26903775 12.14643853 17.1200155 5.78979492 17.17211914 C3.95481445 17.15568359 3.95481445 17.15568359 2.08276367 17.13891602 C0.85944336 17.16276367 -0.36387695 17.18661133 -1.62426758 17.21118164 C-11.59777517 17.19483163 -11.59777517 17.19483163 -14.72583008 14.26391602 C-16.95290235 10.72528848 -17.08928658 8.68338977 -16.41723633 4.57641602 C-12.15155868 -1.143834 -6.58358475 -0.06345043 0 0 Z " fill="#060607" transform="translate(289.417236328125,367.423583984375)"/>
<path d="M0 0 C1.22332031 -0.01095703 2.44664062 -0.02191406 3.70703125 -0.03320312 C13.98398585 0.05103421 13.98398585 0.05103421 18.5 4.5625 C19.625 8 19.625 8 19.5 11.5625 C16.95539109 14.83014768 15.44219098 16.37470112 11.33374023 17.19360352 C10.17044189 17.19287842 9.00714355 17.19215332 7.80859375 17.19140625 C5.89723633 17.19430664 5.89723633 17.19430664 3.94726562 17.19726562 C3.28895752 17.18477783 2.63064941 17.17229004 1.95239258 17.15942383 C-0.06114993 17.12502307 -2.07031857 17.13879607 -4.08398438 17.15820312 C-13.81940582 17.08426322 -13.81940582 17.08426322 -16.87475586 14.74194336 C-18.5 12.5625 -18.5 12.5625 -19.0625 9.125 C-18.51870053 5.68093672 -17.98068061 3.97321847 -15.43725586 1.59008789 C-10.81857996 -0.85981845 -5.08335428 -0.09909595 0 0 Z " fill="#060607" transform="translate(291.5,105.4375)"/>
<path d="M0 0 C4.64080887 2.09691569 7.73327953 5.32828506 11.3125 8.875 C11.97056641 9.50019531 12.62863281 10.12539063 13.30664062 10.76953125 C13.92345703 11.37925781 14.54027344 11.98898438 15.17578125 12.6171875 C15.74208252 13.17003418 16.30838379 13.72288086 16.8918457 14.29248047 C18 16 18 16 17.77392578 18.09130859 C16.78492589 20.53042567 15.44423352 21.91912414 13.5625 23.75 C12.94503906 24.36359375 12.32757813 24.9771875 11.69140625 25.609375 C10 27 10 27 8 27 C6.51953125 25.49609375 6.51953125 25.49609375 4.8125 23.4375 C-0.85095856 16.3421461 -0.85095856 16.3421461 -8 11 C-7.43040847 7.37386801 -6.07625466 5.74482259 -3.4375 3.25 C-2.79683594 2.63640625 -2.15617187 2.0228125 -1.49609375 1.390625 C-1.00238281 0.93171875 -0.50867188 0.4728125 0 0 Z " fill="#C43F3F" transform="translate(430,42)"/>
<path d="M0 0 C3.04332765 1.3584202 5.12309151 2.88463024 7.453125 5.2578125 C8.071875 5.88300781 8.690625 6.50820313 9.328125 7.15234375 C9.96234375 7.80332031 10.5965625 8.45429688 11.25 9.125 C11.8996875 9.78371094 12.549375 10.44242187 13.21875 11.12109375 C14.81711727 12.74296643 16.41061897 14.3693281 18 16 C15.95933017 20.26615504 13.41446998 22.73398524 10 26 C6.95667235 24.6415798 4.87690849 23.11536976 2.546875 20.7421875 C1.928125 20.11699219 1.309375 19.49179687 0.671875 18.84765625 C0.03765625 18.19667969 -0.5965625 17.54570312 -1.25 16.875 C-1.8996875 16.21628906 -2.549375 15.55757813 -3.21875 14.87890625 C-4.81711727 13.25703357 -6.41061897 11.6306719 -8 10 C-5.95933017 5.73384496 -3.41446998 3.26601476 0 0 Z " fill="#C84040" transform="translate(430,304)"/>
<path d="M0 0 C5.4495668 2.7247834 9.68949958 5.7735323 13 11 C13 11.99 13 12.98 13 14 C7.06 15.65 1.12 17.3 -5 19 C-3.79850665 12.43799785 -2.27223215 6.27136074 0 0 Z " fill="#C1C1C1" transform="translate(352,125)"/>
<path d="M0 0 C5.169545 1.40987591 8.75341352 4.86322045 12 9 C12.36965294 10.32372414 12.70834682 11.65693362 13 13 C10.37605694 13.83679277 7.75095616 14.66956942 5.125 15.5 C4.37863281 15.73847656 3.63226563 15.97695313 2.86328125 16.22265625 C-2.7734375 18 -2.7734375 18 -5 18 C-3.9007105 11.68878497 -2.41862058 5.93661416 0 0 Z " fill="#C4C4C4" transform="translate(352,387)"/>
</svg>
