<?xml version="1.0" encoding="UTF-8"?>
<svg version="1.1" xmlns="http://www.w3.org/2000/svg" width="512" height="512">
<path d="M0 0 C0.79519959 -0.00205263 1.59039917 -0.00410527 2.40969571 -0.0062201 C5.0967653 -0.01191243 7.78378399 -0.01043011 10.47085857 -0.00901413 C12.40782836 -0.01159648 14.34479761 -0.01460928 16.28176612 -0.01801753 C21.62214674 -0.02610597 26.96251393 -0.02787812 32.30289996 -0.028615 C38.05557564 -0.03046234 43.80824431 -0.03800802 49.56091595 -0.04475021 C62.14751567 -0.05834684 74.73411221 -0.06436024 87.32071805 -0.06876087 C95.17514473 -0.07152088 103.02957017 -0.07575777 110.88399601 -0.08026505 C132.61737821 -0.09245913 154.35075909 -0.10279377 176.08414459 -0.10614014 C177.48986434 -0.10636177 178.89558409 -0.10658355 180.30130384 -0.10680549 C181.71044374 -0.10702613 183.11958364 -0.10724661 184.52872354 -0.10746694 C187.35576395 -0.10790949 190.18280437 -0.10835661 193.00984478 -0.10880661 C193.71078763 -0.108916 194.41173049 -0.10902539 195.13391403 -0.1091381 C217.86779133 -0.11276964 240.60163676 -0.12869321 263.33550186 -0.15199697 C287.36348433 -0.17658232 311.3914478 -0.19030563 335.41944331 -0.19150805 C348.52054124 -0.192426 361.62159744 -0.19820824 374.72268391 -0.21632767 C385.87673309 -0.23169956 397.03072765 -0.23686634 408.1847854 -0.22858956 C413.87861493 -0.22467281 419.57233437 -0.22566255 425.26615047 -0.23964691 C430.47534988 -0.25232436 435.68435575 -0.25124273 440.89355465 -0.2390562 C442.78117884 -0.23708849 444.66881645 -0.2402268 446.55642173 -0.24890056 C449.11697849 -0.25992456 451.67684398 -0.2525538 454.23738098 -0.24050903 C454.97480371 -0.24810423 455.71222645 -0.25569942 456.47199532 -0.26352477 C461.99883649 -0.20717829 466.08020537 1.07694432 470.17073345 4.85017776 C470.64897564 5.43799026 471.12721783 6.02580276 471.6199522 6.63142776 C472.11108501 7.21924026 472.60221783 7.80705276 473.10823345 8.41267776 C475.80388491 12.27615217 475.44958253 16.32122801 475.43887997 20.82397556 C475.4409326 21.61917515 475.44298523 22.41437473 475.44510007 23.23367128 C475.45079239 25.92074086 475.44931008 28.60775955 475.4478941 31.29483414 C475.45047645 33.23180392 475.45348924 35.16877317 475.4568975 37.10574168 C475.46498593 42.4461223 475.46675809 47.7864895 475.46749496 53.12687552 C475.46934231 58.8795512 475.47688799 64.63221987 475.48363018 70.38489151 C475.49722681 82.97149123 475.50324021 95.55808777 475.50764084 108.14469361 C475.51040085 115.99912029 475.51463774 123.85354573 475.51914501 131.70797157 C475.5313391 153.44135378 475.54167374 175.17473465 475.5450201 196.90812016 C475.54524174 198.31383991 475.54546352 199.71955966 475.54568546 201.12527941 C475.5459061 202.53441931 475.54612658 203.9435592 475.5463469 205.3526991 C475.54678946 208.17973952 475.54723657 211.00677993 475.54768658 213.83382034 C475.54785066 214.88523462 475.54785066 214.88523462 475.54801806 215.95788959 C475.55164961 238.69176689 475.56757318 261.42561233 475.59087694 284.15947742 C475.61546229 308.1874599 475.6291856 332.21542336 475.63038802 356.24341887 C475.63130596 369.3445168 475.6370882 382.44557301 475.65520763 395.54665947 C475.67057953 406.70070865 475.67574631 417.85470321 475.66746953 429.00876097 C475.66355278 434.7025905 475.66454252 440.39630993 475.67852688 446.09012604 C475.69120433 451.29932544 475.6901227 456.50833132 475.67793617 461.71753021 C475.67596845 463.6051544 475.67910677 465.49279201 475.68778053 467.3803973 C475.69880453 469.94095406 475.69143376 472.50081954 475.679389 475.06135654 C475.68698419 475.79877928 475.69457939 476.53620201 475.70240474 477.29597089 C475.64605826 482.82281205 474.36193565 486.90418094 470.5887022 490.99470901 C470.0008897 491.4729512 469.4130772 491.95119339 468.8074522 492.44392776 C468.2196397 492.93506058 467.6318272 493.42619339 467.0262022 493.93220901 C463.1627278 496.62786047 459.11765195 496.27355809 454.6149044 496.26285553 C453.81970482 496.26490816 453.02450523 496.2669608 452.20520869 496.26907563 C449.5181391 496.27476796 446.83112041 496.27328564 444.14404583 496.27186966 C442.20707605 496.27445201 440.27010679 496.27746481 438.33313829 496.28087306 C432.99275767 496.2889615 427.65239047 496.29073365 422.31200445 496.29147053 C416.55932876 496.29331787 410.8066601 496.30086355 405.05398846 496.30760574 C392.46738874 496.32120237 379.8807922 496.32721577 367.29418635 496.3316164 C359.43975968 496.33437641 351.58533424 496.3386133 343.73090839 496.34312057 C321.99752619 496.35531466 300.26414532 496.3656493 278.53075981 496.36899567 C277.12504006 496.3692173 275.71932031 496.36943908 274.31360056 496.36966102 C272.90446066 496.36988166 271.49532076 496.37010214 270.08618087 496.37032247 C267.25914045 496.37076502 264.43210004 496.37121214 261.60505962 496.37166214 C260.90411677 496.37177153 260.20317392 496.37188092 259.48099037 496.37199363 C236.74711307 496.37562517 214.01326764 496.39154874 191.27940255 496.4148525 C167.25142007 496.43943785 143.2234566 496.45316116 119.19546109 496.45436358 C106.09436316 496.45528153 92.99330696 496.46106377 79.8922205 496.4791832 C68.73817132 496.49455509 57.58417676 496.49972187 46.430119 496.49144509 C40.73628947 496.48752834 35.04257004 496.48851808 29.34875393 496.50250244 C24.13955453 496.51517989 18.93054865 496.51409826 13.72134975 496.50191173 C11.83372557 496.49994402 9.94608795 496.50308233 8.05848267 496.51175609 C5.49792591 496.52278009 2.93806043 496.51540933 0.37752342 496.50336456 C-0.35989931 496.51095976 -1.09732204 496.51855495 -1.85709092 496.5263803 C-7.38393208 496.47003382 -11.46530097 495.18591121 -15.55582905 491.41267776 C-16.03407124 490.82486526 -16.51231342 490.23705276 -17.0050478 489.63142776 C-17.49618061 489.04361526 -17.98731342 488.45580276 -18.49332905 487.85017776 C-21.18898051 483.98670336 -20.83467813 479.94162752 -20.82397556 475.43887997 C-20.8260282 474.64368038 -20.82808083 473.8484808 -20.83019567 473.02918425 C-20.83588799 470.34211467 -20.83440567 467.65509598 -20.83298969 464.96802139 C-20.83557205 463.03105161 -20.83858484 461.09408236 -20.84199309 459.15711385 C-20.85008153 453.81673323 -20.85185369 448.47636603 -20.85259056 443.13598001 C-20.8544379 437.38330433 -20.86198359 431.63063566 -20.86872578 425.87796402 C-20.88232241 413.2913643 -20.8883358 400.70476776 -20.89273643 388.11816192 C-20.89549644 380.26373524 -20.89973333 372.4093098 -20.90424061 364.55488396 C-20.91643469 342.82150175 -20.92676934 321.08812088 -20.9301157 299.35473537 C-20.93033733 297.94901562 -20.93055912 296.54329587 -20.93078105 295.13757612 C-20.93100169 293.72843622 -20.93122218 292.31929633 -20.9314425 290.91015643 C-20.93188506 288.08311601 -20.93233217 285.2560756 -20.93278217 282.42903519 C-20.93289156 281.72809233 -20.93300095 281.02714948 -20.93311366 280.30496594 C-20.93674521 257.57108863 -20.95266878 234.8372432 -20.97597254 212.10337811 C-21.00055789 188.07539563 -21.01428119 164.04743217 -21.01548362 140.01943666 C-21.01640156 126.91833873 -21.0221838 113.81728252 -21.04030323 100.71619606 C-21.05567513 89.56214688 -21.0608419 78.40815232 -21.05256513 67.25409456 C-21.04864837 61.56026503 -21.04963812 55.8665456 -21.06362247 50.17272949 C-21.07629992 44.96353009 -21.0752183 39.75452421 -21.06303176 34.54532532 C-21.06106405 32.65770113 -21.06420237 30.77006352 -21.07287613 28.88245823 C-21.08390012 26.32190147 -21.07652936 23.76203599 -21.0644846 21.20149899 C-21.07207979 20.46407625 -21.07967498 19.72665352 -21.08750033 18.96688464 C-21.03115386 13.44004348 -19.74703125 9.35867459 -15.9737978 5.26814651 C-15.3859853 4.78990433 -14.7981728 4.31166214 -14.1925478 3.81892776 C-13.6047353 3.32779495 -13.0169228 2.83666214 -12.4112978 2.33064651 C-8.54782339 -0.36500494 -4.50274755 -0.01070256 0 0 Z " fill="#D5DAE2" transform="translate(28.69254779815674,7.868572235107422)"/>
<path d="M0 0 C0.79519959 -0.00205263 1.59039917 -0.00410527 2.40969571 -0.0062201 C5.0967653 -0.01191243 7.78378399 -0.01043011 10.47085857 -0.00901413 C12.40782836 -0.01159648 14.34479761 -0.01460928 16.28176612 -0.01801753 C21.62214674 -0.02610597 26.96251393 -0.02787812 32.30289996 -0.028615 C38.05557564 -0.03046234 43.80824431 -0.03800802 49.56091595 -0.04475021 C62.14751567 -0.05834684 74.73411221 -0.06436024 87.32071805 -0.06876087 C95.17514473 -0.07152088 103.02957017 -0.07575777 110.88399601 -0.08026505 C132.61737821 -0.09245913 154.35075909 -0.10279377 176.08414459 -0.10614014 C177.48986434 -0.10636177 178.89558409 -0.10658355 180.30130384 -0.10680549 C181.71044374 -0.10702613 183.11958364 -0.10724661 184.52872354 -0.10746694 C187.35576395 -0.10790949 190.18280437 -0.10835661 193.00984478 -0.10880661 C193.71078763 -0.108916 194.41173049 -0.10902539 195.13391403 -0.1091381 C217.86779133 -0.11276964 240.60163676 -0.12869321 263.33550186 -0.15199697 C287.36348433 -0.17658232 311.3914478 -0.19030563 335.41944331 -0.19150805 C348.52054124 -0.192426 361.62159744 -0.19820824 374.72268391 -0.21632767 C385.87673309 -0.23169956 397.03072765 -0.23686634 408.1847854 -0.22858956 C413.87861493 -0.22467281 419.57233437 -0.22566255 425.26615047 -0.23964691 C430.47534988 -0.25232436 435.68435575 -0.25124273 440.89355465 -0.2390562 C442.78117884 -0.23708849 444.66881645 -0.2402268 446.55642173 -0.24890056 C449.11697849 -0.25992456 451.67684398 -0.2525538 454.23738098 -0.24050903 C454.97480371 -0.24810423 455.71222645 -0.25569942 456.47199532 -0.26352477 C461.99883649 -0.20717829 466.08020537 1.07694432 470.17073345 4.85017776 C470.64897564 5.43799026 471.12721783 6.02580276 471.6199522 6.63142776 C472.11108501 7.21924026 472.60221783 7.80705276 473.10823345 8.41267776 C484.69713472 25.02217796 475.3074522 48.87857292 475.3074522 69.13142776 C311.6274522 69.13142776 147.9474522 69.13142776 -20.6925478 69.13142776 C-20.6925478 10.38370049 -20.6925478 10.38370049 -15.9737978 5.26814651 C-15.3859853 4.78990433 -14.7981728 4.31166214 -14.1925478 3.81892776 C-13.6047353 3.32779495 -13.0169228 2.83666214 -12.4112978 2.33064651 C-8.54782339 -0.36500494 -4.50274755 -0.01070256 0 0 Z " fill="#295474" transform="translate(28.69254779815674,7.868572235107422)"/>
<path d="M0 0 C0.79295345 -0.00779995 1.58590691 -0.01559991 2.40288925 -0.02363622 C5.05715288 -0.04356334 7.70998383 -0.02778961 10.36425781 -0.01205444 C12.26819699 -0.01883027 14.17212961 -0.0277332 16.0760498 -0.03860474 C21.24550936 -0.06140879 26.41447027 -0.05255707 31.5839386 -0.03670931 C36.99217072 -0.02405612 42.40035996 -0.03578881 47.80859375 -0.04364014 C56.89102855 -0.05273837 65.97326011 -0.04074414 75.05566406 -0.01693726 C85.55827497 0.01027426 96.06040058 0.00146023 106.56299973 -0.02606928 C115.57800833 -0.04875431 124.59287079 -0.05196337 133.60789871 -0.03887594 C138.99319667 -0.03107813 144.37826648 -0.03004901 149.7635498 -0.04655838 C154.82640821 -0.06099497 159.88864055 -0.05099604 164.95143127 -0.0220871 C166.81021586 -0.01547197 168.66905308 -0.01738123 170.52781677 -0.02840042 C173.06417918 -0.04205105 175.59853158 -0.02494788 178.13476562 0 C178.87163479 -0.01115361 179.60850395 -0.02230722 180.36770248 -0.03379881 C184.29997813 0.0413083 185.92213694 0.51535185 189.00067139 3.0496006 C192.09591415 6.92154205 192.18799893 8.82306982 192.16503906 13.73648071 C192.16181641 14.94819946 192.15859375 16.15991821 192.15527344 17.40835571 C192.14689453 18.67937134 192.13851562 19.95038696 192.12988281 21.25991821 C192.12311523 23.17804321 192.12311523 23.17804321 192.11621094 25.13491821 C192.10439484 28.30163114 192.08792096 31.46825177 192.06738281 34.63491821 C193.57502701 34.61826363 193.57502701 34.61826363 195.11312866 34.60127258 C204.6165417 34.49961627 214.11984345 34.4248189 223.62367821 34.37585735 C228.50895341 34.34983873 233.39378731 34.31458309 238.27880859 34.25772095 C242.9991447 34.20312385 247.71905816 34.17343959 252.43968582 34.160532 C254.23453035 34.15134158 256.02935352 34.13339524 257.82401657 34.10626793 C277.85895369 33.81565915 277.85895369 33.81565915 286.19076538 41.62519836 C293.26786543 48.97772731 294.51513663 55.78381508 294.47143555 65.65982056 C294.48173042 67.29289909 294.48173042 67.29289909 294.49223328 68.95896912 C294.51048614 72.54639854 294.50666545 76.13338996 294.50097656 79.72085571 C294.50553933 82.22277976 294.51084519 84.72470256 294.51686096 87.22662354 C294.52578931 92.46692874 294.52360725 97.70712097 294.51342773 102.94741821 C294.50322317 108.31897202 294.51025122 113.69016533 294.53393555 119.06167603 C294.56224312 125.56020405 294.57088196 132.05844176 294.56370735 138.55702591 C294.56355431 141.02807987 294.56958459 143.49914247 294.58199883 145.97016525 C294.59693493 149.43085187 294.58621089 152.89056976 294.5690918 156.35122681 C294.57875977 157.36450546 294.58842773 158.37778412 294.59838867 159.42176819 C294.50939826 168.04609212 292.02192188 175.71308456 285.96582031 182.06460571 C275.30907708 190.87944271 261.13293093 189.55409059 248.06738281 189.63491821 C248.55867676 190.25294312 249.0499707 190.87096802 249.55615234 191.50772095 C251.29692899 193.95802578 251.37940353 194.7895496 250.94238281 197.69741821 C250.85730469 198.36901978 250.77222656 199.04062134 250.68457031 199.73257446 C249.91449481 202.10616161 248.9773434 203.04092574 247.06738281 204.63491821 C243.90084304 205.68389579 241.26947918 205.50510623 238.06738281 204.63491821 C234.08001403 201.92855931 230.88150656 198.61523696 227.56738281 195.13491821 C226.66246094 194.24804321 225.75753906 193.36116821 224.82519531 192.44741821 C217.62575274 185.096636 217.62575274 185.096636 216.80957031 180.20913696 C217.07132478 176.58026822 217.15877228 175.4269944 219.69238281 172.94741821 C220.32789063 172.30288696 220.96339844 171.65835571 221.61816406 170.99429321 C222.42640625 170.21569946 223.23464844 169.43710571 224.06738281 168.63491821 C225.1677968 167.51783644 226.26523135 166.39781517 227.36035156 165.27554321 C237.64680174 154.79573871 237.64680174 154.79573871 242.37988281 154.25991821 C246.06738281 154.63491821 246.06738281 154.63491821 249.00488281 156.75991821 C251.06738281 159.63491821 251.06738281 159.63491821 251.62988281 162.63491821 C250.95108292 166.25518432 249.42018509 167.86581493 247.06738281 170.63491821 C250.8173176 170.69303594 254.56713633 170.72855414 258.31738281 170.75991821 C259.91259766 170.78505493 259.91259766 170.78505493 261.54003906 170.81069946 C262.56484375 170.81714478 263.58964844 170.82359009 264.64550781 170.83023071 C266.05944824 170.84594116 266.05944824 170.84594116 267.50195312 170.86196899 C270.25838374 170.61801387 271.7973896 170.20802723 274.06738281 168.63491821 C275.84544673 165.71801588 276.32128063 163.51805782 276.34153748 160.12541199 C276.35650017 158.77753098 276.35650017 158.77753098 276.37176514 157.40242004 C276.37242981 156.42412735 276.37309448 155.44583466 276.3737793 154.43789673 C276.38210281 153.40171204 276.39042633 152.36552734 276.39900208 151.29794312 C276.42311413 147.86986545 276.43187506 144.44197795 276.43847656 141.01382446 C276.44744081 138.63255251 276.45656261 136.25128115 276.46583557 133.87001038 C276.4823306 128.87748851 276.49002684 123.88503375 276.49291992 118.89248657 C276.49830916 112.49189833 276.53601024 106.09193956 276.58166409 99.69152927 C276.61138705 94.77333768 276.61864243 89.85529868 276.61964607 84.93702507 C276.62385655 82.57707773 276.63632376 80.21713027 276.65716362 77.85727119 C276.68398255 74.55815229 276.67928032 71.26050603 276.66674805 67.96133423 C276.68158234 66.98506577 276.69641663 66.0087973 276.71170044 65.00294495 C276.66400881 60.59991835 276.48960264 58.27645016 274.02438354 54.5307312 C270.34399452 52.17113445 267.39759442 51.92538168 263.15600586 51.97549438 C261.98448219 51.95976883 261.98448219 51.95976883 260.78929138 51.94372559 C258.21882161 51.9150228 255.64970257 51.92126109 253.07910156 51.92788696 C251.29261084 51.91476896 249.50613494 51.89946442 247.71968079 51.88206482 C243.02607398 51.84221365 238.33285515 51.83202431 233.63909912 51.82803345 C228.84619374 51.81870222 224.05351635 51.78128874 219.26074219 51.74624634 C209.86296638 51.68166934 200.46536108 51.64843018 191.06738281 51.63491821 C191.09356689 52.48723022 191.11975098 53.33954224 191.14672852 54.21768188 C191.23219774 57.39518948 191.2947507 60.57210932 191.34204102 63.75039673 C191.36710898 65.12298923 191.40117363 66.49544923 191.44458008 67.86758423 C191.50555813 69.84542518 191.5309929 71.82426005 191.55566406 73.80288696 C191.58184814 74.99164429 191.60803223 76.18040161 191.63500977 77.40518188 C190.87922672 81.70550617 189.47385609 82.94728683 186.06738281 85.63491821 C183.20771001 86.12795713 180.94388947 86.31276675 178.09007263 86.26983643 C177.29233006 86.27763638 176.49458749 86.28543633 175.6726709 86.29347265 C173.00225668 86.3134006 170.33326633 86.29762572 167.6628418 86.28189087 C165.74742806 86.2886666 163.83202084 86.29756948 161.91662598 86.30844116 C156.71624379 86.33124477 151.51635728 86.32239408 146.31596637 86.30654573 C140.8765699 86.29389415 135.43721611 86.30562462 129.99781799 86.31347656 C120.86410901 86.32257449 111.73060214 86.31058056 102.59692383 86.28677368 C92.03180996 86.25955409 81.46717839 86.26838219 70.90207618 86.29590571 C61.8352792 86.3185819 52.76862755 86.32180438 43.70181137 86.30871236 C38.28468769 86.30091073 32.86779086 86.29989607 27.45068169 86.31639481 C22.35910031 86.33081885 17.26814204 86.32085554 12.17662811 86.29192352 C10.30613554 86.28530202 8.43559069 86.2872285 6.56511879 86.29823685 C4.01527013 86.31186213 1.46742934 86.29481524 -1.08229065 86.26983643 C-1.8259636 86.28099003 -2.56963656 86.29214364 -3.33584505 86.30363524 C-7.07453156 86.23238148 -8.63395269 85.91751909 -11.39109612 83.30866814 C-13.41559904 79.79719195 -13.44686765 77.30707814 -13.46606445 73.26187134 C-13.47468002 72.53765488 -13.48329559 71.81343842 -13.49217224 71.067276 C-13.51479878 68.68320558 -13.50810069 66.30031371 -13.49902344 63.91616821 C-13.50426023 62.25377046 -13.51053692 60.5913757 -13.51780701 58.9289856 C-13.5282048 55.44882196 -13.52365846 51.96906739 -13.5090332 48.48892212 C-13.49183866 44.03309439 -13.51535098 39.57855536 -13.5505228 35.1228714 C-13.57250097 31.69124843 -13.57105454 28.2599337 -13.56275749 24.82826233 C-13.56193833 23.1856393 -13.56879505 21.54299356 -13.58352852 19.9004364 C-13.60098541 17.60214377 -13.58642707 15.30616534 -13.5637207 13.00796509 C-13.56275894 11.70178223 -13.56179718 10.39559937 -13.56080627 9.04983521 C-12.15686923 1.41785215 -7.0136103 -0.1061614 0 0 Z " fill="#31B791" transform="translate(166.9326171875,110.36508178710938)"/>
<path d="M0 0 C0.78493521 -0.00779995 1.56987041 -0.01559991 2.37859154 -0.02363622 C4.99978424 -0.04352557 7.61952008 -0.02780452 10.24072266 -0.01205444 C12.12348272 -0.01883195 14.00623616 -0.02773583 15.88897705 -0.03860474 C20.99646525 -0.06138878 26.10344816 -0.05256534 31.21094513 -0.03670931 C36.55731055 -0.02404575 41.90363287 -0.0357917 47.25 -0.04364014 C56.22810632 -0.05273535 65.20600695 -0.04075207 74.18408203 -0.01693726 C84.56229575 0.01027369 94.94001833 0.00145944 105.31822014 -0.02606928 C114.23050578 -0.04876292 123.14264361 -0.05195916 132.05494881 -0.03887594 C137.37710749 -0.03108287 142.69903536 -0.03003599 148.0211792 -0.04655838 C153.02496061 -0.06100749 158.02810913 -0.05097312 163.0318222 -0.0220871 C164.86761169 -0.01547868 166.70345448 -0.0173698 168.53922272 -0.02840042 C171.0467229 -0.04207759 173.55219893 -0.02491592 176.05957031 0 C176.78506262 -0.01115361 177.51055492 -0.02230722 178.25803185 -0.03379881 C182.0543295 0.03931002 184.52956508 0.65477882 187.48114586 2.95837498 C190.66275664 6.29965549 190.87238084 8.71700043 190.77441406 13.1156311 C190.78171539 13.85120743 190.78901672 14.58678375 190.79653931 15.34465027 C190.81270063 17.76657616 190.78558617 20.18580392 190.75634766 22.60757446 C190.75530989 24.29478453 190.75634746 25.98199703 190.7593689 27.66920471 C190.75918969 31.20086895 190.73838119 34.73161779 190.70214844 38.26309204 C190.65673721 42.78843285 190.65569362 47.31243894 190.66918373 51.83794498 C190.67586796 55.32017368 190.66259553 58.80209833 190.64292526 62.28426933 C190.63523144 63.95280809 190.63292064 65.62138069 190.63609695 67.28993416 C190.63683926 69.62181123 190.61158006 71.95197973 190.57910156 74.28359985 C190.5840564 74.97201965 190.58901123 75.66043945 190.59411621 76.36972046 C190.51969388 79.71933361 190.23479586 81.37754975 188.12045288 84.03187561 C184.29117938 86.96801342 181.15871691 86.7856892 176.49589539 86.78881836 C175.70958876 86.79320061 174.92328213 86.79758287 174.11314803 86.80209792 C171.46385739 86.81551121 168.81460004 86.82167042 166.1652832 86.82778931 C164.27164559 86.83568822 162.3780095 86.84395703 160.484375 86.85256958 C154.25343264 86.87881185 148.02248348 86.89409838 141.79150391 86.90835571 C139.64886788 86.91371429 137.5062319 86.91909179 135.36359596 86.92448807 C126.4531891 86.9461191 117.54278408 86.9648572 108.6323576 86.97611046 C95.84978401 86.99235862 83.06751399 87.02555499 70.28505486 87.08251131 C61.30411891 87.12116872 52.3232643 87.14073811 43.34224731 87.14603102 C37.97473307 87.14968994 32.60754243 87.16176875 27.24011803 87.19413376 C22.19133362 87.22414082 17.14306987 87.23055253 12.09421539 87.21875 C10.24024073 87.21852865 8.38624243 87.22688396 6.53235054 87.24440384 C4.00247801 87.26701235 1.47450676 87.2588405 -1.05537415 87.24291992 C-2.15791101 87.26374305 -2.15791101 87.26374305 -3.28272134 87.28498685 C-7.1550696 87.22487348 -8.84304484 86.73486951 -11.92478943 84.31272316 C-14.50889988 80.92968915 -14.68422864 78.26871633 -14.63305664 74.17007446 C-14.64342453 73.43610443 -14.65379242 72.7021344 -14.66447449 71.94592285 C-14.69149308 69.52917949 -14.68189602 67.11425736 -14.66943359 64.69741821 C-14.67534424 63.01259863 -14.68259169 61.32778324 -14.69111633 59.64297485 C-14.70298758 56.11565228 -14.69630395 52.58896107 -14.67700195 49.06167603 C-14.65410876 44.54510299 -14.68090186 40.03041042 -14.72206402 35.51402283 C-14.74765875 32.03603367 -14.74505792 28.55849355 -14.73417091 25.08044434 C-14.73268567 23.41548962 -14.74035771 21.75050026 -14.75742149 20.08563232 C-14.77742573 17.7558539 -14.75898576 15.42938848 -14.73071289 13.09976196 C-14.75128754 12.07252518 -14.75128754 12.07252518 -14.77227783 11.02453613 C-14.67933549 7.18568154 -14.09445649 5.76535293 -11.42115498 2.95879555 C-7.84305256 0.16551371 -4.42558285 -0.06803824 0 0 Z " fill="#F9AA48" transform="translate(167.97021484375,246.36508178710938)"/>
<path d="M0 0 C1.18330485 -0.00958323 1.18330485 -0.00958323 2.39051485 -0.01936007 C5.03100272 -0.03460741 7.66998945 -0.01415151 10.3104248 0.00622559 C12.20450843 0.0027243 14.09858913 -0.00293436 15.99266052 -0.0105896 C21.1352932 -0.02484612 26.27739175 -0.00776742 31.41997337 0.01569557 C36.8001626 0.03579108 42.18032935 0.02992569 47.56054688 0.02758789 C56.59591489 0.02764148 65.63107389 0.04740683 74.66638184 0.07946777 C85.11436789 0.11636112 95.56208009 0.12514345 106.01012278 0.11817026 C116.05829475 0.11186631 126.10637275 0.12261758 136.15452576 0.14213562 C140.43193398 0.15031311 144.7092942 0.15301852 148.98670959 0.15144348 C154.02318166 0.15056492 159.05939323 0.16477327 164.09579659 0.19067001 C165.94490356 0.19783579 167.79403824 0.19991346 169.64315605 0.19655228 C172.16595165 0.19284107 174.68798555 0.20757219 177.21069336 0.22705078 C177.94367157 0.22172286 178.67664979 0.21639493 179.43183947 0.21090555 C183.81584051 0.26936586 186.61741524 0.92369195 190.10534668 3.62145996 C191.59612567 6.60301793 191.26563319 9.32755987 191.29821777 12.65393066 C191.31048401 13.73959824 191.31048401 13.73959824 191.32299805 14.84719849 C191.34785081 17.24720429 191.36436774 19.64715095 191.37878418 22.04724121 C191.38410786 22.86660849 191.38943153 23.68597576 191.39491653 24.53017235 C191.42164774 28.86715128 191.44102261 33.20410144 191.45544434 37.5411377 C191.47209154 42.02045324 191.51686924 46.49903293 191.56781578 50.97807026 C191.60147468 54.42248884 191.61302021 57.86673247 191.61867142 61.31130028 C191.62538781 62.96233938 191.64062014 64.61336682 191.66456223 66.26424599 C191.69618971 68.57704213 191.69625538 70.88784998 191.68884277 73.20080566 C191.69692963 74.51603714 191.70501648 75.83126862 191.71334839 77.18635559 C190.92779285 81.62460833 189.62746518 82.8559889 186.10534668 85.62145996 C183.24512755 86.11240384 180.98193553 86.29520617 178.1280365 86.24964905 C177.33029393 86.25674344 176.53255136 86.26383782 175.71063477 86.27114719 C173.04020016 86.28873551 170.37121946 86.27061901 167.70080566 86.25256348 C165.78539365 86.25770195 163.86998635 86.26498268 161.95458984 86.27424622 C156.75419222 86.29277631 151.55430662 86.27981187 146.35393023 86.26015592 C140.91454126 86.24378384 135.47518508 86.2525802 130.03578186 86.25767517 C120.90206715 86.26219735 111.76855715 86.24631756 102.6348877 86.21838379 C92.06982421 86.18632182 81.50512977 86.18635097 70.94004005 86.20359856 C60.78186434 86.21945204 50.62382414 86.21273828 40.46565437 86.19566154 C36.13994815 86.18878267 31.81435028 86.18983206 27.48864555 86.1972065 C22.39713009 86.20485732 17.30603561 86.19278249 12.21459198 86.16535759 C10.34410159 86.1584604 8.47357197 86.15839001 6.60308266 86.16557312 C4.05347352 86.17423733 1.50517272 86.15836431 -1.04432678 86.13612366 C-1.78799974 86.14436442 -2.53167269 86.15260519 -3.29788119 86.16109568 C-6.70595797 86.10606131 -8.582786 85.85282568 -11.35313225 83.79758263 C-13.52937365 80.72544283 -13.46251876 77.90093979 -13.42810059 74.2701416 C-13.44102394 73.16940559 -13.44102394 73.16940559 -13.45420837 72.0464325 C-13.47688199 69.62446663 -13.47012723 67.20365664 -13.46105957 64.78161621 C-13.46629489 63.09536902 -13.47257103 61.40912477 -13.47984314 59.72288513 C-13.4902501 56.18966894 -13.48568233 52.65685542 -13.47106934 49.12365723 C-13.45388781 44.59942621 -13.47736634 40.07646594 -13.51255894 35.55237675 C-13.53453842 32.07014069 -13.5330901 28.58820838 -13.52479362 25.10592461 C-13.52397426 23.43818201 -13.53083489 21.77041708 -13.54556465 20.10273933 C-13.56302046 17.76842722 -13.54846293 15.43639399 -13.52575684 13.10217285 C-13.53744904 12.41577728 -13.54914124 11.72938171 -13.56118774 11.02218628 C-13.49156446 7.49771902 -13.00417698 5.76479281 -10.84880733 2.94407558 C-7.18715409 0.06520976 -4.46915039 -0.07632443 0 0 Z " fill="#EC3A48" transform="translate(166.8946533203125,383.3785400390625)"/>
<path d="M0 0 C0.33 0 0.66 0 1 0 C1 14.85 1 29.7 1 45 C-4.81238281 45.06058594 -10.62476563 45.12117188 -16.61328125 45.18359375 C-20.29102321 45.22407888 -23.96875762 45.26484741 -27.64648438 45.30664062 C-33.48654648 45.37297923 -39.32660718 45.43825657 -45.16674805 45.49731445 C-49.87409417 45.54498259 -54.581367 45.5973264 -59.28862572 45.65294075 C-61.08637866 45.67335318 -62.88415169 45.6920681 -64.68194008 45.70907402 C-67.19599303 45.73314258 -69.70990748 45.76319386 -72.22387695 45.79467773 C-72.97050095 45.8004332 -73.71712494 45.80618866 -74.4863739 45.81211853 C-77.58712929 45.85638576 -80.03572006 46.01190669 -83 47 C-84.06991224 49.80869881 -84.1308086 52.52733426 -84.14717102 55.50950623 C-84.15432632 56.40809357 -84.16148163 57.30668091 -84.16885376 58.23249817 C-84.17154266 59.21079086 -84.17423157 60.18908356 -84.17700195 61.19702148 C-84.18357315 62.23320618 -84.19014435 63.26939087 -84.19691467 64.3369751 C-84.21662234 67.76501539 -84.22830244 71.19301199 -84.23828125 74.62109375 C-84.24235678 75.79166887 -84.2464323 76.962244 -84.25063133 78.16829109 C-84.27147761 84.35966948 -84.28578766 90.55102577 -84.29516602 96.74243164 C-84.30624935 103.14290686 -84.34067587 109.54303625 -84.38033772 115.94338894 C-84.4064472 120.8615637 -84.41485264 125.77965516 -84.41844749 130.69789314 C-84.42332524 133.05783496 -84.43497281 135.41777277 -84.45348549 137.77764702 C-84.47776379 141.07657459 -84.47693269 144.37459492 -84.4699707 147.67358398 C-84.48278076 148.64985245 -84.49559082 149.62612091 -84.50878906 150.63197327 C-84.47565463 154.93329855 -84.38606791 157.35563558 -82.13670349 161.10992432 C-79.39251072 163.53737016 -77.98666544 163.58475174 -74.359375 163.48828125 C-73.28945312 163.47216797 -72.21953125 163.45605469 -71.1171875 163.43945312 C-69.45042969 163.37661133 -69.45042969 163.37661133 -67.75 163.3125 C-66.62335938 163.28994141 -65.49671875 163.26738281 -64.3359375 163.24414062 C-61.55594768 163.18524254 -58.77864668 163.10304201 -56 163 C-56.72509766 161.8553125 -56.72509766 161.8553125 -57.46484375 160.6875 C-59.35262686 157.38267867 -59.70234313 155.74583004 -59 152 C-55.49410497 147.98104716 -55.49410497 147.98104716 -53 147 C-47.34845724 147.29312981 -44.71540112 148.51977267 -40.72265625 152.48046875 C-39.79775391 153.39763672 -38.87285156 154.31480469 -37.91992188 155.25976562 C-37.45126709 155.74098877 -36.9826123 156.22221191 -36.49975586 156.71801758 C-35.06236625 158.18763675 -33.59561382 159.6223668 -32.12304688 161.05664062 C-31.20716797 161.98025391 -30.29128906 162.90386719 -29.34765625 163.85546875 C-28.51242432 164.69746826 -27.67719238 165.53946777 -26.81665039 166.40698242 C-24.60339484 169.56609909 -24.51684145 171.21811285 -25 175 C-27.95865775 180.66172464 -32.60446293 184.8687878 -37.125 189.3125 C-37.85332031 190.04017578 -38.58164063 190.76785156 -39.33203125 191.51757812 C-45.72305318 197.85543998 -45.72305318 197.85543998 -50.3125 198.375 C-54 198 -54 198 -56.9375 195.9375 C-59.53327109 192.2404927 -59.71253588 190.43355658 -59 186 C-57.72094689 184.29132253 -56.39290557 182.61721045 -55 181 C-55.80630859 181.02094727 -56.61261719 181.04189453 -57.44335938 181.06347656 C-61.12877727 181.14709173 -64.81399494 181.19880549 -68.5 181.25 C-69.7684375 181.28351563 -71.036875 181.31703125 -72.34375 181.3515625 C-81.43514634 181.44626455 -87.9723172 180.49708904 -94.75 173.9375 C-101.43758766 166.5722123 -102.59781938 157.34085159 -102.54931641 147.75219727 C-102.55953827 146.68722015 -102.56976013 145.62224304 -102.58029175 144.5249939 C-102.60787146 141.03856315 -102.60618702 137.55293245 -102.6015625 134.06640625 C-102.60934731 131.62222505 -102.61801889 129.17804654 -102.62753296 126.73387146 C-102.64241113 121.62416796 -102.64190811 116.51474097 -102.63134766 111.4050293 C-102.61975595 104.88072905 -102.65364657 98.35756394 -102.700037 91.83345127 C-102.72960178 86.78970302 -102.73124311 81.74622549 -102.72501755 76.70240593 C-102.72603919 74.29801114 -102.73642427 71.89360024 -102.75664139 69.48929024 C-102.939435 44.71571723 -102.939435 44.71571723 -96 36 C-89.90601034 29.9981932 -82.50097592 26.67841975 -73.92773438 26.6267395 C-72.84878906 26.64291824 -72.84878906 26.64291824 -71.74804688 26.65942383 C-70.96659302 26.65898575 -70.18513916 26.65854767 -69.38000488 26.65809631 C-66.82598897 26.66016754 -64.27264962 26.68341853 -61.71875 26.70703125 C-59.93656777 26.71263315 -58.1543809 26.71690044 -56.37219238 26.71989441 C-51.70323722 26.73129641 -47.03456627 26.76072315 -42.36572266 26.79400635 C-37.59281254 26.82480784 -32.81985607 26.83842121 -28.046875 26.85351562 C-18.69777231 26.88559774 -9.34895436 26.93832726 0 27 C0 18.09 0 9.18 0 0 Z " fill="#8B93A1" transform="translate(153,254)"/>
<path d="M0 0 C0.33 0 0.66 0 1 0 C1 8.91 1 17.82 1 27 C3.43165527 26.97381592 5.86331055 26.94763184 8.36865234 26.9206543 C16.43108821 26.83755448 24.49354372 26.78247656 32.55629539 26.74093914 C37.4415706 26.71492051 42.3264045 26.67966487 47.21142578 26.62280273 C51.93176189 26.56820563 56.65167535 26.53852138 61.37230301 26.52561378 C63.16714754 26.51642337 64.96197071 26.49847703 66.75663376 26.47134972 C86.79157087 26.18074094 86.79157087 26.18074094 95.12338257 33.99028015 C102.20048262 41.3428091 103.44775382 48.14889687 103.40405273 58.02490234 C103.41091599 59.11362137 103.41777924 60.20234039 103.42485046 61.3240509 C103.44310333 64.91148032 103.43928264 68.49847174 103.43359375 72.0859375 C103.43815652 74.58786155 103.44346238 77.08978434 103.44947815 79.59170532 C103.4584065 84.83201053 103.45622443 90.07220276 103.44604492 95.3125 C103.43584036 100.6840538 103.44286841 106.05524711 103.46655273 111.42675781 C103.4948603 117.92528584 103.50349915 124.42352354 103.49632454 130.9221077 C103.4961715 133.39316166 103.50220177 135.86422425 103.51461601 138.33524704 C103.52955212 141.79593365 103.51882808 145.25565155 103.50170898 148.71630859 C103.51137695 149.72958725 103.52104492 150.74286591 103.53100586 151.78684998 C103.44201545 160.41117391 100.95453906 168.07816635 94.8984375 174.4296875 C84.24169427 183.2445245 70.06554812 181.91917237 57 182 C57.49129395 182.6180249 57.98258789 183.2360498 58.48876953 183.87280273 C60.22954618 186.32310757 60.31202072 187.15463139 59.875 190.0625 C59.78992188 190.73410156 59.70484375 191.40570313 59.6171875 192.09765625 C58.847112 194.4712434 57.90996059 195.40600753 56 197 C52.83346022 198.04897757 50.20209636 197.87018802 47 197 C43.01263121 194.2936411 39.81412375 190.98031874 36.5 187.5 C35.14261719 186.1696875 35.14261719 186.1696875 33.7578125 184.8125 C26.55836992 177.46171779 26.55836992 177.46171779 25.7421875 172.57421875 C26.00394197 168.94535 26.09138947 167.79207619 28.625 165.3125 C29.26050781 164.66796875 29.89601563 164.0234375 30.55078125 163.359375 C31.76314453 162.19148438 31.76314453 162.19148438 33 161 C34.10041399 159.88291823 35.19784854 158.76289695 36.29296875 157.640625 C46.57941892 147.1608205 46.57941892 147.1608205 51.3125 146.625 C55 147 55 147 57.9375 149.125 C60 152 60 152 60.5625 155 C59.88370011 158.62026611 58.35280228 160.23089672 56 163 C59.74993479 163.05811773 63.49975352 163.09363593 67.25 163.125 C68.84521484 163.15013672 68.84521484 163.15013672 70.47265625 163.17578125 C71.49746094 163.18222656 72.52226562 163.18867188 73.578125 163.1953125 C74.99206543 163.21102295 74.99206543 163.21102295 76.43457031 163.22705078 C79.19100093 162.98309565 80.73000679 162.57310902 83 161 C84.77806391 158.08309767 85.25389781 155.88313961 85.27415466 152.49049377 C85.28412979 151.59190643 85.29410492 150.69331909 85.30438232 149.76750183 C85.305047 148.78920914 85.30571167 147.81091644 85.30639648 146.80297852 C85.31888176 145.24870148 85.31888176 145.24870148 85.33161926 143.6630249 C85.35573131 140.23494724 85.36449224 136.80705974 85.37109375 133.37890625 C85.380058 130.9976343 85.3891798 128.61636293 85.39845276 126.23509216 C85.41494778 121.24257029 85.42264403 116.25011554 85.42553711 111.25756836 C85.43092635 104.85698012 85.46862743 98.45702135 85.51428127 92.05661106 C85.54400424 87.13841947 85.55125961 82.22038047 85.55226326 77.30210686 C85.55647374 74.94215952 85.56894095 72.58221206 85.58978081 70.22235298 C85.61659973 66.92323407 85.6118975 63.62558782 85.59936523 60.32641602 C85.61419952 59.35014755 85.62903381 58.37387909 85.64431763 57.36802673 C85.596626 52.96500014 85.42221983 50.64153195 82.95700073 46.89581299 C79.27661171 44.53621624 76.33021161 44.29046347 72.08862305 44.34057617 C70.91709938 44.32485062 70.91709938 44.32485062 69.72190857 44.30880737 C67.1514388 44.28010458 64.58231976 44.28634287 62.01171875 44.29296875 C60.22522803 44.27985075 58.43875213 44.2645462 56.65229797 44.24714661 C51.95869117 44.20729544 47.26547234 44.1971061 42.57171631 44.19311523 C36.93559523 44.18214236 31.2996809 44.13429072 25.66371918 44.09262848 C17.10897197 44.03351506 8.55530314 44.02121947 0 44 C0 29.48 0 14.96 0 0 Z " fill="#8992A0" transform="translate(358,118)"/>
<path d="M0 0 C5.00651024 1.17800241 7.58125233 4.19315299 11.1875 7.75 C12.46909296 8.94894273 13.75173851 10.14676082 15.03515625 11.34375 C16.4208826 12.66497828 17.80498079 13.98791617 19.1875 15.3125 C19.87126709 15.94937744 20.55503418 16.58625488 21.25952148 17.24243164 C25.99247571 21.87349879 25.99247571 21.87349879 26.875 25.83984375 C25.20564544 32.90614574 19.63359156 37.58317627 14.625 42.5 C13.95275391 43.17160156 13.28050781 43.84320313 12.58789062 44.53515625 C5.47659502 51.58289509 5.47659502 51.58289509 0.8125 52.1875 C-2.8125 51.75 -2.8125 51.75 -5.75 49.6875 C-8.34577109 45.9904927 -8.52503588 44.18355658 -7.8125 39.75 C-6.53344689 38.04132253 -5.20540557 36.36721045 -3.8125 34.75 C-4.73545113 34.76665459 -4.73545113 34.76665459 -5.67704773 34.78364563 C-12.08459956 34.89431497 -18.49187968 34.9696988 -24.90014648 35.0246582 C-27.29120919 35.04979315 -29.68219514 35.08390633 -32.07299805 35.12719727 C-35.51109764 35.18789061 -38.94818096 35.21622072 -42.38671875 35.23828125 C-43.45460129 35.26408768 -44.52248383 35.2898941 -45.62272644 35.31648254 C-53.03063658 35.31927833 -53.03063658 35.31927833 -56.98754883 32.43823242 C-59.40789914 28.87295118 -59.56726659 26.97669292 -58.8125 22.75 C-56.74950696 19.74905872 -55.11581034 18.01219432 -51.46591187 17.27792358 C-48.50287999 17.07376806 -45.57554 17.03180226 -42.60546875 17.04296875 C-41.52493729 17.02784744 -40.44440582 17.01272614 -39.33113098 16.99714661 C-35.88720898 16.95423242 -32.44416287 16.94542756 -29 16.9375 C-26.66208603 16.91435875 -24.32419293 16.8889942 -21.98632812 16.86132812 C-16.26171048 16.79843903 -10.53743562 16.76353435 -4.8125 16.75 C-5.2971875 15.986875 -5.781875 15.22375 -6.28125 14.4375 C-8.15280122 11.15273663 -8.43335296 9.47511776 -7.8125 5.75 C-5.43883542 2.53857145 -3.87807732 1.03415395 0 0 Z " fill="#8991A0" transform="translate(101.8125,127.25)"/>
<path d="M0 0 C1.05706398 -0.00832352 1.05706398 -0.00832352 2.13548279 -0.01681519 C4.45495536 -0.02858475 6.77246224 -0.00436725 9.09179688 0.02148438 C10.70934968 0.02319631 12.32690526 0.02312895 13.94445801 0.0213623 C17.33059317 0.023014 20.71606504 0.04168336 24.10205078 0.07324219 C28.43657307 0.11291978 32.77022711 0.1172866 37.10489655 0.10977936 C40.44386715 0.10670587 43.78264353 0.11884356 47.12156677 0.13591003 C48.71950563 0.14292791 50.31746649 0.14606604 51.91542053 0.1452179 C54.15104752 0.14702112 56.38564538 0.16844578 58.62109375 0.1953125 C60.52707336 0.20794128 60.52707336 0.20794128 62.47155762 0.2208252 C66.079347 0.64698567 67.94214949 1.42502958 70.81054688 3.61523438 C72.81054688 6.61523438 72.81054688 6.61523438 72.68554688 10.05273438 C71.70371394 14.05019703 71.049542 15.17058342 67.81054688 17.61523438 C64.5158844 18.12989807 64.5158844 18.12989807 60.55102539 18.14868164 C59.82695496 18.15729721 59.10288452 18.16591278 58.35687256 18.17478943 C55.96736733 18.19746095 53.57903389 18.19070873 51.18945312 18.18164062 C49.52562614 18.18687604 47.86180212 18.19315222 46.19798279 18.20042419 C42.71184315 18.21083077 39.22611162 18.20626397 35.73999023 18.19165039 C31.27628698 18.17446901 26.81387173 18.1979473 22.35031223 18.23313999 C18.91439817 18.25512073 15.47879193 18.25367087 12.04282951 18.24537468 C10.39741542 18.24455538 8.75197868 18.25141477 7.10663033 18.26614571 C4.80344079 18.28360393 2.5025603 18.26904228 0.19946289 18.24633789 C-1.10973618 18.24537613 -2.41893524 18.24441437 -3.76780701 18.24342346 C-8.06411938 17.45465208 -9.54309548 16.02858571 -12.18945312 12.61523438 C-12.81445312 9.11523438 -12.81445312 9.11523438 -12.18945312 5.61523438 C-8.45646225 0.82726307 -5.98620754 -0.00967874 0 0 Z " fill="#1E4359" transform="translate(405.189453125,33.384765625)"/>
<path d="M0 0 C1.93950783 -0.00361794 1.93950783 -0.00361794 3.91819763 -0.00730896 C6.64948102 -0.01016152 9.37994186 0.00448053 12.11108398 0.03198242 C15.60741961 0.06610047 19.10228849 0.06003192 22.5986948 0.04131985 C25.94094198 0.0281975 29.28276307 0.04646568 32.625 0.0625 C33.87922256 0.05754013 35.13344513 0.05258026 36.42567444 0.04747009 C38.17285011 0.07122459 38.17285011 0.07122459 39.95532227 0.09545898 C40.97948746 0.10165756 42.00365265 0.10785614 43.05885315 0.11424255 C46.43662279 0.76115724 47.62684954 1.97660525 49.74609375 4.62890625 C50.47380608 7.36852913 50.32580952 9.86104764 49.74609375 12.62890625 C47.87594281 15.06010248 46.4647103 16.26959798 43.74609375 17.62890625 C41.98582933 17.73995541 40.22143764 17.78810674 38.45776367 17.8059082 C37.35289108 17.81874344 36.24801849 17.83157867 35.10966492 17.84480286 C33.91074112 17.85218979 32.71181732 17.85957672 31.4765625 17.8671875 C29.63412712 17.87929512 29.63412712 17.87929512 27.75447083 17.89164734 C25.15102555 17.90549759 22.54756205 17.91621552 19.9440918 17.92407227 C15.96049654 17.93730116 11.97751095 17.98517142 7.99414062 18.02929688 C5.46745403 18.03942297 2.94076037 18.04793933 0.4140625 18.0546875 C-1.37521416 18.08094963 -1.37521416 18.08094963 -3.20063782 18.10774231 C-11.47766613 18.08601174 -11.47766613 18.08601174 -15.4831543 15.72729492 C-17.59546134 13.22415428 -18.19417486 12.07689167 -18.62890625 8.81640625 C-18.23945542 5.50607421 -17.60828811 3.94924223 -15.17044067 1.67214966 C-10.6531612 -0.78677932 -4.99936833 -0.05293305 0 0 Z " fill="#F7526B" transform="translate(197.25390625,409.37109375)"/>
<path d="M0 0 C1.93950783 -0.00361794 1.93950783 -0.00361794 3.91819763 -0.00730896 C6.64948102 -0.01016152 9.37994186 0.00448053 12.11108398 0.03198242 C15.60741961 0.06610047 19.10228849 0.06003192 22.5986948 0.04131985 C25.94094198 0.0281975 29.28276307 0.04646568 32.625 0.0625 C33.87922256 0.05754013 35.13344513 0.05258026 36.42567444 0.04747009 C38.17285011 0.07122459 38.17285011 0.07122459 39.95532227 0.09545898 C40.97948746 0.10165756 42.00365265 0.10785614 43.05885315 0.11424255 C46.47945392 0.76936031 47.66120266 1.87818085 49.74609375 4.62890625 C50.61688027 10.11486131 50.61688027 10.11486131 49.74609375 12.62890625 C46.99831835 15.78826763 45.24159162 17.36807174 41.07312012 18.09510803 C37.73434926 18.27447817 34.4293765 18.29543349 31.0859375 18.2578125 C29.86330704 18.26022446 28.64067657 18.26263641 27.3809967 18.26512146 C24.8014094 18.26414369 22.22180094 18.25076723 19.64233398 18.22583008 C15.69377437 18.19149478 11.74744952 18.20518469 7.79882812 18.22460938 C5.29035506 18.21771167 2.78188776 18.20803998 0.2734375 18.1953125 C-0.90686539 18.20027237 -2.08716827 18.20523224 -3.30323792 18.21034241 C-11.4717374 18.09289467 -11.4717374 18.09289467 -15.47436523 15.71850586 C-17.60101209 13.22132237 -18.19357927 12.08135859 -18.62890625 8.81640625 C-18.23945542 5.50607421 -17.60828811 3.94924223 -15.17044067 1.67214966 C-10.6531612 -0.78677932 -4.99936833 -0.05293305 0 0 Z " fill="#3ED9B0" transform="translate(197.25390625,136.37109375)"/>
<path d="M0 0 C1.22404541 -0.00145523 2.44809082 -0.00291046 3.70922852 -0.00440979 C6.29478335 -0.00275127 8.8803481 0.00880451 11.46582031 0.02954102 C15.42295273 0.05848734 19.37874481 0.05014912 23.3359375 0.03710938 C25.84896484 0.04334709 28.36198796 0.05173828 30.875 0.0625 C32.05843994 0.05956436 33.24187988 0.05662872 34.46118164 0.05360413 C35.56582764 0.0662883 36.67047363 0.07897247 37.80859375 0.09204102 C38.77724365 0.097444 39.74589355 0.10284698 40.74389648 0.1084137 C43.93734193 0.56803409 45.83742854 1.61457738 48.4375 3.49609375 C50.00685594 6.63480563 49.78951103 9.03465197 49.4375 12.49609375 C47.78101107 15.09735812 47.06853403 16.07028856 44.4375 17.49609375 C40.10993189 18.26604653 35.82382882 18.22027573 31.4375 18.1953125 C30.1690625 18.2024678 28.900625 18.20962311 27.59375 18.21699524 C24.91318668 18.22477631 22.23495837 18.22220887 19.5546875 18.20288086 C16.12751052 18.17998553 12.70281154 18.20678445 9.27587891 18.24794292 C5.99637924 18.27972845 2.71710407 18.26652239 -0.5625 18.2578125 C-1.7896875 18.27309494 -3.016875 18.28837738 -4.28125 18.30412292 C-12.50817104 18.19139216 -12.50817104 18.19139216 -15.47216797 16.23672485 C-17.97619335 13.43355521 -18.55806801 11.62462144 -18.6875 7.87109375 C-15.67696543 -1.16050995 -8.13119312 -0.07718655 0 0 Z " fill="#FEC17F" transform="translate(197.5625,272.50390625)"/>
<path d="M0 0 C1.22332031 -0.03738281 2.44664063 -0.07476562 3.70703125 -0.11328125 C7.78566893 0.38567667 9.36067076 1.38135972 12.1875 4.3125 C13.25 7.75 13.25 7.75 13.1875 11.3125 C11.42108828 14.11439446 10.15700178 15.82774911 7.1875 17.3125 C4.71193304 17.48932621 2.29000105 17.58980822 -0.1875 17.625 C-0.86039063 17.65400391 -1.53328125 17.68300781 -2.2265625 17.71289062 C-5.62739059 17.75640516 -7.47117605 17.5676645 -10.2265625 15.5078125 C-12.47758822 12.39186064 -12.8125 10.13609619 -12.8125 6.3125 C-9.18759496 0.56265063 -6.56369588 0.13058662 0 0 Z " fill="#E35C5D" transform="translate(46.8125,33.6875)"/>
<path d="M0 0 C3.39469781 1.21488329 3.88567556 1.86054856 6 5 C6.37703343 8.21322517 6.18706578 10.9814613 5 14 C2.51263049 16.7658064 0.99044627 17.00110465 -2.75 17.43359375 C-4.16656311 17.45077222 -5.58340305 17.45161464 -7 17.4375 C-7.7115625 17.45748047 -8.423125 17.47746094 -9.15625 17.49804688 C-12.6106331 17.4948245 -14.63657171 17.26263598 -17.46484375 15.21875 C-19.34686379 12.49868032 -19.64537312 10.26080055 -19.41796875 6.97265625 C-19 5 -19 5 -17.375 2 C-11.8534071 -1.27205505 -6.24059927 -0.88214078 0 0 Z " fill="#3ED6AF" transform="translate(139,34)"/>
<path d="M0 0 C4.63309353 2.26618705 4.63309353 2.26618705 6 5 C6.48006117 9.2405403 6.57731798 11.2437793 3.9453125 14.69140625 C0.23517971 17.59948116 -1.830182 17.67169818 -6.5 17.625 C-8.43359375 17.64433594 -8.43359375 17.64433594 -10.40625 17.6640625 C-14.81216976 16.84992515 -16.29068379 15.50677532 -19 12 C-19.75123045 7.79310949 -19.44098839 5.79717131 -17.375 2.0625 C-11.99082715 -1.22782785 -6.15045455 -0.8542298 0 0 Z " fill="#F7C855" transform="translate(96,34)"/>
</svg>
