<?xml version="1.0" encoding="UTF-8"?>
<svg version="1.1" xmlns="http://www.w3.org/2000/svg" width="512" height="512">
<path d="M0 0 C0.73870929 0.17752052 1.47741858 0.35504105 2.23851299 0.53794098 C10.64026882 2.5792446 18.98222624 4.83851056 27.3215332 7.11914062 C28.99480442 7.574825 30.6681198 8.03034719 32.34147644 8.48571777 C35.81509776 9.43173461 39.28812773 10.37988397 42.76074219 11.32958984 C47.17799909 12.53742396 51.59680171 13.73949125 56.01607227 14.93993378 C59.45969223 15.87610235 62.90242597 16.81549717 66.34491539 17.7558136 C67.97308394 18.2001132 69.60152636 18.64341066 71.23026466 19.08561707 C107.15644562 28.84729405 107.15644562 28.84729405 114.71606445 41.80664062 C115.95604388 44.2720968 117.11296404 46.75650247 118.23950195 49.27539062 C118.89980759 50.61188555 119.56429434 51.94636207 120.23950195 53.27539062 C130.1102787 47.86640437 139.90303627 42.3409038 149.61450195 36.65039062 C162.07192898 29.35162124 174.59678478 22.17567657 187.14672852 15.03759766 C189.88714547 13.47615705 192.62287648 11.90694609 195.35668945 10.33398438 C196.77583946 9.5225751 198.19509844 8.71135637 199.61450195 7.90039062 C200.52232422 7.37384888 200.52232422 7.37384888 201.44848633 6.83666992 C210.44110223 1.72829231 220.02542367 0.57568811 230.1574707 2.96289062 C239.80966475 6.55440469 246.28321116 12.30465869 251.23950195 21.27539062 C251.7519043 22.19771484 251.7519043 22.19771484 252.2746582 23.13867188 C255.90782372 31.03024534 255.31739575 40.89074555 252.80200195 49.02539062 C249.19306969 57.55901171 243.10550561 63.37990461 235.25512695 68.09960938 C234.69102615 68.44007294 234.12692535 68.7805365 233.54573059 69.13131714 C227.39796393 72.82196713 221.16633196 76.36748972 214.92700195 79.90039062 C212.45079751 81.30758897 209.97582165 82.71693718 207.5012207 84.12695312 C206.57718948 84.65328339 206.57718948 84.65328339 205.63449097 85.19024658 C199.81209802 88.51090916 194.02272834 91.88702124 188.23950195 95.27539062 C179.60466644 100.33193644 170.93343633 105.32146323 162.23950195 110.27539062 C153.50546811 115.25266654 144.79269602 120.26360971 136.11450195 125.33789062 C135.15382813 125.89855225 134.1931543 126.45921387 133.20336914 127.03686523 C128.50935133 129.77687079 123.81863442 132.52221516 119.13491821 135.27980042 C117.39161367 136.30448099 115.64629098 137.32562642 113.90014648 138.34545898 C111.70232323 139.62938422 109.50771982 140.91884513 107.31713867 142.21508789 C82.46028063 156.68882687 63.50388135 154.6888143 36.4777832 148.35742188 C35.34945068 148.09385391 34.22111816 147.83028595 33.05859375 147.55873108 C28.37207267 146.46103364 23.68653464 145.35994414 19.00585938 144.23754883 C-1.46794288 139.34271817 -16.88289658 136.02915996 -35.76049805 147.27539062 C-36.42049805 147.27539062 -37.08049805 147.27539062 -37.76049805 147.27539062 C-37.60000977 148.36207031 -37.60000977 148.36207031 -37.4362793 149.47070312 C-36.22100738 159.27128313 -36.22100738 159.27128313 -39.76049805 164.27539062 C-44.21651163 169.40763728 -49.45022297 170.29981643 -55.82299805 172.02539062 C-57.44625 172.49912109 -57.44625 172.49912109 -59.10229492 172.98242188 C-67.07105109 175.19091939 -75.28789439 177.06443209 -83.19799805 173.90039062 C-89.00488183 167.95187553 -90.66470153 158.60556905 -92.72143555 150.73950195 C-92.98869446 149.73801117 -93.25595337 148.73652039 -93.53131104 147.7046814 C-94.40529057 144.42380168 -95.27044339 141.14066494 -96.13549805 137.85742188 C-96.74741792 135.55337725 -97.3598949 133.24948052 -97.97290039 130.94572449 C-99.58136618 124.89495704 -101.18235653 118.84223648 -102.78173828 112.7890625 C-104.40040532 106.66808662 -106.02602384 100.54895818 -107.65112305 94.4296875 C-109.48307299 87.52941264 -111.31423523 80.62893342 -113.14086914 73.72724915 C-113.55788338 72.15168511 -113.55788338 72.15168511 -113.98332214 70.5442915 C-114.51864174 68.52035164 -115.05342011 66.49626855 -115.58760071 64.47202778 C-116.71941153 60.18657881 -117.85739274 55.9034306 -119.02929688 51.62875366 C-119.21805389 50.93633166 -119.40681091 50.24390966 -119.60128784 49.53050518 C-120.0863149 47.75620563 -120.57634792 45.98327647 -121.06689453 44.210495 C-122.29733762 39.00366026 -122.70313411 34.50794973 -120.57299805 29.46289062 C-115.67230162 23.548257 -110.39072242 21.98330396 -103.19799805 20.08789062 C-102.2524707 19.82814453 -101.30694336 19.56839844 -100.33276367 19.30078125 C-97.81211932 18.61138947 -95.28903104 17.93520609 -92.76049805 17.27539062 C-92.07995361 17.09065186 -91.39940918 16.90591309 -90.69824219 16.71557617 C-85.7410005 15.58946974 -81.44447251 15.60033625 -76.94799805 17.96289062 C-73.81078174 20.2389103 -72.3273592 21.77299512 -70.76049805 25.27539062 C-70.76049805 25.93539063 -70.76049805 26.59539062 -70.76049805 27.27539062 C-70.31359619 26.92871338 -69.86669434 26.58203613 -69.40625 26.22485352 C-27.00159691 -6.60578088 -27.00159691 -6.60578088 0 0 Z M-51.0769043 34.31835938 C-55.83066087 38.16983431 -60.77537344 41.72988295 -65.76049805 45.27539062 C-63.19111985 56.42121856 -60.45384065 67.50598526 -57.50268555 78.55664062 C-57.21405325 79.64015556 -57.21405325 79.64015556 -56.91959 80.74555969 C-55.90857451 84.54059624 -54.89469439 88.33485241 -53.87817383 92.12841797 C-52.83081305 96.03931427 -51.79349985 99.95280691 -50.75823784 103.86692047 C-49.95550798 106.89483212 -49.14565372 109.92080389 -48.33377457 112.9462738 C-47.94754373 114.39050722 -47.56400904 115.83546447 -47.18322372 117.28114319 C-46.65515739 119.28328856 -46.11711193 121.28248449 -45.57641602 123.28125 C-45.27315399 124.41800171 -44.96989197 125.55475342 -44.65744019 126.72595215 C-44.03969647 129.42550474 -44.03969647 129.42550474 -41.76049805 130.27539062 C-39.70686667 129.41209938 -37.69098476 128.45821849 -35.69799805 127.46289062 C-15.4264451 117.9454186 4.49500199 123.11916195 25.42700195 128.08789062 C27.81915257 128.64247226 30.21172971 129.19521746 32.60473633 129.74609375 C36.06469206 130.54301067 39.52434436 131.34098025 42.98242188 132.14601135 C64.68168246 137.19039941 79.32224576 139.35480237 99.30200195 127.02539062 C101.39613276 125.76864588 103.49122547 124.5135029 105.5871582 123.25976562 C106.6714209 122.60685547 107.75568359 121.95394531 108.87280273 121.28125 C114.02867531 118.20941178 119.2450415 115.24601313 124.46414185 112.28353882 C134.78560014 106.42244084 145.06108723 100.48523671 155.30639648 94.49194336 C162.56161963 90.24921765 169.83307092 86.03547266 177.11450195 81.83789062 C178.18692139 81.21954346 179.25934082 80.60119629 180.36425781 79.96411133 C185.95243103 76.74320556 191.54262095 73.52582601 197.1340332 70.31054688 C202.56582817 67.18602534 207.99213903 64.05219636 213.41381836 60.91015625 C215.19540157 59.87944248 216.97870101 58.85168418 218.7644043 57.828125 C220.886567 56.61134027 223.00152212 55.38302887 225.11450195 54.15039062 C226.22567383 53.5084375 227.3368457 52.86648438 228.48168945 52.20507812 C232.52582951 49.37532573 235.42913575 45.88860806 237.23950195 41.27539062 C238.02486814 35.66563214 237.5015534 31.01062659 234.23950195 26.27539062 C229.83401347 21.83865755 226.6758792 19.54609921 220.30200195 18.83789062 C209.86978265 19.02208711 199.97320911 27.11514495 191.2277832 32.32226562 C185.44992334 35.75577681 179.626275 39.10890524 173.80200195 42.46289062 C172.70235107 43.09662598 171.6027002 43.73036133 170.46972656 44.38330078 C165.91537051 47.00751027 161.36012073 49.63016656 156.80493164 52.25292969 C155.67732422 52.90229492 154.5497168 53.55166016 153.38793945 54.22070312 C152.27257812 54.86273682 151.1572168 55.50477051 150.00805664 56.16625977 C147.8035643 57.43799527 145.60105479 58.71317467 143.40063477 59.99194336 C138.65870872 62.74643383 133.9144721 65.47198019 129.07543945 68.05273438 C121.18134086 72.32550503 116.00145061 75.62473997 111.6340332 83.79492188 C107.716056 90.76387292 100.1791896 94.88445879 92.6730957 96.99804688 C81.76093125 99.3419115 71.77006597 97.17710654 61.18481445 94.18554688 C59.5279512 93.72866737 59.5279512 93.72866737 57.83761597 93.26255798 C55.52211267 92.62223495 53.20784076 91.97744361 50.89477539 91.32836914 C47.35605347 90.33552026 43.81383982 89.35604795 40.27075195 88.37890625 C38.01272613 87.75272186 35.75490611 87.12579478 33.49731445 86.49804688 C32.44206573 86.20527359 31.38681702 85.91250031 30.29959106 85.6108551 C29.31441498 85.33394333 28.32923889 85.05703156 27.31420898 84.77172852 C26.02161667 84.40985191 26.02161667 84.40985191 24.70291138 84.04066467 C17.70383129 81.86635524 17.70383129 81.86635524 15.86450195 79.52539062 C15.00640107 76.43622746 15.38958718 74.34815942 16.23950195 71.27539062 C17.83323487 68.96447789 18.82174265 68.39365773 21.522995 67.62893677 C24.5689152 67.23251837 26.50462137 67.6083512 29.45361328 68.43115234 C30.97593315 68.84685989 30.97593315 68.84685989 32.52900696 69.27096558 C33.61554062 69.57922272 34.70207428 69.88747986 35.8215332 70.20507812 C36.94967941 70.51486603 38.07782562 70.82465393 39.24015808 71.14382935 C42.84705633 72.13568002 46.44968479 73.14203995 50.05200195 74.15039062 C53.64407648 75.14972758 57.23697158 76.14581831 60.83171082 77.13552856 C63.06720073 77.75161622 65.30110935 78.37347938 67.53315735 79.00192261 C80.54446574 82.6656047 80.54446574 82.6656047 93.23950195 79.27539062 C98.18483413 75.73617804 101.31029483 71.55017689 102.93481445 65.67382812 C103.6618235 59.95096203 102.13088533 55.02514318 99.55200195 49.96289062 C94.42136838 44.00026242 88.95842932 41.4694944 81.54125977 39.55224609 C80.69959259 39.32224915 79.85792542 39.0922522 78.99075317 38.85528564 C76.22821112 38.10400486 73.46068948 37.37323006 70.69262695 36.64257812 C68.7556603 36.12008961 66.81904004 35.59631541 64.88275146 35.07131958 C59.79405341 33.69525908 54.70088786 32.33651977 49.60656738 30.98144531 C44.45018126 29.60667826 39.29814399 28.21581826 34.14575195 26.82617188 C25.75174755 24.56414546 17.35579204 22.30959449 8.95459366 20.07441521 C3.76674099 18.6923425 -1.40771452 17.26983331 -6.56573486 15.77957153 C-24.46840995 11.66696975 -38.163477 23.80916899 -51.0769043 34.31835938 Z " fill="#F9AF17" transform="translate(141.760498046875,335.724609375)"/>
<path d="M0 0 C11.74233358 10.31078365 19.1290491 22.60128209 20.28125 38.41015625 C21.11805884 54.15455963 16.90504671 67.30188985 6.53125 79.22265625 C5.9434375 79.91875 5.355625 80.61484375 4.75 81.33203125 C3.35756418 82.97405462 1.94652054 84.60027295 0.53125 86.22265625 C1.52382813 86.67253906 2.51640625 87.12242187 3.5390625 87.5859375 C26.58825848 98.36374268 44.49425717 116.09053837 53.53125 140.22265625 C56.24973032 147.9123436 57.916764 155.58446006 58.90625 163.66015625 C59.00317139 164.40531494 59.10009277 165.15047363 59.19995117 165.91821289 C59.71128192 170.76036833 59.56976341 174.67823546 57.53125 179.22265625 C53.06202592 182.05630705 49.58905962 182.59758146 44.35154724 182.59687805 C43.30171798 182.60283966 43.30171798 182.60283966 42.23068005 182.60892171 C39.89763603 182.61850637 37.56520424 182.60675037 35.23217773 182.5949707 C33.55469538 182.59739992 31.87721447 182.6011205 30.19973755 182.60603333 C25.65230395 182.61542748 21.10508613 182.60602967 16.5576694 182.5927012 C11.79675186 182.58137394 7.03584475 182.58549515 2.2749176 182.58744812 C-5.71869426 182.58833061 -13.71222123 182.57725948 -21.70581055 182.55883789 C-30.94670092 182.53766374 -40.18746702 182.53416221 -49.42837673 182.54039985 C-58.32055842 182.5460947 -67.21269637 182.54044688 -76.10487175 182.5292263 C-79.88825223 182.52458267 -83.67160593 182.52370544 -87.45498848 182.52581215 C-91.90948577 182.52769598 -96.36385659 182.51958385 -100.81832504 182.50375175 C-102.45297027 182.49951001 -104.08762833 182.49865762 -105.72227669 182.50144196 C-107.95366678 182.50466609 -110.18467958 182.49557638 -112.41603088 182.48335266 C-114.28894727 182.48027336 -114.28894727 182.48027336 -116.19970036 182.47713184 C-120.48113662 182.14384812 -123.3655697 181.43995864 -126.28125 178.22265625 C-131.16298991 165.88983963 -125.13198795 147.89753167 -120.25 136.1328125 C-110.49085231 114.07032491 -92.88607055 96.38468925 -70.55078125 86.99609375 C-69.86371094 86.74085938 -69.17664063 86.485625 -68.46875 86.22265625 C-69.12875 85.62453125 -69.78875 85.02640625 -70.46875 84.41015625 C-81.7328553 73.05005005 -88.3615203 59.35988503 -88.78125 43.41015625 C-88.50715721 28.3995454 -83.24272568 15.32009096 -72.8125 4.47265625 C-52.7392822 -14.79763284 -22.35450134 -17.58773267 0 0 Z M-68.46875 105.22265625 C-69.91701172 105.99609375 -69.91701172 105.99609375 -71.39453125 106.78515625 C-90.18093185 117.26623654 -102.35975386 133.72149658 -108.40625 154.28515625 C-109.45191695 158.24867231 -109.46875 160.90028648 -109.46875 165.22265625 C-59.63875 165.22265625 -9.80875 165.22265625 41.53125 165.22265625 C39.42670192 146.28172356 32.01965543 131.75765375 18.53125 118.22265625 C17.85707031 117.52527344 17.18289063 116.82789063 16.48828125 116.109375 C1.71064388 101.83079481 -18.3754959 96.65467215 -38.421875 96.9375 C-48.83093109 97.33250423 -59.29990842 100.28933264 -68.46875 105.22265625 Z " fill="#F38D28" transform="translate(292.46875,145.77734375)"/>
<path d="M0 0 C2.6328125 1.58203125 2.6328125 1.58203125 5.125 3.8125 C6.52685547 5.02486328 6.52685547 5.02486328 7.95703125 6.26171875 C9.53565736 7.67340969 11.10442353 9.09519981 12.66943359 10.52197266 C13.81193706 11.55987387 14.96038827 12.59126629 16.11474609 13.6159668 C17.22746777 14.60499939 18.3262138 15.61003446 19.40869141 16.63208008 C21.8495199 18.80080738 23.39988195 19.98011136 26.7109375 20.08984375 C32.52722273 18.16259484 38.09483822 15.65665528 43.68164062 13.15039062 C49.79182427 10.530539 54.34305832 9.37632203 61 10 C63.5625 11.5 63.5625 11.5 65 14 C66.27182012 23.21797827 61.30896389 30.99985917 57.3828125 39.08984375 C54.39643343 45.09695591 54.39643343 45.09695591 54.8581543 51.44482422 C56.4176113 53.55466324 58.05583768 55.24340456 60 57 C60.78503906 57.91007812 61.57007813 58.82015625 62.37890625 59.7578125 C63.09949219 60.53898437 63.82007813 61.32015625 64.5625 62.125 C65.32691406 62.96933594 66.09132813 63.81367187 66.87890625 64.68359375 C68.12319419 66.04245701 69.37692719 67.39296665 70.65234375 68.72265625 C73.95167726 72.30888832 75 75.12515378 75 80 C73.81456434 82.80761077 72.84965236 84.40735366 70.34863281 86.15185547 C67.06114541 87.33904167 64.02932747 87.03002356 60.609375 86.7578125 C59.90476135 86.71059052 59.20014771 86.66336853 58.47418213 86.61471558 C56.23190835 86.46201559 53.99111863 86.29373287 51.75 86.125 C50.22663422 86.01850035 48.70319682 85.91301994 47.1796875 85.80859375 C43.45222238 85.55086829 39.72592816 85.27915976 36 85 C35.69819824 85.46784912 35.39639648 85.93569824 35.08544922 86.41772461 C31.73056589 91.61632289 28.36767922 96.80968312 25 102 C24.35289062 102.99902344 23.70578125 103.99804688 23.0390625 105.02734375 C22.53117187 105.80207031 22.02328125 106.57679688 21.5 107.375 C21.0771875 108.02210938 20.654375 108.66921875 20.21875 109.3359375 C18.91151196 111.12082021 17.71604546 112.5959628 16 114 C8.98207842 114.77976906 8.98207842 114.77976906 6.0065918 112.41723633 C3.44643146 109.33314489 2.81487217 106.71381348 1.859375 102.828125 C1.68746643 102.1457074 1.51555786 101.46328979 1.33843994 100.76019287 C0.79573599 98.59316265 0.27265252 96.42194366 -0.25 94.25 C-0.61589988 92.7744197 -0.98307395 91.29915473 -1.3515625 89.82421875 C-2.24915528 86.21967891 -3.12922356 82.61112385 -4 79 C-4.91813477 78.77860352 -5.83626953 78.55720703 -6.78222656 78.32910156 C-10.19941765 77.49793967 -13.61297733 76.65417129 -17.02490234 75.80175781 C-18.49988993 75.43600491 -19.97613037 75.07526533 -21.45361328 74.71972656 C-23.58197712 74.20662606 -25.70512567 73.6754321 -27.828125 73.140625 C-29.1059082 72.82641602 -30.38369141 72.51220703 -31.70019531 72.18847656 C-35.15975985 70.94245998 -36.74817729 69.8663286 -39 67 C-40.04289101 63.73227482 -40.35515722 61.89851741 -39.0859375 58.6875 C-35.98243151 54.68897542 -31.99068159 52.51940896 -27.6875 49.9375 C-26.00356973 48.90549683 -24.31996856 47.87295642 -22.63671875 46.83984375 C-21.83927246 46.35628418 -21.04182617 45.87272461 -20.22021484 45.37451172 C-18.28054512 44.17368254 -16.39646747 42.92446533 -14.51953125 41.62890625 C-12 40 -12 40 -10 40 C-10.09087891 38.93471069 -10.09087891 38.93471069 -10.18359375 37.84790039 C-10.45960843 34.58641536 -10.72984201 31.32447517 -11 28.0625 C-11.09539062 26.94552734 -11.19078125 25.82855469 -11.2890625 24.67773438 C-12.84472636 5.73197091 -12.84472636 5.73197091 -9 1 C-5.90537492 -0.54731254 -3.41571788 -0.27802355 0 0 Z " fill="#EE7136" transform="translate(361,57)"/>
<path d="M0 0 C0.7528125 -0.02191406 1.505625 -0.04382812 2.28125 -0.06640625 C5.56335738 0.8639094 6.53641458 2.82148544 8.5 5.5625 C9.50250646 7.56400181 10.43213499 9.60320401 11.296875 11.66796875 C11.78027344 12.81587891 12.26367188 13.96378906 12.76171875 15.14648438 C13.49841797 16.93022461 13.49841797 16.93022461 14.25 18.75 C14.75660156 19.95076172 15.26320313 21.15152344 15.78515625 22.38867188 C19.5 31.27525901 19.5 31.27525901 19.5 33.5625 C20.07854736 33.58755615 20.65709473 33.6126123 21.25317383 33.63842773 C51.32366245 34.95780745 51.32366245 34.95780745 55.5 37.5625 C58.06205842 41.40558764 58.17366765 42.9965304 57.5 47.5625 C53.78439371 53.60343605 47.83090239 57.94775664 42.34375 62.2890625 C38.99236959 64.96832541 35.74302515 67.75385085 32.5 70.5625 C32.68175781 71.33327881 32.86351562 72.10405762 33.05078125 72.89819336 C33.87744967 76.42981625 34.68881978 79.96478891 35.5 83.5 C35.78617187 84.71236328 36.07234375 85.92472656 36.3671875 87.17382812 C40.14222561 103.75703125 40.14222561 103.75703125 37 109.125 C33.3980971 111.19609417 30.48729577 111.3918544 26.5 110.5625 C22.012993 108.41196449 17.86353055 105.75496453 13.6875 103.0625 C11.45736165 101.64709202 9.22003546 100.24431286 6.98046875 98.84375 C5.50936646 97.90112305 5.50936646 97.90112305 4.00854492 96.93945312 C1.53862414 95.32190916 1.53862414 95.32190916 -1.5 95.5625 C-3.36651734 96.5870409 -5.18770976 97.69501755 -6.98046875 98.84375 C-8.06263672 99.52050781 -9.14480469 100.19726562 -10.25976562 100.89453125 C-11.97158262 101.97343835 -13.6794982 103.0573409 -15.38012695 104.15380859 C-27.27402878 111.79209417 -27.27402878 111.79209417 -34.5 110.5625 C-37.47211415 108.58109057 -38.30536665 107.32374802 -39.18725586 103.87451172 C-39.55523512 99.97755105 -38.96329047 97.00313675 -38.06640625 93.1953125 C-37.90961899 92.51572479 -37.75283173 91.83613708 -37.59129333 91.13595581 C-37.09223992 88.98384509 -36.57765986 86.83580571 -36.0625 84.6875 C-35.7196676 83.22159596 -35.37786004 81.75545184 -35.03710938 80.2890625 C-34.20324335 76.71068769 -33.35542044 73.13579132 -32.5 69.5625 C-33.10811523 69.27656982 -33.71623047 68.99063965 -34.34277344 68.69604492 C-37.25007539 67.16836237 -39.35083261 65.11308044 -41.75 62.875 C-45.76190683 59.16385192 -49.8079319 55.51239674 -53.94140625 51.9375 C-57.47954565 48.81613391 -57.47954565 48.81613391 -57.8125 44.6875 C-57.74121642 41.88198203 -57.54683491 40.64947912 -56.1875 38.125 C-52.12406662 34.36256169 -45.6192724 34.94248548 -40.375 34.5 C-39.36695313 34.40912109 -38.35890625 34.31824219 -37.3203125 34.22460938 C-31.35455997 33.71072007 -25.48735662 33.46914205 -19.5 33.5625 C-19.32911865 33.03245361 -19.1582373 32.50240723 -18.98217773 31.95629883 C-17.02581656 25.97820414 -14.86431134 20.10317739 -12.5625 14.25 C-12.06073242 12.93032227 -12.06073242 12.93032227 -11.54882812 11.58398438 C-6.97913167 -0.01195057 -6.97913167 -0.01195057 0 0 Z " fill="#EF7435" transform="translate(258.5,0.4375)"/>
<path d="M0 0 C2.8125 1.5625 2.8125 1.5625 5 4 C5.96227741 8.71926549 6.03510164 13.02252608 5.66015625 17.80859375 C5.56669922 19.04931641 5.47324219 20.29003906 5.37695312 21.56835938 C5.27318359 22.84517578 5.16941406 24.12199219 5.0625 25.4375 C4.91264648 27.39333008 4.91264648 27.39333008 4.75976562 29.38867188 C4.51327596 32.59303758 4.25981365 35.79669171 4 39 C4.52843506 39.33209473 5.05687012 39.66418945 5.60131836 40.00634766 C8.04750041 41.54464907 10.49250303 43.08481576 12.9375 44.625 C13.76830078 45.14707031 14.59910156 45.66914062 15.45507812 46.20703125 C19.67664573 48.86809721 23.88589232 51.54827586 28.06640625 54.2734375 C28.79931885 54.74958496 29.53223145 55.22573242 30.28735352 55.71630859 C32 57 32 57 33 59 C33.58676544 66.2758915 33.58676544 66.2758915 31.37182617 69.00927734 C28.49944666 71.42012475 26.26060842 72.04313097 22.625 72.921875 C20.77648437 73.37626953 20.77648437 73.37626953 18.890625 73.83984375 C16.96476562 74.29037109 16.96476562 74.29037109 15 74.75 C13.70283101 75.06781288 12.40595206 75.38681204 11.109375 75.70703125 C1.61985931 78 1.61985931 78 -3 78 C-3.10699219 79.06734375 -3.21398437 80.1346875 -3.32421875 81.234375 C-4.05012239 87.00600814 -5.42904756 92.60633794 -6.8125 98.25 C-7.06064453 99.32507813 -7.30878906 100.40015625 -7.56445312 101.5078125 C-7.81775391 102.54164063 -8.07105469 103.57546875 -8.33203125 104.640625 C-8.55608643 105.57422852 -8.7801416 106.50783203 -9.01098633 107.46972656 C-10.18901311 110.48356749 -11.47282808 111.99393306 -14 114 C-19.41826923 114.77403846 -19.41826923 114.77403846 -22 114 C-26.75752787 110.37070842 -28.90653904 105.60585492 -31.65332031 100.37890625 C-36.45137971 90.74233607 -36.45137971 90.74233607 -44.6171875 84.45703125 C-47.8597412 84.49538404 -50.76756705 84.8302926 -53.92285156 85.56884766 C-57.78161396 86.36980845 -61.69847713 86.47086426 -65.625 86.6875 C-66.38329102 86.75839844 -67.14158203 86.82929688 -67.92285156 86.90234375 C-72.57865824 87.26963285 -75.33790145 86.97460421 -79 84 C-81.42609238 80.36086143 -81.71644409 79.29866456 -81 75 C-78.22556593 70.39803769 -74.44217258 66.49931712 -70.8984375 62.484375 C-70.08971191 61.56011719 -70.08971191 61.56011719 -69.26464844 60.6171875 C-68.18669322 59.38964112 -67.09901016 58.17055719 -66.00097656 56.9609375 C-65.49791992 56.39117187 -64.99486328 55.82140625 -64.4765625 55.234375 C-64.02361816 54.73131836 -63.57067383 54.22826172 -63.10400391 53.70996094 C-61.62228704 51.41497091 -61.22239194 49.7278075 -61 47 C-61.74886732 44.13907901 -61.74886732 44.13907901 -63.0546875 41.21875 C-63.50457031 40.12949219 -63.95445313 39.04023437 -64.41796875 37.91796875 C-64.89878906 36.79003906 -65.37960938 35.66210938 -65.875 34.5 C-66.81368094 32.26200049 -67.74871962 30.02246898 -68.6796875 27.78125 C-69.09976074 26.79189453 -69.51983398 25.80253906 -69.95263672 24.78320312 C-72.45634406 18.12999481 -72.45634406 18.12999481 -70.6875 13.75 C-69 11 -69 11 -67 10 C-59.21866615 9.11513554 -53.355332 11.98769258 -46.3125 15.0625 C-44.10544012 16.02370075 -41.89334318 16.97343896 -39.67578125 17.91015625 C-38.70552002 18.33433838 -37.73525879 18.75852051 -36.7355957 19.19555664 C-33.65611033 20.10112597 -32.03012755 19.97883971 -29 19 C-26.69598972 17.28668744 -26.69598972 17.28668744 -24.5 15.0625 C-20.52671818 11.36282741 -16.49450131 7.81884712 -12.25 4.4375 C-11.71955078 3.99607666 -11.18910156 3.55465332 -10.64257812 3.09985352 C-7.00688978 0.24429493 -4.59187937 -0.61826146 0 0 Z " fill="#F2862C" transform="translate(162,57)"/>
<path d="M0 0 C3.04869037 2.19789305 3.89859601 3.58339445 4.79296875 7.2578125 C4.92316406 8.53398437 5.05335938 9.81015625 5.1875 11.125 C5.29747314 12.15560547 5.29747314 12.15560547 5.40966797 13.20703125 C6.24005214 21.44799311 6.63616381 29.72751394 7 38 C7.52352051 38.16508057 8.04704102 38.33016113 8.58642578 38.50024414 C14.8162492 40.51489414 20.84655004 42.88732943 26.875 45.4375 C27.81085938 45.81970703 28.74671875 46.20191406 29.7109375 46.59570312 C30.608125 46.97533203 31.5053125 47.35496094 32.4296875 47.74609375 C33.23647949 48.08310303 34.04327148 48.4201123 34.87451172 48.76733398 C37.35715887 50.20713245 38.52759773 51.54840117 40 54 C40.5 57.4375 40.5 57.4375 40 61 C36.7030829 64.8982628 33.5813454 66.95502351 28.89453125 68.89453125 C27.74662109 69.37470703 26.59871094 69.85488281 25.41601562 70.34960938 C23.63227539 71.07374023 23.63227539 71.07374023 21.8125 71.8125 C20.01135742 72.56563477 20.01135742 72.56563477 18.17382812 73.33398438 C9.32052509 77 9.32052509 77 7 77 C6.92652344 78.670625 6.92652344 78.670625 6.8515625 80.375 C6.48148686 88.21749076 6.0324116 96.06187809 5.25 103.875 C5.07210937 105.78925781 5.07210937 105.78925781 4.890625 107.7421875 C3.79873641 111.73620104 2.4873435 112.86711581 -1 115 C-4.25 115.8125 -4.25 115.8125 -8 115 C-15.07366861 109.58462733 -20.5022639 101.93786965 -26 95 C-27.33305254 93.33310874 -28.6663012 91.66637423 -30 90 C-33.00041238 90.62306951 -36.00032443 91.2484011 -39 91.875 C-40.25876953 92.13603516 -40.25876953 92.13603516 -41.54296875 92.40234375 C-45.4947181 93.22945408 -49.42092932 94.09094203 -53.328125 95.109375 C-58.66794017 96.40456421 -63.66226408 97.36843079 -68.5625 94.5 C-70.63300007 90.89913031 -70.83894567 87.98548085 -70 84 C-67.82011087 79.55226588 -65.14275679 75.45636247 -62.4375 71.3125 C-61.00171654 69.11041513 -59.5884181 66.89820005 -58.18359375 64.67578125 C-57.54993896 63.70552002 -56.91628418 62.73525879 -56.26342773 61.7355957 C-54.75963884 58.47956583 -54.79065251 57.33558588 -56 54 C-57.39003248 51.38410663 -57.39003248 51.38410663 -59.16015625 48.76171875 C-59.78857422 47.77623047 -60.41699219 46.79074219 -61.06445312 45.77539062 C-62.39230264 43.72325955 -63.72821017 41.67631925 -65.07226562 39.63476562 C-68.76524748 33.80873567 -71.0955029 29.95406188 -70 23 C-68.11684683 20.27988987 -66.89195657 19.26472764 -63.73046875 18.32641602 C-60.4941977 17.93953347 -58.15984447 18.42858557 -55 19.21484375 C-53.2984375 19.62573242 -53.2984375 19.62573242 -51.5625 20.04492188 C-50.386875 20.33947266 -49.21125 20.63402344 -48 20.9375 C-45.6679015 21.51413181 -43.33460303 22.08593722 -41 22.65234375 C-39.96875 22.91007568 -38.9375 23.16780762 -37.875 23.43334961 C-35.1133026 23.97766854 -32.80033655 24.27453107 -30 24 C-28.00773054 22.27034787 -26.43475464 20.68000842 -24.75 18.6875 C-24.27763916 18.1514917 -23.80527832 17.6154834 -23.31860352 17.06323242 C-19.34056618 12.51261397 -15.52706734 7.82173611 -11.77734375 3.08203125 C-8.64598265 -0.58613461 -4.60595815 -0.94726309 0 0 Z " fill="#F17F30" transform="translate(452,177)"/>
<path d="M0 0 C5.98140858 4.20696321 10.4153718 10.8107199 14.921875 16.484375 C16.94555985 19.02693522 16.94555985 19.02693522 19.265625 21.203125 C21 23 21 23 21 25 C21.9379541 24.77747559 22.8759082 24.55495117 23.84228516 24.32568359 C27.33863126 23.50069032 30.83958574 22.69696109 34.34228516 21.89941406 C35.85468367 21.55196679 37.36579024 21.19884333 38.87548828 20.83984375 C41.05182225 20.32337689 43.23205892 19.82782376 45.4140625 19.3359375 C46.08305573 19.17249847 46.75204895 19.00905945 47.4413147 18.84066772 C52.67831354 17.69302759 56.3047626 18.38285756 60.875 21.125 C62.84509919 24.40849865 62.76377703 27.37188631 62 31 C59.69579624 35.7333027 56.86672068 40.09650541 54 44.5 C53.22752005 45.71510059 52.45667003 46.931239 51.6875 48.1484375 C49.81034565 51.11118255 47.91139528 54.05919635 46 57 C47.16651536 59.06258558 48.33320393 61.1250732 49.5 63.1875 C49.88542969 63.87038086 50.27085938 64.55326172 50.66796875 65.25683594 C52.47012718 68.42097042 54.3159219 71.53232474 56.3125 74.578125 C56.67923828 75.14378174 57.04597656 75.70943848 57.42382812 76.29223633 C58.44774615 77.85761373 59.48905618 79.41157411 60.53125 80.96484375 C62.28529536 84.58955982 62.37186891 87.01770765 62 91 C60.5625 93.9375 60.5625 93.9375 58 96 C50.00060994 96.66937045 42.69261671 94.83055386 34.9375 93 C33.69033203 92.71382813 32.44316406 92.42765625 31.15820312 92.1328125 C28.10334857 91.43054709 25.05085094 90.71942299 22 90 C21.154375 90.97839844 20.30875 91.95679688 19.4375 92.96484375 C15.96374047 96.98126611 12.48326334 100.9918189 9 105 C8.15050781 105.97839844 7.30101562 106.95679688 6.42578125 107.96484375 C5.72839844 108.76019531 5.03101563 109.55554688 4.3125 110.375 C3.71050781 111.06335938 3.10851562 111.75171875 2.48828125 112.4609375 C0.17386623 114.85432206 -0.97880918 114.99803789 -4.375 115.3125 C-8 115 -8 115 -10.375 113.125 C-12.76873691 109.99472866 -13.19494747 107.96961959 -13.53515625 104.08984375 C-13.66567383 102.60387695 -13.66567383 102.60387695 -13.79882812 101.08789062 C-13.9293457 99.52844727 -13.9293457 99.52844727 -14.0625 97.9375 C-14.15337891 96.92494141 -14.24425781 95.91238281 -14.33789062 94.86914062 C-14.85082952 88.88742464 -15.09370133 83.00313218 -15 77 C-15.78528076 76.7534668 -15.78528076 76.7534668 -16.58642578 76.50195312 C-22.82873413 74.48804119 -28.84705245 72.07975721 -34.875 69.5 C-35.81085937 69.10941406 -36.74671875 68.71882813 -37.7109375 68.31640625 C-38.608125 67.93355469 -39.5053125 67.55070312 -40.4296875 67.15625 C-41.23647949 66.81400391 -42.04327148 66.47175781 -42.87451172 66.11914062 C-46.01339959 64.46641124 -47.65904278 62.99664419 -48.8125 59.625 C-49.05232541 56.26744429 -48.79913561 54.87861697 -47 52 C-41.21186745 47.49832811 -34.37758482 44.8751182 -27.625 42.1875 C-26.13033203 41.57745117 -26.13033203 41.57745117 -24.60546875 40.95507812 C-17.28482143 38 -17.28482143 38 -15 38 C-14.96241577 37.13217896 -14.96241577 37.13217896 -14.92407227 36.24682617 C-14.64251699 29.82979209 -14.33155957 23.41463765 -14 17 C-13.90912109 15.18435547 -13.90912109 15.18435547 -13.81640625 13.33203125 C-13.49155341 8.52553517 -13.20694774 4.84833728 -10 1 C-6.65930338 -0.67034831 -3.56947434 -0.8465656 0 0 Z " fill="#F59C21" transform="translate(73,177)"/>
</svg>
