<?xml version="1.0" encoding="UTF-8"?>
<svg version="1.1" xmlns="http://www.w3.org/2000/svg" width="512" height="512">
<path d="M0 0 C1.01790619 0.00215515 2.03581238 0.0043103 3.08456421 0.00653076 C17.69363523 0.05620146 32.02575853 0.30709809 46.375 3.3125 C47.34985352 3.51117676 48.32470703 3.70985352 49.32910156 3.91455078 C97.7109774 14.03517194 141.69928269 35.9516877 177.375 70.3125 C178.3640332 71.26068604 178.3640332 71.26068604 179.37304688 72.22802734 C188.86130305 81.37247479 197.6012044 90.66984009 205.375 101.3125 C206.23306152 102.46355017 207.09113451 103.61459177 207.94921875 104.765625 C213.98736829 112.95680614 219.34595521 121.47054105 224.375 130.3125 C224.73948242 130.94430176 225.10396484 131.57610352 225.47949219 132.22705078 C247.08534998 169.97532572 256.85198095 212.74189997 256.6875 255.9375 C256.68534485 256.95540619 256.6831897 257.97331238 256.68096924 259.02206421 C256.63129854 273.63113523 256.38040191 287.96325853 253.375 302.3125 C253.07698486 303.77478027 253.07698486 303.77478027 252.77294922 305.26660156 C242.65232806 353.6484774 220.7358123 397.63678269 186.375 433.3125 C185.74287598 433.97185547 185.11075195 434.63121094 184.45947266 435.31054688 C175.31502521 444.79880305 166.01765991 453.5387044 155.375 461.3125 C154.22394983 462.17056152 153.07290823 463.02863451 151.921875 463.88671875 C143.73224019 469.92427396 135.22961724 475.30707302 126.375 480.3125 C125.66778809 480.7146875 124.96057617 481.116875 124.23193359 481.53125 C101.09654164 494.5566741 75.92537591 503.30551461 49.9375 508.625 C49.21860596 508.77235596 48.49971191 508.91971191 47.7590332 509.0715332 C33.08339502 511.86090125 18.55831162 512.66142619 3.64770508 512.62817383 C0.70811513 512.6250221 -2.2304558 512.64854926 -5.16992188 512.67382812 C-18.54306192 512.71848737 -31.43916711 511.51301542 -44.625 509.3125 C-46.33055054 509.03031616 -46.33055054 509.03031616 -48.07055664 508.74243164 C-91.33802759 500.97044532 -132.38793216 480.98345309 -165.625 452.3125 C-166.37007813 451.67828125 -167.11515625 451.0440625 -167.8828125 450.390625 C-181.38779833 438.57948485 -194.05918743 425.82889772 -204.625 411.3125 C-205.48149066 410.16255169 -206.33826433 409.01281411 -207.1953125 407.86328125 C-213.23534209 399.67315742 -218.61867614 391.16870382 -223.625 382.3125 C-224.0271875 381.60528809 -224.429375 380.89807617 -224.84375 380.16943359 C-237.8691741 357.03404164 -246.61801461 331.86287591 -251.9375 305.875 C-252.08485596 305.15610596 -252.23221191 304.43721191 -252.3840332 303.6965332 C-255.35789088 288.05024391 -255.99800362 272.57681954 -255.9375 256.6875 C-255.93534485 255.66959381 -255.9331897 254.65168762 -255.93096924 253.60293579 C-255.88129854 238.99386477 -255.63040191 224.66174147 -252.625 210.3125 C-252.42632324 209.33764648 -252.22764648 208.36279297 -252.02294922 207.35839844 C-241.90232806 158.9765226 -219.9858123 114.98821731 -185.625 79.3125 C-184.99287598 78.65314453 -184.36075195 77.99378906 -183.70947266 77.31445312 C-174.56502521 67.82619695 -165.26765991 59.0862956 -154.625 51.3125 C-153.47394983 50.45443848 -152.32290823 49.59636549 -151.171875 48.73828125 C-142.98224019 42.70072604 -134.47961724 37.31792698 -125.625 32.3125 C-124.91778809 31.9103125 -124.21057617 31.508125 -123.48193359 31.09375 C-100.34654164 18.0683259 -75.17537591 9.31948539 -49.1875 4 C-48.46860596 3.85264404 -47.74971191 3.70528809 -47.0090332 3.5534668 C-31.36274391 0.57960912 -15.88931954 -0.06050362 0 0 Z " fill="#6A2988" transform="translate(255.625,-0.3125)"/>
<path d="M0 0 C1.28753174 0.00607269 1.28753174 0.00607269 2.60107422 0.01226807 C3.92147705 0.00939789 3.92147705 0.00939789 5.26855469 0.00646973 C7.13135056 0.00510755 8.99415591 0.00880625 10.85693359 0.01715088 C13.71457158 0.02785 16.57158088 0.01725675 19.42919922 0.00445557 C21.23649228 0.00577716 23.04378495 0.00833954 24.85107422 0.01226807 C25.70942871 0.0082196 26.5677832 0.00417114 27.45214844 0 C33.49615677 0.04797562 33.49615677 0.04797562 35.72607422 2.27789307 C36.04492188 4.34088135 36.04492188 4.34088135 36.14013672 6.84820557 C36.17880859 7.744104 36.21748047 8.64000244 36.25732422 9.56304932 C36.28826172 10.50019775 36.31919922 11.43734619 36.35107422 12.40289307 C36.38974609 13.34777588 36.42841797 14.29265869 36.46826172 15.26617432 C36.56268768 17.60321682 36.64825816 19.94024807 36.72607422 22.27789307 C39.03607422 22.93789307 41.34607422 23.59789307 43.72607422 24.27789307 C44.53431641 23.41164307 45.34255859 22.54539307 46.17529297 21.65289307 C47.25404152 20.52724241 48.33350636 19.4022779 49.41357422 18.27789307 C49.94402344 17.70554932 50.47447266 17.13320557 51.02099609 16.54351807 C51.54628906 16.00211182 52.07158203 15.46070557 52.61279297 14.90289307 C53.08934326 14.40015869 53.56589355 13.89742432 54.05688477 13.37945557 C56.55594129 11.73023178 57.77415703 11.70848637 60.72607422 12.27789307 C63.07714978 14.12002507 65.07185063 15.89882357 67.15576172 18.00836182 C67.75035187 18.59579666 68.34494202 19.18323151 68.95755005 19.78846741 C70.20921898 21.03236066 71.45453018 22.28267967 72.69384766 23.53887939 C74.59629558 25.4605661 76.52625917 27.3511115 78.46044922 29.24078369 C79.67316057 30.45320472 80.88415896 31.66734204 82.09326172 32.88336182 C82.9633638 33.73054024 82.9633638 33.73054024 83.8510437 34.59483337 C87.72333001 38.58292172 87.72333001 38.58292172 87.73681641 41.99835205 C85.97468805 45.97250481 82.63927176 48.72349487 79.49951172 51.64117432 C77.75185162 53.31533056 77.75185162 53.31533056 75.72607422 56.27789307 C75.74507457 60.07250618 75.74507457 60.07250618 76.72607422 63.27789307 C77.56585815 63.25432739 77.56585815 63.25432739 78.42260742 63.23028564 C80.96116012 63.16789458 83.49955151 63.12889088 86.03857422 63.09039307 C86.91964844 63.06525635 87.80072266 63.04011963 88.70849609 63.01422119 C89.55605469 63.00455322 90.40361328 62.99488525 91.27685547 62.98492432 C92.44728394 62.96135864 92.44728394 62.96135864 93.64135742 62.93731689 C96.31294943 63.37376974 97.0435546 64.19130334 98.72607422 66.27789307 C99.01231921 69.33836818 99.12238129 72.19102891 99.08935547 75.25054932 C99.09010323 76.56882973 99.09010323 76.56882973 99.09086609 77.91374207 C99.0885264 79.77058169 99.07880402 81.62742453 99.06225586 83.48419189 C99.03863527 86.33303023 99.04169902 89.18093465 99.04833984 92.02984619 C99.04276406 93.83258617 99.03565481 95.63532219 99.02685547 97.43804932 C99.02776688 98.29326675 99.02867828 99.14848419 99.02961731 100.02961731 C98.95710562 106.04686166 98.95710562 106.04686166 96.72607422 108.27789307 C94.66308594 108.50494385 94.66308594 108.50494385 92.15576172 108.47320557 C91.25986328 108.46676025 90.36396484 108.46031494 89.44091797 108.45367432 C88.03519531 108.4285376 88.03519531 108.4285376 86.60107422 108.40289307 C85.18375 108.38935791 85.18375 108.38935791 83.73779297 108.37554932 C81.4003013 108.35193829 79.06331298 108.31900823 76.72607422 108.27789307 C76.01729414 111.2079393 75.51792658 113.31979485 75.72607422 116.27789307 C77.30819834 118.80141022 79.43324227 120.52923524 81.72607422 122.40289307 C83.98818014 124.28133785 85.76618648 126.03716776 87.72607422 128.27789307 C87.7444861 133.0616343 86.05641455 135.53979699 82.7769165 138.92178345 C81.95510895 139.72840927 81.95510895 139.72840927 81.11669922 140.55133057 C80.55287537 141.11993805 79.98905151 141.68854553 79.40814209 142.27438354 C78.2171989 143.46871863 77.01996015 144.65680509 75.81689453 145.83892822 C73.97833177 147.65066845 72.16802253 149.48760102 70.35888672 151.32867432 C69.19642441 152.48783337 68.03241245 153.64544087 66.86669922 154.80133057 C66.32692444 155.3512265 65.78714966 155.90112244 65.23101807 156.46768188 C62.88775767 158.73949864 61.27040615 160.17562524 58.01928711 160.78643799 C53.74273483 159.83806597 51.1578959 155.71223397 48.45068359 152.45562744 C45.59166774 149.19882261 45.59166774 149.19882261 41.55664062 148.12994385 C39.08670659 148.39626929 39.08670659 148.39626929 35.72607422 149.27789307 C35.74178467 149.83774902 35.75749512 150.39760498 35.77368164 150.97442627 C35.8360727 153.51297897 35.8750764 156.05137035 35.91357422 158.59039307 C35.93871094 159.47146729 35.96384766 160.3525415 35.98974609 161.26031494 C35.99941406 162.10787354 36.00908203 162.95543213 36.01904297 163.82867432 C36.03475342 164.60895996 36.05046387 165.38924561 36.06665039 166.19317627 C35.63056797 168.86250083 34.80753721 169.59391465 32.72607422 171.27789307 C29.73682064 171.56407624 26.96033912 171.67427868 23.97216797 171.64117432 C22.68718163 171.64192207 22.68718163 171.64192207 21.37623596 171.64268494 C19.56647419 171.64034545 17.7567091 171.63062428 15.94702148 171.61407471 C13.17060406 171.59045288 10.39514489 171.59351813 7.61865234 171.60015869 C5.86148514 171.59458293 4.10432199 171.58747368 2.34716797 171.57867432 C1.51382431 171.57958572 0.68048065 171.58049713 -0.17811584 171.58143616 C-6.04289232 171.50892653 -6.04289232 171.50892653 -8.27392578 169.27789307 C-8.50097656 167.21490479 -8.50097656 167.21490479 -8.46923828 164.70758057 C-8.46279297 163.81168213 -8.45634766 162.91578369 -8.44970703 161.99273682 C-8.43294922 161.05558838 -8.41619141 160.11843994 -8.39892578 159.15289307 C-8.38990234 158.20801025 -8.38087891 157.26312744 -8.37158203 156.28961182 C-8.347971 153.95212015 -8.31504094 151.61513183 -8.27392578 149.27789307 C-11.30920764 148.57360365 -14.15299645 148.12390832 -17.27392578 148.27789307 C-19.73898696 150.10810809 -21.17174681 151.40156828 -23.02392578 153.71539307 C-27.5315316 159.11006417 -27.5315316 159.11006417 -30.53320312 159.78863525 C-34.62896337 159.0253776 -36.87596625 156.40984469 -39.70361328 153.54742432 C-40.29820343 152.95998947 -40.89279358 152.37255463 -41.50540161 151.76731873 C-42.75707055 150.52342547 -44.00238174 149.27310646 -45.24169922 148.01690674 C-47.14414714 146.09522003 -49.07411073 144.20467464 -51.00830078 142.31500244 C-52.22101213 141.10258141 -53.43201053 139.88844409 -54.64111328 138.67242432 C-55.22118134 138.1076387 -55.80124939 137.54285309 -56.39889526 136.96095276 C-60.27119755 132.97284796 -60.27119755 132.97284796 -60.28466797 129.54156494 C-58.57054926 125.7026015 -55.23515634 123.27113164 -52.04736328 120.64703369 C-49.86202364 118.66941513 -48.32047813 117.16420931 -48.16162109 114.13970947 C-48.43181207 111.66699564 -48.43181207 111.66699564 -49.27392578 108.27789307 C-49.86931152 108.2883667 -50.46469727 108.29884033 -51.078125 108.30963135 C-53.76834921 108.35113256 -56.45850615 108.37720011 -59.14892578 108.40289307 C-60.08607422 108.41965088 -61.02322266 108.43640869 -61.98876953 108.45367432 C-62.88466797 108.46011963 -63.78056641 108.46656494 -64.70361328 108.47320557 C-65.53103027 108.4836792 -66.35844727 108.49415283 -67.2109375 108.50494385 C-69.27392578 108.27789307 -69.27392578 108.27789307 -71.27392578 106.27789307 C-71.48633063 103.21624242 -71.57787877 100.24737488 -71.57470703 97.18414307 C-71.57899216 96.28167847 -71.58327728 95.37921387 -71.58769226 94.44940186 C-71.59344051 92.53953898 -71.59393219 90.62965421 -71.58959961 88.7197876 C-71.58643837 85.78955974 -71.60989677 82.86033983 -71.63525391 79.93023682 C-71.63752663 78.07737351 -71.63823052 76.22450748 -71.63720703 74.37164307 C-71.64641678 73.49141479 -71.65562653 72.61118652 -71.66511536 71.70428467 C-71.64624023 69.23687744 -71.64624023 69.23687744 -71.27392578 65.27789307 C-68.12077793 63.1757945 -67.41289497 63.03441697 -63.82470703 63.08258057 C-62.55336914 63.09224854 -62.55336914 63.09224854 -61.25634766 63.10211182 C-60.37527344 63.11886963 -59.49419922 63.13562744 -58.58642578 63.15289307 C-57.24741211 63.16642822 -57.24741211 63.16642822 -55.88134766 63.18023682 C-53.67860264 63.20379559 -51.4763999 63.23668978 -49.27392578 63.27789307 C-48.56419929 60.34710288 -48.0661291 58.23699779 -48.27392578 55.27789307 C-49.85427523 52.7331514 -51.97667133 50.98537499 -54.27392578 49.09039307 C-56.4775758 47.2289398 -58.32221796 45.43488722 -60.27392578 43.27789307 C-60.29405428 38.98503286 -58.22553875 36.73915702 -55.32476807 33.74729919 C-54.77689636 33.20438736 -54.22902466 32.66147552 -53.66455078 32.10211182 C-53.10072693 31.53208939 -52.53690308 30.96206696 -51.95599365 30.37477112 C-50.76392207 29.17561098 -49.56670776 27.98154412 -48.36474609 26.79229736 C-46.52828302 24.96971736 -44.71709971 23.12440648 -42.90673828 21.27593994 C-41.74412756 20.11237816 -40.58011073 18.95021929 -39.41455078 17.78961182 C-38.874776 17.23657883 -38.33500122 16.68354584 -37.77886963 16.11375427 C-35.43773237 13.82937808 -33.82575978 12.38201832 -30.56713867 11.76715088 C-26.29090356 12.71954988 -23.7062946 16.84289399 -20.99853516 20.10015869 C-18.1395193 23.35696353 -18.1395193 23.35696353 -14.10449219 24.42584229 C-11.63455815 24.15951685 -11.63455815 24.15951685 -8.27392578 23.27789307 C-8.28963623 22.339375 -8.28963623 22.339375 -8.30566406 21.38189697 C-8.34715769 18.55560297 -8.37323051 15.72937296 -8.39892578 12.90289307 C-8.41568359 11.91804932 -8.43244141 10.93320557 -8.44970703 9.91851807 C-8.459375 8.50699463 -8.459375 8.50699463 -8.46923828 7.06695557 C-8.48494873 5.76298828 -8.48494873 5.76298828 -8.50097656 4.43267822 C-7.96433831 -0.66019186 -4.22428792 0.0335312 0 0 Z " fill="#6E2D90" transform="translate(242.27392578125,169.72210693359375)"/>
<path d="M0 0 C1.28753174 0.00607269 1.28753174 0.00607269 2.60107422 0.01226807 C3.92147705 0.00939789 3.92147705 0.00939789 5.26855469 0.00646973 C7.13135056 0.00510755 8.99415591 0.00880625 10.85693359 0.01715088 C13.71457158 0.02785 16.57158088 0.01725675 19.42919922 0.00445557 C21.23649228 0.00577716 23.04378495 0.00833954 24.85107422 0.01226807 C25.70942871 0.0082196 26.5677832 0.00417114 27.45214844 0 C33.49615677 0.04797562 33.49615677 0.04797562 35.72607422 2.27789307 C36.04492188 4.34088135 36.04492188 4.34088135 36.14013672 6.84820557 C36.17880859 7.744104 36.21748047 8.64000244 36.25732422 9.56304932 C36.28826172 10.50019775 36.31919922 11.43734619 36.35107422 12.40289307 C36.38974609 13.34777588 36.42841797 14.29265869 36.46826172 15.26617432 C36.56268768 17.60321682 36.64825816 19.94024807 36.72607422 22.27789307 C39.03607422 22.93789307 41.34607422 23.59789307 43.72607422 24.27789307 C44.53431641 23.41164307 45.34255859 22.54539307 46.17529297 21.65289307 C47.25404152 20.52724241 48.33350636 19.4022779 49.41357422 18.27789307 C49.94402344 17.70554932 50.47447266 17.13320557 51.02099609 16.54351807 C51.54628906 16.00211182 52.07158203 15.46070557 52.61279297 14.90289307 C53.08934326 14.40015869 53.56589355 13.89742432 54.05688477 13.37945557 C56.55594129 11.73023178 57.77415703 11.70848637 60.72607422 12.27789307 C63.07714978 14.12002507 65.07185063 15.89882357 67.15576172 18.00836182 C67.75035187 18.59579666 68.34494202 19.18323151 68.95755005 19.78846741 C70.20921898 21.03236066 71.45453018 22.28267967 72.69384766 23.53887939 C74.59629558 25.4605661 76.52625917 27.3511115 78.46044922 29.24078369 C79.67316057 30.45320472 80.88415896 31.66734204 82.09326172 32.88336182 C82.9633638 33.73054024 82.9633638 33.73054024 83.8510437 34.59483337 C87.72333001 38.58292172 87.72333001 38.58292172 87.73681641 41.99835205 C85.97468805 45.97250481 82.63927176 48.72349487 79.49951172 51.64117432 C77.75185162 53.31533056 77.75185162 53.31533056 75.72607422 56.27789307 C75.74507457 60.07250618 75.74507457 60.07250618 76.72607422 63.27789307 C77.56585815 63.25432739 77.56585815 63.25432739 78.42260742 63.23028564 C80.96116012 63.16789458 83.49955151 63.12889088 86.03857422 63.09039307 C86.91964844 63.06525635 87.80072266 63.04011963 88.70849609 63.01422119 C89.55605469 63.00455322 90.40361328 62.99488525 91.27685547 62.98492432 C92.44728394 62.96135864 92.44728394 62.96135864 93.64135742 62.93731689 C96.31294943 63.37376974 97.0435546 64.19130334 98.72607422 66.27789307 C99.01231921 69.33836818 99.12238129 72.19102891 99.08935547 75.25054932 C99.09010323 76.56882973 99.09010323 76.56882973 99.09086609 77.91374207 C99.0885264 79.77058169 99.07880402 81.62742453 99.06225586 83.48419189 C99.03863527 86.33303023 99.04169902 89.18093465 99.04833984 92.02984619 C99.04276406 93.83258617 99.03565481 95.63532219 99.02685547 97.43804932 C99.02776688 98.29326675 99.02867828 99.14848419 99.02961731 100.02961731 C98.95710562 106.04686166 98.95710562 106.04686166 96.72607422 108.27789307 C94.66308594 108.50494385 94.66308594 108.50494385 92.15576172 108.47320557 C91.25986328 108.46676025 90.36396484 108.46031494 89.44091797 108.45367432 C88.03519531 108.4285376 88.03519531 108.4285376 86.60107422 108.40289307 C85.18375 108.38935791 85.18375 108.38935791 83.73779297 108.37554932 C81.4003013 108.35193829 79.06331298 108.31900823 76.72607422 108.27789307 C76.01729414 111.2079393 75.51792658 113.31979485 75.72607422 116.27789307 C77.30819834 118.80141022 79.43324227 120.52923524 81.72607422 122.40289307 C83.98818014 124.28133785 85.76618648 126.03716776 87.72607422 128.27789307 C87.7444861 133.0616343 86.05641455 135.53979699 82.7769165 138.92178345 C81.95510895 139.72840927 81.95510895 139.72840927 81.11669922 140.55133057 C80.55287537 141.11993805 79.98905151 141.68854553 79.40814209 142.27438354 C78.2171989 143.46871863 77.01996015 144.65680509 75.81689453 145.83892822 C73.97833177 147.65066845 72.16802253 149.48760102 70.35888672 151.32867432 C69.19642441 152.48783337 68.03241245 153.64544087 66.86669922 154.80133057 C66.32692444 155.3512265 65.78714966 155.90112244 65.23101807 156.46768188 C62.88775767 158.73949864 61.27040615 160.17562524 58.01928711 160.78643799 C53.74273483 159.83806597 51.1578959 155.71223397 48.45068359 152.45562744 C45.59166774 149.19882261 45.59166774 149.19882261 41.55664062 148.12994385 C39.08670659 148.39626929 39.08670659 148.39626929 35.72607422 149.27789307 C35.74178467 149.83774902 35.75749512 150.39760498 35.77368164 150.97442627 C35.8360727 153.51297897 35.8750764 156.05137035 35.91357422 158.59039307 C35.93871094 159.47146729 35.96384766 160.3525415 35.98974609 161.26031494 C35.99941406 162.10787354 36.00908203 162.95543213 36.01904297 163.82867432 C36.03475342 164.60895996 36.05046387 165.38924561 36.06665039 166.19317627 C35.63056797 168.86250083 34.80753721 169.59391465 32.72607422 171.27789307 C29.73682064 171.56407624 26.96033912 171.67427868 23.97216797 171.64117432 C22.68718163 171.64192207 22.68718163 171.64192207 21.37623596 171.64268494 C19.56647419 171.64034545 17.7567091 171.63062428 15.94702148 171.61407471 C13.17060406 171.59045288 10.39514489 171.59351813 7.61865234 171.60015869 C5.86148514 171.59458293 4.10432199 171.58747368 2.34716797 171.57867432 C1.51382431 171.57958572 0.68048065 171.58049713 -0.17811584 171.58143616 C-6.04289232 171.50892653 -6.04289232 171.50892653 -8.27392578 169.27789307 C-8.50097656 167.21490479 -8.50097656 167.21490479 -8.46923828 164.70758057 C-8.46279297 163.81168213 -8.45634766 162.91578369 -8.44970703 161.99273682 C-8.43294922 161.05558838 -8.41619141 160.11843994 -8.39892578 159.15289307 C-8.38990234 158.20801025 -8.38087891 157.26312744 -8.37158203 156.28961182 C-8.347971 153.95212015 -8.31504094 151.61513183 -8.27392578 149.27789307 C-11.30920764 148.57360365 -14.15299645 148.12390832 -17.27392578 148.27789307 C-19.73898696 150.10810809 -21.17174681 151.40156828 -23.02392578 153.71539307 C-27.5315316 159.11006417 -27.5315316 159.11006417 -30.53320312 159.78863525 C-34.62896337 159.0253776 -36.87596625 156.40984469 -39.70361328 153.54742432 C-40.29820343 152.95998947 -40.89279358 152.37255463 -41.50540161 151.76731873 C-42.75707055 150.52342547 -44.00238174 149.27310646 -45.24169922 148.01690674 C-47.14414714 146.09522003 -49.07411073 144.20467464 -51.00830078 142.31500244 C-52.22101213 141.10258141 -53.43201053 139.88844409 -54.64111328 138.67242432 C-55.22118134 138.1076387 -55.80124939 137.54285309 -56.39889526 136.96095276 C-60.27119755 132.97284796 -60.27119755 132.97284796 -60.28466797 129.54156494 C-58.57054926 125.7026015 -55.23515634 123.27113164 -52.04736328 120.64703369 C-49.86202364 118.66941513 -48.32047813 117.16420931 -48.16162109 114.13970947 C-48.43181207 111.66699564 -48.43181207 111.66699564 -49.27392578 108.27789307 C-49.86931152 108.2883667 -50.46469727 108.29884033 -51.078125 108.30963135 C-53.76834921 108.35113256 -56.45850615 108.37720011 -59.14892578 108.40289307 C-60.08607422 108.41965088 -61.02322266 108.43640869 -61.98876953 108.45367432 C-62.88466797 108.46011963 -63.78056641 108.46656494 -64.70361328 108.47320557 C-65.53103027 108.4836792 -66.35844727 108.49415283 -67.2109375 108.50494385 C-69.27392578 108.27789307 -69.27392578 108.27789307 -71.27392578 106.27789307 C-71.48633063 103.21624242 -71.57787877 100.24737488 -71.57470703 97.18414307 C-71.57899216 96.28167847 -71.58327728 95.37921387 -71.58769226 94.44940186 C-71.59344051 92.53953898 -71.59393219 90.62965421 -71.58959961 88.7197876 C-71.58643837 85.78955974 -71.60989677 82.86033983 -71.63525391 79.93023682 C-71.63752663 78.07737351 -71.63823052 76.22450748 -71.63720703 74.37164307 C-71.64641678 73.49141479 -71.65562653 72.61118652 -71.66511536 71.70428467 C-71.64624023 69.23687744 -71.64624023 69.23687744 -71.27392578 65.27789307 C-68.12077793 63.1757945 -67.41289497 63.03441697 -63.82470703 63.08258057 C-62.55336914 63.09224854 -62.55336914 63.09224854 -61.25634766 63.10211182 C-60.37527344 63.11886963 -59.49419922 63.13562744 -58.58642578 63.15289307 C-57.24741211 63.16642822 -57.24741211 63.16642822 -55.88134766 63.18023682 C-53.67860264 63.20379559 -51.4763999 63.23668978 -49.27392578 63.27789307 C-48.56419929 60.34710288 -48.0661291 58.23699779 -48.27392578 55.27789307 C-49.85427523 52.7331514 -51.97667133 50.98537499 -54.27392578 49.09039307 C-56.4775758 47.2289398 -58.32221796 45.43488722 -60.27392578 43.27789307 C-60.29405428 38.98503286 -58.22553875 36.73915702 -55.32476807 33.74729919 C-54.77689636 33.20438736 -54.22902466 32.66147552 -53.66455078 32.10211182 C-53.10072693 31.53208939 -52.53690308 30.96206696 -51.95599365 30.37477112 C-50.76392207 29.17561098 -49.56670776 27.98154412 -48.36474609 26.79229736 C-46.52828302 24.96971736 -44.71709971 23.12440648 -42.90673828 21.27593994 C-41.74412756 20.11237816 -40.58011073 18.95021929 -39.41455078 17.78961182 C-38.874776 17.23657883 -38.33500122 16.68354584 -37.77886963 16.11375427 C-35.43773237 13.82937808 -33.82575978 12.38201832 -30.56713867 11.76715088 C-26.29090356 12.71954988 -23.7062946 16.84289399 -20.99853516 20.10015869 C-18.1395193 23.35696353 -18.1395193 23.35696353 -14.10449219 24.42584229 C-11.63455815 24.15951685 -11.63455815 24.15951685 -8.27392578 23.27789307 C-8.28963623 22.339375 -8.28963623 22.339375 -8.30566406 21.38189697 C-8.34715769 18.55560297 -8.37323051 15.72937296 -8.39892578 12.90289307 C-8.41568359 11.91804932 -8.43244141 10.93320557 -8.44970703 9.91851807 C-8.459375 8.50699463 -8.459375 8.50699463 -8.46923828 7.06695557 C-8.48494873 5.76298828 -8.48494873 5.76298828 -8.50097656 4.43267822 C-7.96433831 -0.66019186 -4.22428792 0.0335312 0 0 Z M0.72607422 10.27789307 C0.59529506 15.73707992 0.59529506 15.73707992 0.51831055 21.19708252 C0.4309508 23.31849756 0.27385031 25.22386951 -0.27392578 27.27789307 C-2.54345703 29.18414307 -2.54345703 29.18414307 -5.27392578 30.27789307 C-6.02673828 30.66332275 -6.77955078 31.04875244 -7.55517578 31.44586182 C-8.28736328 31.78230713 -9.01955078 32.11875244 -9.77392578 32.46539307 C-10.50611328 32.80957275 -11.23830078 33.15375244 -11.99267578 33.50836182 C-14.76787683 34.44451696 -16.36515914 34.79275796 -19.27392578 34.27789307 C-21.42310269 32.49126287 -23.21296425 30.81393804 -25.08642578 28.77789307 C-25.58851563 28.25324463 -26.09060547 27.72859619 -26.60791016 27.18804932 C-27.84154711 25.89566774 -29.05934203 24.58819707 -30.27392578 23.27789307 C-37.05768937 28.8282451 -43.12915546 35.04231333 -49.27392578 41.27789307 C-48.38090922 42.34276162 -47.48433108 43.40464348 -46.58642578 44.46539307 C-46.04501953 45.10863525 -45.50361328 45.75187744 -44.94580078 46.41461182 C-43.16231732 48.4859786 -43.16231732 48.4859786 -40.33642578 50.77789307 C-38.27392578 53.27789307 -38.27392578 53.27789307 -38.21142578 56.46539307 C-41.5921076 68.59607488 -41.5921076 68.59607488 -45.27392578 72.27789307 C-48.18056799 72.58538216 -50.98578423 72.78895926 -53.89892578 72.90289307 C-56.66267578 73.02664307 -59.42642578 73.15039307 -62.27392578 73.27789307 C-62.27392578 81.85789307 -62.27392578 90.43789307 -62.27392578 99.27789307 C-56.33392578 99.60789307 -50.39392578 99.93789307 -44.27392578 100.27789307 C-43.29736328 102.49143473 -42.32080078 104.7049764 -41.34423828 106.91851807 C-40.33958235 109.24450801 -40.33958235 109.24450801 -39.14111328 111.19976807 C-37.89737241 114.1802642 -37.79166704 116.07087242 -38.27392578 119.27789307 C-40.06877504 121.50979978 -41.68054027 123.26010223 -43.77392578 125.15289307 C-44.29857422 125.65047119 -44.82322266 126.14804932 -45.36376953 126.66070557 C-46.6539708 127.88053222 -47.9622431 129.08119556 -49.27392578 130.27789307 C-43.72357375 137.06165666 -37.50950552 143.13312275 -31.27392578 149.27789307 C-30.20905723 148.3848765 -29.14717537 147.48829837 -28.08642578 146.59039307 C-27.44447266 146.04769775 -26.80251953 145.50500244 -26.14111328 144.94586182 C-24.07288313 143.1617836 -24.07288313 143.1617836 -21.71142578 140.40289307 C-19.27392578 138.27789307 -19.27392578 138.27789307 -16.52001953 137.95758057 C-10.77839908 138.52414239 -6.31747045 141.58800258 -1.27392578 144.27789307 C-0.77892578 153.18789307 -0.77892578 153.18789307 -0.27392578 162.27789307 C8.63607422 162.27789307 17.54607422 162.27789307 26.72607422 162.27789307 C27.05607422 156.33789307 27.38607422 150.39789307 27.72607422 144.27789307 C29.12857422 143.65914307 30.53107422 143.04039307 31.97607422 142.40289307 C35.37849084 140.90468862 35.37849084 140.90468862 38.64794922 139.14508057 C41.62844535 137.9013397 43.51905357 137.79563432 46.72607422 138.27789307 C48.95798093 140.07274233 50.70828339 141.68450755 52.60107422 143.77789307 C53.09865234 144.3025415 53.59623047 144.82718994 54.10888672 145.36773682 C55.32871337 146.65793808 56.52937671 147.96621039 57.72607422 149.27789307 C64.50983781 143.72754104 70.5813039 137.5134728 76.72607422 131.27789307 C75.83305765 130.21302452 74.93647952 129.15114265 74.03857422 128.09039307 C73.49587891 127.44843994 72.95318359 126.80648682 72.39404297 126.14508057 C70.60996476 124.07685042 70.60996476 124.07685042 67.85107422 121.71539307 C65.72607422 119.27789307 65.72607422 119.27789307 65.44091797 116.52008057 C65.75918179 112.90146448 66.70477446 110.28385257 68.16357422 106.96539307 C68.84226562 105.39338135 68.84226562 105.39338135 69.53466797 103.78961182 C70.72607422 101.27789307 70.72607422 101.27789307 71.72607422 100.27789307 C73.06622643 100.12207003 74.41366325 100.02745165 75.76123047 99.96148682 C76.48963135 99.92337891 77.21803223 99.885271 77.96850586 99.8460083 C78.89912842 99.80290527 79.82975098 99.75980225 80.78857422 99.71539307 C85.21263672 99.49883057 85.21263672 99.49883057 89.72607422 99.27789307 C89.72607422 90.69789307 89.72607422 82.11789307 89.72607422 73.27789307 C84.26700283 73.06819189 84.26700283 73.06819189 78.80688477 72.88995361 C78.12408447 72.85684082 77.44128418 72.82372803 76.73779297 72.78961182 C76.04129639 72.76342773 75.3447998 72.73724365 74.62719727 72.71026611 C72.18351491 72.15449862 71.29101687 71.20199815 69.72607422 69.27789307 C68.55810547 66.75445557 68.55810547 66.75445557 67.53857422 63.90289307 C67.19439453 62.96703369 66.85021484 62.03117432 66.49560547 61.06695557 C65.17783413 56.29087063 65.17783413 56.29087063 65.72607422 53.27789307 C67.51270441 51.12871616 69.19002925 49.33885459 71.22607422 47.46539307 C71.75072266 46.96330322 72.27537109 46.46121338 72.81591797 45.94390869 C74.10829954 44.71027173 75.41577021 43.49247681 76.72607422 42.27789307 C72.86932227 37.56408513 68.75418062 33.1696424 64.47607422 28.84039307 C63.6789502 28.02393311 63.6789502 28.02393311 62.86572266 27.190979 C61.52478174 25.84661514 60.12926418 24.55714858 58.72607422 23.27789307 C58.06607422 23.27789307 57.40607422 23.27789307 56.72607422 23.27789307 C55.05729701 24.96594939 55.05729701 24.96594939 53.35107422 27.09039307 C51.020641 29.908472 48.84351923 32.327175 45.72607422 34.27789307 C40.44911352 34.17442325 36.31094218 32.3748774 31.64404297 30.11773682 C29.76969568 29.14418893 29.76969568 29.14418893 27.72607422 29.27789307 C27.39607422 23.00789307 27.06607422 16.73789307 26.72607422 10.27789307 C18.14607422 10.27789307 9.56607422 10.27789307 0.72607422 10.27789307 Z " fill="#FAF7FB" transform="translate(242.27392578125,169.72210693359375)"/>
<path d="M0 0 C5.04461388 0.49375998 8.55623259 1.52632664 12.9140625 4.09765625 C13.99953369 4.73106934 15.08500488 5.36448242 16.20336914 6.01708984 C17.33250732 6.6920752 18.46164551 7.36706055 19.625 8.0625 C20.7930337 8.75036946 21.96157394 9.43737951 23.13061523 10.12353516 C26.43044473 12.06570219 29.71687673 14.02970559 33 16 C34.21792236 16.73017334 34.21792236 16.73017334 35.46044922 17.47509766 C45.54872076 23.54872076 45.54872076 23.54872076 47 25 C47.33203125 27.34985352 47.33203125 27.34985352 47 30 C45.19921875 31.78881836 45.19921875 31.78881836 42.6875 33.40234375 C41.77226562 33.99772949 40.85703125 34.59311523 39.9140625 35.20654297 C38.47160156 36.0943042 38.47160156 36.0943042 37 37 C36.10023438 37.55445801 35.20046875 38.10891602 34.2734375 38.68017578 C31.53102431 40.33540392 28.7702224 41.95429666 26 43.5625 C24.145641 44.64680656 22.29147323 45.73144023 20.4375 46.81640625 C19.53644531 47.3386377 18.63539063 47.86086914 17.70703125 48.39892578 C15.87442525 49.482821 14.05941036 50.59692556 12.26171875 51.73779297 C11.39160156 52.28709473 10.52148438 52.83639648 9.625 53.40234375 C8.85414063 53.90113037 8.08328125 54.39991699 7.2890625 54.91381836 C4.60624375 56.18684104 2.93328151 56.43931777 0 56 C-2.13604308 52.79593538 -2.24208908 52.00399253 -2.1953125 48.33203125 C-2.18886719 47.43935547 -2.18242187 46.54667969 -2.17578125 45.62695312 C-2.15064453 44.23379883 -2.15064453 44.23379883 -2.125 42.8125 C-2.11597656 41.87212891 -2.10695313 40.93175781 -2.09765625 39.96289062 C-2.07409056 37.64167032 -2.04119116 35.32096356 -2 33 C-36.12835568 37.28022146 -68.10040784 48.99995772 -90.33251953 76.65771484 C-93.40079914 80.65358763 -96.23920646 84.7874414 -99 89 C-99.63808594 89.96550781 -100.27617187 90.93101562 -100.93359375 91.92578125 C-117.2933242 118.26895523 -121.3366593 151.9936594 -114.96875 182.109375 C-109.80608716 203.76269227 -98.41468712 223.16120509 -83 239 C-82.12988281 239.89847656 -81.25976562 240.79695312 -80.36328125 241.72265625 C-76.55575733 245.85356181 -76.55575733 245.85356181 -72 249 C-71.95745644 250.99954746 -71.95919217 253.00041636 -72 255 C-73 256 -73 256 -76.0625 256.0625 C-81.49561637 255.22577777 -84.50065721 250.89479091 -88 247 C-88.804375 246.21625 -89.60875 245.4325 -90.4375 244.625 C-91.283125 243.75875 -92.12875 242.8925 -93 242 C-93.64453125 241.35160156 -94.2890625 240.70320312 -94.953125 240.03515625 C-109.19178264 225.07460862 -118.39380834 205.71408056 -124 186 C-124.32097656 184.88625 -124.64195312 183.7725 -124.97265625 182.625 C-132.80257899 149.41156028 -125.59720385 112.94914136 -107.859375 84.14794922 C-88.75643979 54.6737121 -58.76651808 33.28034703 -24.45605469 25.47265625 C-17.05444334 24.04825073 -9.5094529 23.52519138 -2 23 C-2.01047363 22.40985107 -2.02094727 21.81970215 -2.03173828 21.21166992 C-2.07332044 18.53698996 -2.0993329 15.86237803 -2.125 13.1875 C-2.14175781 12.25873047 -2.15851563 11.32996094 -2.17578125 10.37304688 C-2.18222656 9.48037109 -2.18867188 8.58769531 -2.1953125 7.66796875 C-2.20578613 6.84578857 -2.21625977 6.0236084 -2.22705078 5.17651367 C-2 3 -2 3 0 0 Z " fill="#F9F6FA" transform="translate(253,102)"/>
<path d="M0 0 C6.59253847 0.34347679 10.51378113 5.68632801 15 10 C15.67289063 10.60972656 16.34578125 11.21945313 17.0390625 11.84765625 C38.57375224 32.00873409 52.01522744 62.97442295 53.1237793 92.27124023 C53.7466463 119.91695282 53.7466463 119.91695282 50 133 C49.65439481 134.35629945 49.31074518 135.71309828 48.96875 137.0703125 C43.75969465 156.94004542 34.07923633 174.98828141 19.94140625 189.9375 C17.84658539 192.09728338 17.84658539 192.09728338 15.625 195.0625 C11.55370762 199.61847004 6.82199585 203.26705355 2 207 C1.22785156 207.59941406 0.45570313 208.19882812 -0.33984375 208.81640625 C-20.49000094 223.66207762 -46.74378687 234.16230704 -72 233 C-71.98428955 233.62044189 -71.9685791 234.24088379 -71.95239258 234.88012695 C-71.89003786 237.69082528 -71.85100852 240.50137812 -71.8125 243.3125 C-71.78736328 244.28896484 -71.76222656 245.26542969 -71.73632812 246.27148438 C-71.72666016 247.20927734 -71.71699219 248.14707031 -71.70703125 249.11328125 C-71.6913208 249.97735596 -71.67561035 250.84143066 -71.65942383 251.73168945 C-72 254 -72 254 -73.35717773 255.80200195 C-75 257 -75 257 -77.578125 257.0546875 C-82.49431743 255.53942271 -86.44798563 252.90374528 -90.75 250.125 C-92.61386016 248.93896694 -94.47845813 247.75409262 -96.34375 246.5703125 C-97.2821875 245.97250977 -98.220625 245.37470703 -99.1875 244.75878906 C-101.87889972 243.07572972 -104.59799279 241.45968582 -107.34375 239.8671875 C-108.17165039 239.38233887 -108.99955078 238.89749023 -109.85253906 238.39794922 C-111.42037106 237.48375309 -112.99506257 236.58119542 -114.57714844 235.69189453 C-119.78287882 232.62034622 -119.78287882 232.62034622 -120.984375 229.1875 C-120.98953125 228.465625 -120.9946875 227.74375 -121 227 C-113.8829909 221.32623736 -106.172501 216.85030288 -98.3125 212.3125 C-96.99386897 211.54669153 -95.67550759 210.78041855 -94.35742188 210.01367188 C-91.9408709 208.60815706 -89.52255475 207.20589073 -87.1027832 205.8059082 C-85.13672776 204.66160793 -83.18612913 203.48996266 -81.25854492 202.28198242 C-78.59188551 200.76834838 -77.02034636 200.59184509 -74 201 C-72 203 -72 203 -71.77294922 205.15478516 C-71.78865967 206.45875244 -71.78865967 206.45875244 -71.8046875 207.7890625 C-71.81113281 208.73007812 -71.81757813 209.67109375 -71.82421875 210.640625 C-71.84097656 211.62546875 -71.85773438 212.6103125 -71.875 213.625 C-71.88402344 214.61757813 -71.89304687 215.61015625 -71.90234375 216.6328125 C-71.92595884 219.08878134 -71.95889201 221.54427168 -72 224 C-36.57250851 219.06395623 -4.53232424 207.08387631 18.08081055 177.88916016 C30.46644773 161.40196585 38.55502244 143.32071225 42 123 C42.25910156 121.59754028 42.25910156 121.59754028 42.5234375 120.16674805 C47.06747419 89.97171739 40.04787164 58.13796809 22.41015625 33.21875 C20.05652895 30.04688179 17.55665494 27.01079759 15 24 C14.29875 23.15953125 13.5975 22.3190625 12.875 21.453125 C8.61844205 16.49822551 4.0014871 12.19077223 -1 8 C-2 7 -2 7 -2.1875 4.5625 C-2 2 -2 2 0 0 Z " fill="#F9F7FB" transform="translate(333,153)"/>
<path d="M0 0 C6.21026644 4.96317439 10.78663855 11.69201602 12.8125 19.375 C13.96349692 31.42031664 12.20648547 41.06134345 4.5703125 50.55859375 C-2.76923342 58.1427912 -11.63303386 61.42484783 -22 61.9375 C-29.52752882 61.77474262 -34.90877263 59.37840873 -41.1875 55.375 C-41.80367187 54.99214844 -42.41984375 54.60929687 -43.0546875 54.21484375 C-49.43334174 49.60436568 -53.87666566 40.97783915 -55.1875 33.375 C-56.09133343 21.67446535 -53.80862869 12.45408374 -46.1875 3.375 C-32.84098411 -9.37833741 -15.33434185 -10.30093193 0 0 Z " fill="#6D2D90" transform="translate(277.1875,228.625)"/>
<path d="M0 0 C8.00753984 6.21199745 13.82017035 15.64392353 15.67578125 25.640625 C17.03636156 39.73820412 14.47249242 51.787589 5.40625 62.96484375 C-2.12485558 71.0820967 -12.06846949 76.1805434 -23.0625 77.31640625 C-35.62760766 77.78457733 -46.46521276 74.22312339 -56 66 C-64.80840483 57.70872266 -69.92595774 46.97017047 -70.375 34.875 C-70.17483505 23.99103065 -66.84058911 14.45503471 -60 6 C-59.52175781 5.38640625 -59.04351562 4.7728125 -58.55078125 4.140625 C-43.34932365 -13.16682799 -17.65850937 -12.6712128 0 0 Z M-44 4 C-44.69609375 4.42410156 -45.3921875 4.84820312 -46.109375 5.28515625 C-53.32734325 10.15592806 -58.1027871 17.21056936 -60.52734375 25.55859375 C-62.49107181 35.70181721 -60.78384634 44.63671464 -55.52734375 53.4765625 C-50.44799803 60.65729238 -43.3201552 65.2473738 -35 68 C-24.13079291 69.15401458 -14.77044328 67.47653901 -5.6875 61.3125 C-1.4449228 57.86105912 1.36759228 53.75637533 4 49 C4.51240234 48.09507812 4.51240234 48.09507812 5.03515625 47.171875 C8.36047325 40.05724329 8.23292992 30.79240556 6.30859375 23.3125 C5.36986007 21.05011255 4.31069599 19.0678061 3 17 C2.56429687 16.30390625 2.12859375 15.6078125 1.6796875 14.890625 C-3.03808611 8.03309615 -9.23524389 2.81157152 -17.31640625 0.47265625 C-26.67847236 -1.1762666 -35.82699272 -1.16443964 -44 4 Z " fill="#FAF9FB" transform="translate(283,222)"/>
<path d="M0 0 C0 9.9 0 19.8 0 30 C-3.78112046 28.48755181 -6.69072447 27.08310493 -10.08203125 24.9609375 C-11.01337891 24.38085938 -11.94472656 23.80078125 -12.90429688 23.203125 C-13.86400391 22.59984375 -14.82371094 21.9965625 -15.8125 21.375 C-16.79154297 20.76398438 -17.77058594 20.15296875 -18.77929688 19.5234375 C-21.18845472 18.01918285 -23.59524068 16.5112726 -26 15 C-21.47770622 11.08378683 -16.47786582 8.21609552 -11.3125 5.25 C-10.44560547 4.74339844 -9.57871094 4.23679687 -8.68554688 3.71484375 C-7.85732422 3.23660156 -7.02910156 2.75835937 -6.17578125 2.265625 C-5.42208252 1.83024414 -4.66838379 1.39486328 -3.8918457 0.94628906 C-2 0 -2 0 0 0 Z " fill="#582D86" transform="translate(251,367)"/>
<path d="M0 0 C4.34405166 1.44801722 7.20994125 2.53074336 10.9609375 4.8203125 C11.84394531 5.35527344 12.72695313 5.89023438 13.63671875 6.44140625 C14.54035156 6.99699219 15.44398438 7.55257812 16.375 8.125 C17.30183594 8.68832031 18.22867187 9.25164062 19.18359375 9.83203125 C21.45903155 11.21606043 23.7309763 12.60548922 26 14 C21.4070309 17.90165622 16.39945851 21.04525447 11.3125 24.25 C10.44560547 24.80429688 9.57871094 25.35859375 8.68554688 25.9296875 C7.85732422 26.45304687 7.02910156 26.97640625 6.17578125 27.515625 C5.42208252 27.99290039 4.66838379 28.47017578 3.8918457 28.96191406 C2 30 2 30 0 30 C0 20.1 0 10.2 0 0 Z " fill="#882C90" transform="translate(261,115)"/>
</svg>
