<?xml version="1.0" encoding="UTF-8"?>
<svg version="1.1" xmlns="http://www.w3.org/2000/svg" width="512" height="512">
<path d="M0 0 C0.92103516 0.1556543 1.84207031 0.31130859 2.79101562 0.47167969 C29.24381146 5.1152854 54.29356849 14.53933234 78 27 C78.71559082 27.37366699 79.43118164 27.74733398 80.16845703 28.13232422 C93.65390841 35.26244518 106.33588048 44.18989947 118 54 C118.50144531 54.41266113 119.00289063 54.82532227 119.51953125 55.25048828 C133.24177099 66.54513609 146.1974889 78.84697743 157 93 C157.92797212 94.17610747 158.8563872 95.35186552 159.78515625 96.52734375 C167.80548636 106.81059011 174.52913785 117.6915577 181 129 C181.56412598 129.96341309 181.56412598 129.96341309 182.13964844 130.94628906 C196.8404932 156.11027029 205.6544475 185.2944506 210 214 C210.17732666 215.11882568 210.35465332 216.23765137 210.53735352 217.39038086 C212.21876346 229.11235984 212.35733932 240.73499018 212.3125 252.5625 C212.31034485 253.58323608 212.3081897 254.60397217 212.30596924 255.65563965 C212.25632085 270.29244304 211.96734064 284.61818326 209 299 C208.69400879 300.53479004 208.69400879 300.53479004 208.38183594 302.10058594 C199.08923735 347.77905092 178.89413463 390.30094538 147.125 424.6796875 C145.67692309 426.26085972 144.26108665 427.87202641 142.875 429.5078125 C135.26954215 438.46727232 135.26954215 438.46727232 128.83984375 439.26953125 C122.68589409 439.5469213 118.41001592 438.08789904 113.65325928 433.96691895 C112.90368958 433.18957397 112.15411987 432.412229 111.38183594 431.61132812 C110.51943298 430.72610474 109.65703003 429.84088135 108.76849365 428.92883301 C108.31582878 428.45732315 107.86316391 427.98581329 107.39678192 427.50001526 C105.9551663 426.0008758 104.50215891 424.51366559 103.04547119 423.0291748 C98.90694136 418.80889895 94.7833887 414.5744021 90.68164062 410.31835938 C79.35320027 398.57883716 68.51328877 387.90446837 53.99905396 380.11193848 C50.78596098 378.32471223 47.76638706 376.27287331 44.73046875 374.203125 C43.50741653 373.3776358 42.28393327 372.55278494 41.06005859 371.72851562 C40.4169574 371.29482666 39.7738562 370.8611377 39.11126709 370.41430664 C34.96508663 367.63684159 30.78662551 364.90827228 26.61328125 362.171875 C24.74797381 360.94672582 22.88274037 359.72146397 21.01757812 358.49609375 C18.17389502 356.62824398 15.32967076 354.76124761 12.48364258 352.89697266 C0.70040374 345.1762507 -10.95993204 337.3172629 -22.46337891 329.18481445 C-26.41999951 326.39237664 -30.41775044 323.66504375 -34.43327332 320.95812988 C-44.24868473 314.3369644 -53.70220417 307.32792383 -63 300 C-63.5465625 299.57203125 -64.093125 299.1440625 -64.65625 298.703125 C-67.83450912 296.2059214 -70.93996681 293.64051251 -74 291 C-75.19882812 289.98099609 -75.19882812 289.98099609 -76.421875 288.94140625 C-85.83394223 280.33473403 -91.36810798 268.77087021 -92 256 C-92.09660195 242.60452902 -88.08361465 229.90041315 -79.03515625 219.80859375 C-67.78953748 209.09170208 -54.64403466 205.34516557 -39.515625 205.69140625 C-26.78438791 206.33115357 -15.74310089 212.71479276 -7.125 221.875 C-0.71857666 229.29349654 5.16345656 237.13026992 11 245 C11.50869629 245.68384766 12.01739258 246.36769531 12.54150391 247.07226562 C31.00630527 271.99466979 47.8710809 298.15155223 65 324 C65.40186523 324.6059198 65.80373047 325.2118396 66.21777344 325.83612061 C68.73690352 329.63526152 71.24643994 333.44057065 73.75 337.25 C74.36391602 338.1778833 74.97783203 339.1057666 75.61035156 340.06176758 C76.1669043 340.91279053 76.72345703 341.76381348 77.296875 342.640625 C77.77479492 343.36797852 78.25271484 344.09533203 78.74511719 344.84472656 C80.09281207 347.15940563 81.0648363 349.49340963 82 352 C82.66 352 83.32 352 84 352 C84.23460937 351.48953125 84.46921875 350.9790625 84.7109375 350.453125 C86.10739886 347.79561671 87.69838814 345.29699644 89.32470703 342.77539062 C102.20252357 322.71636584 111.61292571 300.76550475 115 277 C115.0913623 276.37254883 115.18272461 275.74509766 115.27685547 275.09863281 C120.78416151 232.66979731 109.52264561 189.93326012 83.70849609 155.90551758 C57.14493292 121.73039194 18.75675399 99.19117131 -24.375 93.6875 C-66.15318164 89.21250244 -109.8002725 100.040218 -142.875 126.5 C-144.59830152 127.98277937 -146.30636351 129.4834255 -148 131 C-148.48662109 131.42780762 -148.97324219 131.85561523 -149.47460938 132.29638672 C-179.92029592 159.08588974 -201.03417488 197.04274252 -204 238 C-205.71865725 281.58610639 -195.91335239 324.95001993 -165.6315918 357.89135742 C-164.2315702 359.39031546 -162.8289626 360.88681271 -161.42578125 362.3828125 C-156.68429479 367.49842592 -153 371.67979955 -153 379 C-154.29321416 388.00741364 -160.6447707 393.47058556 -166.8359375 399.52734375 C-167.91935963 400.60718306 -169.00166796 401.68814089 -170.08291626 402.77015686 C-172.34170134 405.02427171 -174.61013317 407.26801762 -176.88671875 409.50415039 C-179.79956307 412.36587428 -182.69211195 415.24710638 -185.5783596 418.13562679 C-187.80802231 420.36447286 -190.04542408 422.58540898 -192.28551102 424.80377388 C-193.35496193 425.86370564 -194.42262964 426.92543987 -195.48844528 427.98902702 C-196.97890645 429.47296206 -198.47884346 430.94659677 -199.98193359 432.41772461 C-200.83226166 433.25661728 -201.68258972 434.09550995 -202.5586853 434.95982361 C-206.20267542 438.00506092 -209.65005304 439.28971215 -214.375 439.375 C-215.08398438 439.40335937 -215.79296875 439.43171875 -216.5234375 439.4609375 C-223.47161405 438.16774376 -228.07243467 433.33529568 -232.625 428.3125 C-233.22473633 427.65894531 -233.82447266 427.00539063 -234.44238281 426.33203125 C-265.87378012 391.52179994 -286.75439725 348.75669715 -296.1875 302.9375 C-296.3424292 302.19564453 -296.4973584 301.45378906 -296.65698242 300.68945312 C-299.72044583 285.06695707 -300.40730689 269.56845834 -300.375 253.6875 C-300.37445618 252.67798279 -300.37391235 251.66846558 -300.37335205 250.62835693 C-300.33257156 234.11291047 -299.40494321 218.21066065 -296 202 C-295.79101074 200.98470215 -295.58202148 199.9694043 -295.36669922 198.92333984 C-283.3394817 142.31883972 -251.12530288 88.45001444 -205 53 C-204.02160156 52.21625 -203.04320312 51.4325 -202.03515625 50.625 C-167.27336986 22.9419972 -125.64708487 6.20007487 -82 -1 C-81.23365234 -1.13132324 -80.46730469 -1.26264648 -79.67773438 -1.39794922 C-54.05693256 -5.58393265 -25.45271127 -4.43157813 0 0 Z " fill="#9AFE00" transform="translate(300,38)"/>
<path d="M0 0 C8.84619794 1.13828671 15.89237439 13.48242622 21 20 C21.6808667 20.85827393 21.6808667 20.85827393 22.37548828 21.73388672 C30.94088875 32.58068494 38.14109594 44.01341784 45 56 C45.37608398 56.64227539 45.75216797 57.28455078 46.13964844 57.94628906 C60.8404932 83.11027029 69.6544475 112.2944506 74 141 C74.17732666 142.11882568 74.35465332 143.23765137 74.53735352 144.39038086 C76.21876346 156.11235984 76.35733932 167.73499018 76.3125 179.5625 C76.31034485 180.58323608 76.3081897 181.60397217 76.30596924 182.65563965 C76.25632085 197.29244304 75.96734064 211.61818326 73 226 C72.69400879 227.53479004 72.69400879 227.53479004 72.38183594 229.10058594 C63.08923735 274.77905092 42.89413463 317.30094538 11.125 351.6796875 C9.67692309 353.26085972 8.26108665 354.87202641 6.875 356.5078125 C-0.73045785 365.46727232 -0.73045785 365.46727232 -7.16015625 366.26953125 C-13.31410591 366.5469213 -17.58998408 365.08789904 -22.34674072 360.96691895 C-23.09631042 360.18957397 -23.84588013 359.412229 -24.61816406 358.61132812 C-25.48056702 357.72610474 -26.34296997 356.84088135 -27.23150635 355.92883301 C-27.68417122 355.45732315 -28.13683609 354.98581329 -28.60321808 354.50001526 C-30.0448337 353.0008758 -31.49784109 351.51366559 -32.95452881 350.0291748 C-37.09305864 345.80889895 -41.2166113 341.5744021 -45.31835938 337.31835938 C-56.64679973 325.57883716 -67.48671123 314.90446837 -82.00094604 307.11193848 C-85.21403902 305.32471223 -88.23361294 303.27287331 -91.26953125 301.203125 C-92.49258347 300.3776358 -93.71606673 299.55278494 -94.93994141 298.72851562 C-95.5830426 298.29482666 -96.2261438 297.8611377 -96.88873291 297.41430664 C-101.03491337 294.63684159 -105.21337449 291.90827228 -109.38671875 289.171875 C-111.25202619 287.94672582 -113.11725963 286.72146397 -114.98242188 285.49609375 C-117.82610498 283.62824398 -120.67032924 281.76124761 -123.51635742 279.89697266 C-135.29959626 272.1762507 -146.95993204 264.3172629 -158.46337891 256.18481445 C-162.41999951 253.39237664 -166.41775044 250.66504375 -170.43327332 247.95812988 C-180.24868473 241.3369644 -189.70220417 234.32792383 -199 227 C-199.5465625 226.57203125 -200.093125 226.1440625 -200.65625 225.703125 C-203.83450912 223.2059214 -206.93996681 220.64051251 -210 218 C-210.79921875 217.32066406 -211.5984375 216.64132812 -212.421875 215.94140625 C-221.83394223 207.33473403 -227.36810798 195.77087021 -228 183 C-228.09660195 169.60452902 -224.08361465 156.90041315 -215.03515625 146.80859375 C-203.78953748 136.09170208 -190.64403466 132.34516557 -175.515625 132.69140625 C-162.78438791 133.33115357 -151.74310089 139.71479276 -143.125 148.875 C-136.71857666 156.29349654 -130.83654344 164.13026992 -125 172 C-124.49130371 172.68384766 -123.98260742 173.36769531 -123.45849609 174.07226562 C-104.99369473 198.99466979 -88.1289191 225.15155223 -71 251 C-70.59813477 251.6059198 -70.19626953 252.2118396 -69.78222656 252.83612061 C-67.26309648 256.63526152 -64.75356006 260.44057065 -62.25 264.25 C-61.63608398 265.1778833 -61.02216797 266.1057666 -60.38964844 267.06176758 C-59.55481934 268.338302 -59.55481934 268.338302 -58.703125 269.640625 C-58.22520508 270.36797852 -57.74728516 271.09533203 -57.25488281 271.84472656 C-55.90718793 274.15940563 -54.9351637 276.49340963 -54 279 C-53.34 279 -52.68 279 -52 279 C-51.64808594 278.23429688 -51.64808594 278.23429688 -51.2890625 277.453125 C-49.89260114 274.79561671 -48.30161186 272.29699644 -46.67529297 269.77539062 C-33.79747643 249.71636584 -24.38707429 227.76550475 -21 204 C-20.9086377 203.37254883 -20.81727539 202.74509766 -20.72314453 202.09863281 C-15.03837613 158.30260956 -27.30027937 115.45118127 -54.07421875 80.65234375 C-57.08639197 76.82287606 -60.32040365 73.23911811 -63.76953125 69.796875 C-65 68 -65 68 -64.73459339 66.07003498 C-63.48849946 62.55862574 -60.66742596 60.23459561 -58.07495117 57.6550293 C-57.4570018 57.02861038 -56.83905243 56.40219147 -56.20237732 55.75679016 C-54.157031 53.68803931 -52.10066244 51.63068377 -50.04296875 49.57421875 C-48.61878761 48.14293977 -47.19490749 46.71136122 -45.77131653 45.27949524 C-42.78623648 42.28096356 -39.79527563 39.28844466 -36.80053711 36.29956055 C-32.95656183 32.4614914 -29.13117338 28.6054652 -25.31040478 24.74431133 C-22.37570473 21.7838164 -19.42966755 18.83481208 -16.48021889 15.88901711 C-15.06442746 14.47152772 -13.6526372 13.05003058 -12.24489403 11.62454796 C-10.27932446 9.63694527 -8.29865461 7.6657421 -6.31323242 5.69799805 C-5.43948975 4.8043605 -5.43948975 4.8043605 -4.5480957 3.89266968 C-2.90397644 2.28251648 -2.90397644 2.28251648 0 0 Z " fill="#C40050" transform="translate(436,111)"/>
<path d="M0 0 C0.92103516 0.1556543 1.84207031 0.31130859 2.79101562 0.47167969 C29.24381146 5.1152854 54.29356849 14.53933234 78 27 C78.71559082 27.37366699 79.43118164 27.74733398 80.16845703 28.13232422 C93.65101908 35.26091752 106.34290457 44.18536343 118 54 C118.83192871 54.69077637 118.83192871 54.69077637 119.68066406 55.39550781 C121.54349123 56.94371532 123.39781567 58.50158073 125.25 60.0625 C125.8289502 60.54517334 126.40790039 61.02784668 127.00439453 61.52514648 C131.10917493 65.02288189 134.58143873 68.83667696 138 73 C137.57794281 73.35100266 137.15588562 73.70200531 136.72103882 74.06364441 C129.64167129 80.09601153 123.15883943 86.71522873 116.6015625 93.30078125 C115.31763326 94.58657931 114.03348028 95.87215399 112.74911499 97.15751648 C109.39073863 100.51968564 106.03537668 103.88484713 102.68066406 107.25067139 C99.25638711 110.6852171 95.8292443 114.11690053 92.40234375 117.54882812 C86.395506 123.565207 80.39113261 129.58403625 74.38858032 135.60469055 C72.92665898 137.07073043 71.46398206 138.53601794 70 140 C69.2471875 139.26136719 68.494375 138.52273437 67.71875 137.76171875 C59.44231876 129.79500843 50.71314734 123.1227936 41 117 C40.36223633 116.59652344 39.72447266 116.19304687 39.06738281 115.77734375 C3.96060664 93.94593651 -39.522297 87.76917211 -79.66796875 96.5859375 C-104.77651171 102.59418559 -128.66353331 113.73421005 -148 131 C-148.95261719 131.84433594 -149.90523438 132.68867188 -150.88671875 133.55859375 C-153.27189673 135.69094951 -155.64265778 137.83697232 -158 140 C-180.66666667 117.33333333 -203.33333333 94.66666667 -226 72 C-219.36671438 65.10771408 -212.52491528 58.91025734 -205 53 C-204.01386719 52.20851562 -203.02773437 51.41703125 -202.01171875 50.6015625 C-167.08612964 23.02643984 -125.7500652 6.21706263 -82 -1 C-81.23365234 -1.13132324 -80.46730469 -1.26264648 -79.67773438 -1.39794922 C-54.05693256 -5.58393265 -25.45271127 -4.43157813 0 0 Z " fill="#FFAA31" transform="translate(300,38)"/>
<path d="M0 0 C11.77596959 7.99083651 19.99810571 20.64247621 28.375 31.9375 C28.88369629 32.62134766 29.39239258 33.30519531 29.91650391 34.00976562 C55.99752237 69.21196848 81.27072094 106.37221277 103.5012207 144.11865234 C105.9413822 148.25985653 108.53137013 152.26163052 111.28125 156.203125 C113.9604354 160.45154756 113.98036017 165.08632604 113.375 169.9375 C110.72141502 175.05512818 107.84382174 178.11455942 102.375 179.9375 C89.89706085 181.54755666 79.26384874 172.44088956 69.3125 165.8125 C67.66121953 164.7221946 66.0099299 163.63190303 64.35845947 162.54188538 C62.47563756 161.29801313 60.59451653 160.05159349 58.71337891 158.80517578 C54.63079139 156.10308223 50.53795611 153.41676536 46.44380188 150.73223877 C42.59177215 148.20639503 38.74160713 145.67771682 34.89163208 143.14874268 C32.99687075 141.90457879 31.1016049 140.66118282 29.20578003 139.41864014 C17.64916287 131.84082117 6.22215105 124.11301157 -5.06420898 116.13769531 C-9.02984334 113.34049504 -13.03591125 110.60728854 -17.05978394 107.89466858 C-26.8745841 101.27366398 -36.32766889 94.26505757 -45.625 86.9375 C-46.1715625 86.50953125 -46.718125 86.0815625 -47.28125 85.640625 C-50.45950912 83.1434214 -53.56496681 80.57801251 -56.625 77.9375 C-57.42421875 77.25816406 -58.2234375 76.57882812 -59.046875 75.87890625 C-68.45894223 67.27223403 -73.99310798 55.70837021 -74.625 42.9375 C-74.72160195 29.54202902 -70.70861465 16.83791315 -61.66015625 6.74609375 C-44.46424302 -9.6413317 -20.17918941 -11.70787 0 0 Z " fill="#001428" transform="translate(282.625,251.0625)"/>
<path d="M0 0 C0 31.35 0 62.7 0 95 C-13.86 96.485 -13.86 96.485 -28 98 C-61.61180617 105.23044668 -88.69452738 119.74050176 -114 143 C-136.66666667 120.33333333 -159.33333333 97.66666667 -182 75 C-175.36671438 68.10771408 -168.52491528 61.91025734 -161 56 C-160.01386719 55.20851562 -159.02773437 54.41703125 -158.01171875 53.6015625 C-112.73446724 17.8533963 -57.38647781 0 0 0 Z " fill="#FEE600" transform="translate(256,35)"/>
<path d="M0 0 C4.63541216 0.50883085 7.20793943 3.77231946 10.3449707 6.92504883 C10.97138962 7.5429982 11.59780853 8.16094757 12.24320984 8.79762268 C14.31196069 10.842969 16.36931623 12.89933756 18.42578125 14.95703125 C19.85706023 16.38121239 21.28863878 17.80509251 22.72050476 19.22868347 C25.71903644 22.21376352 28.71155534 25.20472437 31.70043945 28.19946289 C35.5385086 32.04343817 39.3945348 35.86882662 43.25568867 39.68959522 C46.2161836 42.62429527 49.16518792 45.57033245 52.11098289 48.51978111 C53.52847228 49.93557254 54.94996942 51.3473628 56.37545204 52.75510597 C58.36305473 54.72067554 60.3342579 56.70134539 62.30200195 58.68676758 C62.89776031 59.2692627 63.49351868 59.85175781 64.10733032 60.4519043 C65.71748352 62.09602356 65.71748352 62.09602356 68 65 C67.52969302 68.80170316 65.83513797 70.49215685 63.1875 73.1875 C44.54739473 93.42532858 32.28733475 118.54693923 26.1875 145.25 C25.99244873 146.08047852 25.79739746 146.91095703 25.59643555 147.76660156 C23.33868376 158.47075515 22.96087274 168.94996352 22 180 C-9.35 180 -40.7 180 -73 180 C-73 153.2169964 -73 153.2169964 -71.375 143.0625 C-71.19606201 141.89485107 -71.01712402 140.72720215 -70.83276367 139.52416992 C-62.65342481 88.6232231 -39.7489415 42.91015536 -5 5 C-3.70255859 3.52660156 -3.70255859 3.52660156 -2.37890625 2.0234375 C-1.59386719 1.35570313 -0.80882813 0.68796875 0 0 Z " fill="#01D200" transform="translate(73,111)"/>
<path d="M0 0 C8.84619794 1.13828671 15.89237439 13.48242622 21 20 C21.45391113 20.57218262 21.90782227 21.14436523 22.37548828 21.73388672 C30.94088875 32.58068494 38.14109594 44.01341784 45 56 C45.37608398 56.64227539 45.75216797 57.28455078 46.13964844 57.94628906 C60.90813988 83.22606361 69.38001073 112.24403026 74 141 C74.11714355 141.68932617 74.23428711 142.37865234 74.35498047 143.08886719 C76.43463894 155.52973645 76 167.16819225 76 180 C44.65 180 13.3 180 -19 180 C-19.66 172.41 -20.32 164.82 -21 157 C-21.61265383 153.02487399 -22.22190949 149.26224877 -23.125 145.375 C-23.33672852 144.44026855 -23.54845703 143.50553711 -23.76660156 142.54248047 C-30.08003902 116.15657413 -42.85374385 92.405267 -61.3293457 72.61645508 C-62.82421875 70.9609375 -62.82421875 70.9609375 -65 68 C-64.52268325 63.36685689 -61.2211755 60.78558791 -58.07495117 57.6550293 C-57.4570018 57.02861038 -56.83905243 56.40219147 -56.20237732 55.75679016 C-54.157031 53.68803931 -52.10066244 51.63068377 -50.04296875 49.57421875 C-48.61878761 48.14293977 -47.19490749 46.71136122 -45.77131653 45.27949524 C-42.78623648 42.28096356 -39.79527563 39.28844466 -36.80053711 36.29956055 C-32.95656183 32.4614914 -29.13117338 28.6054652 -25.31040478 24.74431133 C-22.37570473 21.7838164 -19.42966755 18.83481208 -16.48021889 15.88901711 C-15.06442746 14.47152772 -13.6526372 13.05003058 -12.24489403 11.62454796 C-10.27932446 9.63694527 -8.29865461 7.6657421 -6.31323242 5.69799805 C-5.7307373 5.10223969 -5.14824219 4.50648132 -4.5480957 3.89266968 C-2.90397644 2.28251648 -2.90397644 2.28251648 0 0 Z " fill="#FF1E59" transform="translate(436,111)"/>
<path d="M0 0 C56.33333333 56.33333333 112.66666667 112.66666667 169 169 C168 172 168 172 166 173.1875 C157.2140025 175.56704099 152.23779163 173.33335441 144.39501953 168.97338867 C139.46004248 166.10488446 134.68729637 163.03874207 129.9375 159.875 C128.28621953 158.7846946 126.6349299 157.69440303 124.98345947 156.60438538 C123.10063756 155.36051313 121.21951653 154.11409349 119.33837891 152.86767578 C115.25579139 150.16558223 111.16295611 147.47926536 107.06880188 144.79473877 C103.21677215 142.26889503 99.36660713 139.74021682 95.51663208 137.21124268 C93.62187075 135.96707879 91.7266049 134.72368282 89.83078003 133.48114014 C78.27416287 125.90332117 66.84715105 118.17551157 55.56079102 110.20019531 C51.59515666 107.40299504 47.58908875 104.66978854 43.56521606 101.95716858 C33.7504159 95.33616398 24.29733111 88.32755757 15 81 C14.4534375 80.57203125 13.906875 80.1440625 13.34375 79.703125 C10.16549088 77.2059214 7.06003319 74.64051251 4 72 C3.20078125 71.32066406 2.4015625 70.64132812 1.578125 69.94140625 C-7.83394223 61.33473403 -13.36810798 49.77087021 -14 37 C-14.09293416 24.11312965 -10.38142363 10.80958045 -1.31640625 1.21875 C-0.66478516 0.61546875 -0.66478516 0.61546875 0 0 Z " fill="#003B4F" transform="translate(222,257)"/>
<path d="M0 0 C0.99 0.33 1.98 0.66 3 1 C-2.61 6.61 -8.22 12.22 -14 18 C-14 14.36535685 -13.37451463 13.97159118 -10.9375 11.42578125 C-10.30585937 10.75869141 -9.67421875 10.09160156 -9.0234375 9.40429688 C-8.35570313 8.71400391 -7.68796875 8.02371094 -7 7.3125 C-5.99839844 6.2596582 -5.99839844 6.2596582 -4.9765625 5.18554688 C-3.32422679 3.45059438 -1.6652685 1.72252793 0 0 Z " fill="#25DC00" transform="translate(73,111)"/>
</svg>
