<?xml version="1.0" encoding="UTF-8"?>
<svg version="1.1" xmlns="http://www.w3.org/2000/svg" width="512" height="512">
<path d="M0 0 C1.70607624 -0.00668677 1.70607624 -0.00668677 3.44661868 -0.01350862 C5.32158355 -0.01323207 5.32158355 -0.01323207 7.2344265 -0.01294994 C8.57543779 -0.0162499 9.9164481 -0.01997574 11.25745714 -0.02409142 C14.94602818 -0.03410462 18.63458295 -0.03782712 22.32316566 -0.04048073 C26.30015424 -0.0443858 30.27712997 -0.053964 34.25411034 -0.0626936 C43.86028385 -0.08245225 53.4664584 -0.09252345 63.07264715 -0.10142139 C67.59707779 -0.10580526 72.12150726 -0.11117181 76.64593697 -0.11641026 C91.68737164 -0.13342192 106.72880559 -0.14791594 121.77024841 -0.155159 C125.6732146 -0.15706887 129.57618079 -0.15898921 133.47914696 -0.16094494 C134.44920226 -0.16142868 135.41925757 -0.16191242 136.41870849 -0.16241082 C152.13186081 -0.17071057 167.84493699 -0.19604684 183.55805607 -0.22852562 C199.69254958 -0.26160332 215.8270044 -0.2796084 231.961532 -0.28280324 C241.01959224 -0.28496767 250.07754144 -0.29370659 259.13556862 -0.31926441 C266.85003936 -0.34098111 274.5643721 -0.34901706 282.27886994 -0.33929763 C286.21331222 -0.33475573 290.14746979 -0.33663253 294.08187294 -0.35605907 C297.68825626 -0.3737118 301.29414764 -0.3726764 304.90053634 -0.35716178 C306.81367278 -0.35367022 308.72681451 -0.36979633 310.63987887 -0.38676625 C322.39548664 -0.29928063 331.36094667 3.26940772 340.00697899 11.32172108 C347.44286591 19.02082524 350.43031918 27.83924574 350.81947899 38.38422108 C350.60488479 49.95889566 346.56080449 58.83686269 338.59682274 67.03656483 C330.53268718 74.61973803 322.09456568 77.32189875 311.19447899 77.19672108 C310.44940086 77.19220936 309.70432274 77.18769764 308.93666649 77.1830492 C307.10590259 77.17131354 305.27518026 77.15337958 303.44447899 77.13422108 C303.46018944 78.43343494 303.47589989 79.73264881 303.49208641 81.0712328 C303.54717708 85.98034716 303.58111113 90.88943541 303.60927391 95.79877186 C303.62418305 97.9068918 303.64451748 100.01498175 303.67079735 102.12299061 C303.87428043 118.88840083 302.85701666 134.82197913 297.88197899 150.94672108 C297.50952049 152.16585194 297.50952049 152.16585194 297.12953758 153.4096117 C288.19136208 181.21726882 270.72749115 206.46489959 247.44447899 224.13422108 C246.91870262 224.54027576 246.39292625 224.94633045 245.85121727 225.36468983 C235.78666156 233.09522006 225.14271266 238.96390409 213.42494774 243.82172108 C212.46685204 244.21955799 212.46685204 244.21955799 211.48940086 244.62543201 C209.74550793 245.33784254 207.99174992 246.02596778 206.23744774 246.71234608 C203.27976826 248.21807381 202.03528148 249.25123089 200.44447899 252.13422108 C199.61050255 257.83378529 199.61050255 257.83378529 202.36244774 262.62640858 C206.36251533 265.88121643 210.48361593 267.46622302 215.25697899 269.32172108 C229.59111292 275.18940811 241.80834987 282.88879423 253.44447899 293.13422108 C254.3687368 293.92570545 255.29299461 294.71718983 256.24526024 295.53265858 C262.72625458 301.21585417 268.25885799 307.25419609 273.44447899 314.13422108 C274.1727993 315.09715076 274.90111961 316.06008045 275.65151024 317.05218983 C293.11811865 341.18731074 303.70220556 370.05278587 303.54213524 399.97797108 C303.54001282 401.49251881 303.54001282 401.49251881 303.53784752 403.03766346 C303.5322868 406.23654719 303.51974169 409.4353588 303.50697899 412.63422108 C303.50195891 414.81390756 303.49739689 416.99359515 303.49330711 419.17328358 C303.48233026 424.49362034 303.46563166 429.81391555 303.44447899 435.13422108 C305.07256493 435.10594227 305.07256493 435.10594227 306.73354149 435.07709217 C308.17884942 435.06184136 309.6241623 435.04705479 311.06947899 435.03265858 C312.13875633 435.01223499 312.13875633 435.01223499 313.22963524 434.99139881 C324.30126042 434.9088695 332.47911185 439.46223265 340.35072899 446.94672108 C348.41249198 455.41840422 350.7829028 465.35413266 350.65541649 476.75140858 C349.95783242 487.93859007 344.42965533 496.91289406 336.44057274 504.56390858 C329.9973628 509.63273518 323.02161934 512.25365034 314.88895798 512.26844215 C313.75157381 512.2729 312.61418965 512.27735784 311.4423393 512.28195077 C309.56737443 512.28167423 309.56737443 512.28167423 307.65453148 512.2813921 C306.31352018 512.28469205 304.97250988 512.2884179 303.63150084 512.29253358 C299.9429298 512.30254677 296.25437503 512.30626927 292.56579232 512.30892289 C288.58880374 512.31282796 284.61182801 512.32240615 280.63484764 512.33113575 C271.02867413 512.3508944 261.42249957 512.3609656 251.81631082 512.36986354 C247.29188019 512.37424741 242.76745072 512.37961396 238.24302101 512.38485241 C223.20158633 512.40186407 208.16015238 512.41635809 193.11870956 512.42360115 C189.21574337 512.42551102 185.31277719 512.42743136 181.40981102 512.42938709 C180.43975571 512.42987083 179.46970041 512.43035457 178.47024949 512.43085297 C162.75709717 512.43915272 147.04402098 512.46448899 131.33090191 512.49696777 C115.1964084 512.53004547 99.06195357 512.54805055 82.92742598 512.55124539 C73.86936574 512.55340982 64.81141654 512.56214874 55.75338936 512.58770657 C48.03891861 512.60942327 40.32458588 512.61745922 32.61008804 512.60773978 C28.67564576 512.60319788 24.74148818 512.60507468 20.80708504 512.62450123 C17.20070172 512.64215396 13.59481033 512.64111856 9.98842163 512.62560394 C8.07528519 512.62211237 6.16214347 512.63823849 4.24907911 512.65520841 C-7.46064538 512.56806425 -16.32187147 508.99260291 -25.05552101 501.13422108 C-33.36920414 492.59883973 -35.95028869 482.15223527 -35.83286476 470.61859608 C-34.93137949 459.29289376 -29.8390968 450.99742953 -21.74302101 443.38422108 C-14.09208927 436.95215178 -6.10216632 434.95921543 3.69447899 435.07172108 C4.43955711 435.0762328 5.18463524 435.08074451 5.95229149 435.08539295 C7.78305539 435.09712862 9.61377772 435.11506258 11.44447899 435.13422108 C11.42091331 433.18540028 11.42091331 433.18540028 11.39687157 431.19720936 C11.3417809 426.288095 11.30784685 421.37900674 11.27968407 416.4696703 C11.26477493 414.36155035 11.2444405 412.25346041 11.21816063 410.14545155 C11.01467754 393.38004132 12.03194132 377.44646302 17.00697899 361.32172108 C17.25528465 360.50896717 17.50359032 359.69621326 17.75942039 358.85883045 C22.41715061 344.36811422 29.28783373 330.3119998 38.44447899 318.13422108 C39.06709618 317.30277576 39.68971336 316.47133045 40.33119774 315.61468983 C58.46627886 292.25611678 81.35929751 275.58777782 109.08901024 265.33734608 C111.80688144 263.94911336 112.93349062 262.76989335 114.44447899 260.13422108 C115.06735029 256.03431551 115.06735029 256.03431551 114.44447899 252.13422108 C110.59545235 247.22785313 106.20801 245.51854205 100.56947899 243.38422108 C77.26044558 234.03290673 56.63206627 218.14198233 41.44447899 198.13422108 C40.26111961 196.65115467 40.26111961 196.65115467 39.05385399 195.13812733 C24.54931304 176.44969448 11.5632824 148.25930356 12.12026024 124.05218983 C12.44447899 122.13422108 12.44447899 122.13422108 14.25697899 119.57172108 C16.44447899 118.13422108 16.44447899 118.13422108 19.44447899 118.13422108 C19.11447899 117.47422108 18.78447899 116.81422108 18.44447899 116.13422108 C18.37280549 113.58264453 18.35139457 111.05949136 18.38197899 108.50922108 C18.38649071 107.80281483 18.39100243 107.09640858 18.39565086 106.36859608 C18.40744024 104.62376833 18.42537574 102.87898408 18.44447899 101.13422108 C17.66072899 100.84547108 16.87697899 100.55672108 16.06947899 100.25922108 C13.44447899 99.13422108 13.44447899 99.13422108 11.44447899 97.13422108 C11.21742821 95.0712328 11.21742821 95.0712328 11.24916649 92.56390858 C11.25883446 91.22006092 11.25883446 91.22006092 11.26869774 89.84906483 C11.28545555 88.91191639 11.30221336 87.97476795 11.31947899 87.00922108 C11.32850243 86.06433826 11.33752586 85.11945545 11.34682274 84.14593983 C11.37043377 81.80844816 11.40336383 79.47145984 11.44447899 77.13422108 C10.41709618 77.18062733 9.38971336 77.22703358 8.33119774 77.27484608 C-4.14009005 77.67023298 -14.04757822 75.83640601 -23.55552101 67.13422108 C-30.60015831 60.43604135 -35.06785527 52.05532336 -35.75864601 42.25140858 C-35.95407049 28.73454873 -32.45091906 19.37082319 -23.30552101 9.38422108 C-16.84468719 3.19678557 -8.85297275 0.01610192 0 0 Z " fill="#010100" transform="translate(98.55552101135254,-0.13422107696533203)"/>
<path d="M0 0 C86.46 0 172.92 0 262 0 C262 49.71472772 262 49.71472772 257 66.1875 C256.60941406 67.53811523 256.60941406 67.53811523 256.2109375 68.91601562 C255.06207084 72.81810061 253.85249469 76.37414488 252 80 C251.1455555 80.00879936 251.1455555 80.00879936 250.27384949 80.01777649 C244.35272804 80.08163964 238.43215371 80.16604038 232.51147461 80.26245117 C230.30093594 80.29573508 228.09031157 80.32375612 225.87963867 80.34643555 C222.70454334 80.37991759 219.53023583 80.43223052 216.35546875 80.48828125 C214.86940376 80.49786613 214.86940376 80.49786613 213.35331726 80.50764465 C212.43258926 80.52743881 211.51186127 80.54723297 210.56323242 80.56762695 C209.7527092 80.57873001 208.94218597 80.58983307 208.10710144 80.60127258 C205.48298907 81.09783413 204.5885753 81.88141173 203 84 C202.48402279 87.46441841 202.47636189 89.23988017 204.48339844 92.15332031 C208.05458845 94.77385594 211.43636848 94.60290749 215.703125 94.609375 C216.54091492 94.62591125 217.37870483 94.64244751 218.24188232 94.65948486 C220.91132937 94.70797499 223.58020674 94.72933745 226.25 94.75 C228.06252868 94.77815893 229.8750308 94.80808625 231.6875 94.83984375 C236.12495309 94.91373394 240.56208977 94.96330214 245 95 C230.53495342 121.95469033 206.00788903 143.75629001 177 154 C175.27735212 154.30960031 173.54714751 154.57933468 171.8125 154.8125 C162.07223863 156.50360864 153.13156485 161.23680099 147.30859375 169.359375 C138.25077767 183.76457648 140.73594413 198.74430151 143.34375 214.7421875 C143.75130731 217.25807012 144.13440047 219.77688312 144.515625 222.296875 C146.56645467 235.42522483 149.14812216 248.28781449 160.359375 256.7890625 C162.87871949 258.3773449 165.28934292 259.76105701 168 261 C168.58096436 261.26707764 169.16192871 261.53415527 169.76049805 261.80932617 C177.2654161 264.80113355 185.11432795 264.49304032 193.0625 264.5625 C210.09343653 264.75338223 210.09343653 264.75338223 217 267 C218.06863281 267.33257812 219.13726562 267.66515625 220.23828125 268.0078125 C236.06987653 273.76109871 246.63160591 283.64225652 255 298 C255.40347656 298.680625 255.80695313 299.36125 256.22265625 300.0625 C262.89196975 312.2346311 262.37688997 325.30926803 262.1875 338.75 C262.17242104 340.62238503 262.15873834 342.49478185 262.14648438 344.3671875 C262.11374439 348.91175434 262.06214095 353.45574399 262 358 C261.40753479 358.00364563 260.81506958 358.00729126 260.20465088 358.01104736 C254.04000577 358.05284707 247.87610694 358.12217458 241.71191406 358.20751953 C239.41120873 358.23575104 237.11040601 358.25695466 234.80957031 358.27099609 C231.50274721 358.29239486 228.19709774 358.33903108 224.890625 358.390625 C223.86132874 358.39185364 222.83203247 358.39308228 221.77154541 358.39434814 C216.21817767 358.42662295 216.21817767 358.42662295 211.38183594 360.85058594 C209.84966058 363.03930834 209.84966058 363.03930834 209 366 C203.06 366 197.12 366 191 366 C190.34 364.35 189.68 362.7 189 361 C185.38456974 358.58971316 182.75504779 358.71022387 178.57795715 358.7215271 C177.81585314 358.7157347 177.05374913 358.7099423 176.26855105 358.70397437 C173.70739322 358.6869294 171.1464151 358.68409403 168.58520508 358.68115234 C166.75226904 358.67185726 164.91933725 358.66168923 163.08641052 358.65071106 C158.10328505 358.6233496 153.12018794 358.60824347 148.137007 358.59528303 C142.93193692 358.57967933 137.726925 358.55288036 132.52189636 358.5272522 C122.6622128 358.48041542 112.80251835 358.44369505 102.9427802 358.41057932 C91.71918815 358.37239251 80.49565445 358.32297337 69.27211154 358.27259517 C46.1814509 358.16920246 23.09075281 358.07996596 0 358 C-0.10010303 352.55978549 -0.17204096 347.12012615 -0.21972656 341.67919922 C-0.23963929 339.83470298 -0.26677967 337.99026815 -0.30175781 336.14599609 C-0.67834609 315.75484821 3.07656743 298.44191624 17.69140625 283.2109375 C32.0888238 269.42254777 47.65339578 264.6086936 67.125 264.4375 C82.08688332 264.26921706 95.83384073 263.16615927 107 252 C112.58261757 244.59904414 115.20094028 236.44976177 116.60546875 227.3984375 C116.73440018 226.5995108 116.8633316 225.80058411 116.99617004 224.97744751 C117.26494679 223.29569499 117.52943056 221.6132512 117.78979492 219.93017578 C118.1835817 217.40017432 118.59768941 214.87409092 119.01367188 212.34765625 C121.53916723 196.57627643 123.53183574 181.8587024 113.78515625 168.13671875 C106.87123208 159.86119026 97.83783355 155.82173605 87.3125 154.25 C61.88526912 149.67471801 37.45402396 126.09830422 23.10717773 105.79418945 C20.74143355 102.33100426 18.84515662 98.75907684 17 95 C18.24682619 94.99641747 18.24682619 94.99641747 19.51884079 94.99276257 C39.73240476 94.93365911 59.94584904 94.85813898 80.15928268 94.76428509 C89.9343025 94.71929528 99.70928563 94.679888 109.484375 94.65356445 C118.0030883 94.63061013 126.52168579 94.59724094 135.04030728 94.55129844 C139.55200251 94.52733152 144.0635828 94.50862552 148.57534027 94.50238609 C152.82053966 94.49635087 157.06544482 94.47640798 161.31053543 94.44572449 C162.86978998 94.43691911 164.42908294 94.43322684 165.98836136 94.43499184 C168.115528 94.43663964 170.24179239 94.41998919 172.36883545 94.39872742 C173.55979198 94.39411845 174.75074852 94.38950949 175.97779465 94.38476086 C179.28959346 93.96313148 180.70876193 93.4062102 183 91 C183.60031486 86.43666697 183.60031486 86.43666697 181.9009428 82.30617046 C179.02225366 80.32817369 176.61415404 80.61397126 173.14741516 80.60127258 C172.44656443 80.59462576 171.7457137 80.58797893 171.02362508 80.58113068 C168.66965616 80.56244304 166.31619295 80.56510974 163.9621582 80.56762695 C162.27700072 80.55861328 160.59184982 80.54828704 158.90670776 80.53674316 C154.3264358 80.50910054 149.74628798 80.49987882 145.16594338 80.49388909 C140.38126443 80.48452427 135.59667892 80.45832248 130.8120575 80.43388367 C121.74922984 80.39016278 112.68642026 80.36165018 103.62351912 80.33856028 C93.30678451 80.31153852 82.99014363 80.26762519 72.67347586 80.22227156 C51.44903428 80.12934526 30.22456464 80.05770113 9 80 C8.18820618 77.62074374 7.38104297 75.24007823 6.57641602 72.85839844 C6.34818398 72.19101654 6.11995193 71.52363464 5.88480377 70.83602905 C3.76148795 64.52987634 2.5563967 58.20620094 1.52929688 51.640625 C0.77523316 46.85052237 0.77523316 46.85052237 -1.93359375 42.984375 C-4.11391033 41.89397051 -4.11391033 41.89397051 -7 41 C-8.53266582 37.93466836 -8.10276471 34.73245728 -8.0625 31.375 C-8.05798828 30.66859375 -8.05347656 29.9621875 -8.04882812 29.234375 C-8.03703875 27.48954725 -8.01910324 25.744763 -8 24 C-7.030625 23.54625 -6.06125 23.0925 -5.0625 22.625 C-1.92920418 21.34213779 -1.92920418 21.34213779 -1 19 C-0.67 12.73 -0.34 6.46 0 0 Z " fill="#FDD302" transform="translate(125,77)"/>
<path d="M0 0 C86.46 0 172.92 0 262 0 C262 49.71472772 262 49.71472772 257 66.1875 C256.60941406 67.53811523 256.60941406 67.53811523 256.2109375 68.91601562 C255.06207084 72.81810061 253.85249469 76.37414488 252 80 C251.1455555 80.00879936 251.1455555 80.00879936 250.27384949 80.01777649 C244.35272804 80.08163964 238.43215371 80.16604038 232.51147461 80.26245117 C230.30093594 80.29573508 228.09031157 80.32375612 225.87963867 80.34643555 C222.70454334 80.37991759 219.53023583 80.43223052 216.35546875 80.48828125 C214.86940376 80.49786613 214.86940376 80.49786613 213.35331726 80.50764465 C212.43258926 80.52743881 211.51186127 80.54723297 210.56323242 80.56762695 C209.7527092 80.57873001 208.94218597 80.58983307 208.10710144 80.60127258 C205.47875804 81.09863477 204.615441 81.89994021 203 84 C202.67 84.99 202.34 85.98 202 87 C199.22754986 87.13487595 196.46162912 87.23400807 193.6875 87.3125 C192.90181641 87.35439453 192.11613281 87.39628906 191.30664062 87.43945312 C189.09879882 87.48642848 187.15692247 87.48078405 185 87 C183.08203125 84.54296875 183.08203125 84.54296875 182 82 C179.08555226 80.54277613 176.52412691 80.85846917 173.26766968 80.84178162 C172.56767337 80.83684364 171.86767707 80.83190566 171.14646876 80.82681805 C168.78954284 80.81140073 166.43264424 80.80307102 164.07568359 80.79467773 C162.39067848 80.78510253 160.7056758 80.77509267 159.02067566 80.76467896 C154.436245 80.73758502 149.851804 80.7165998 145.26733732 80.69667697 C140.48001427 80.67484505 135.69272325 80.64744272 130.90542603 80.62062073 C121.83548091 80.57065598 112.76551806 80.52573121 103.69553816 80.48259836 C93.3716042 80.43325827 83.04770237 80.37832819 72.72379947 80.32291877 C51.48256291 80.20904068 30.24129568 80.10221436 9 80 C8.18820618 77.62074374 7.38104297 75.24007823 6.57641602 72.85839844 C6.34818398 72.19101654 6.11995193 71.52363464 5.88480377 70.83602905 C3.76148795 64.52987634 2.5563967 58.20620094 1.52929688 51.640625 C0.77523316 46.85052237 0.77523316 46.85052237 -1.93359375 42.984375 C-4.11391033 41.89397051 -4.11391033 41.89397051 -7 41 C-8.53266582 37.93466836 -8.10276471 34.73245728 -8.0625 31.375 C-8.05798828 30.66859375 -8.05347656 29.9621875 -8.04882812 29.234375 C-8.03703875 27.48954725 -8.01910324 25.744763 -8 24 C-7.030625 23.54625 -6.06125 23.0925 -5.0625 22.625 C-1.92920418 21.34213779 -1.92920418 21.34213779 -1 19 C-0.67 12.73 -0.34 6.46 0 0 Z " fill="#EEECEE" transform="translate(125,77)"/>
<path d="M0 0 C2.91889148 -0.16216064 5.82879225 -0.28091202 8.75 -0.375 C9.575 -0.42527344 10.4 -0.47554688 11.25 -0.52734375 C12.04921875 -0.54667969 12.8484375 -0.56601562 13.671875 -0.5859375 C14.77160645 -0.63306885 14.77160645 -0.63306885 15.89355469 -0.68115234 C18 0 18 0 19.67141724 2.9992218 C21.73034889 6.31510541 21.73034889 6.31510541 25.33694458 6.72584534 C26.67911622 6.74566762 28.02201948 6.73264768 29.36376953 6.69360352 C30.09931564 6.69620178 30.83486176 6.69880005 31.59269714 6.70147705 C33.18762374 6.70319027 34.78261181 6.69108453 36.37735367 6.66674995 C38.90986519 6.62849763 41.44010742 6.6268495 43.97286987 6.63450623 C49.35726766 6.64383633 54.74080087 6.60497368 60.125 6.5625 C66.34652858 6.51766567 72.56727813 6.49291624 78.78896713 6.50706291 C81.269889 6.50396913 83.74912669 6.47034066 86.22976685 6.43495178 C95.65810928 6.38591775 103.78239439 6.99770745 110.92312622 13.84376526 C116.77526487 20.22238233 117.62285737 25.70490222 117.37890625 34.2890625 C116.71466489 40.79451917 113.82177097 44.50712661 109.125 48.8125 C101.42977088 54.19916038 95.32631861 54.43329687 86.10157776 54.38768005 C84.79858811 54.39306559 83.49559846 54.39845113 82.15312427 54.40399987 C78.54721046 54.41843645 74.94152555 54.41421543 71.3355993 54.40683305 C67.44253233 54.40209925 63.54951473 54.41461308 59.65646362 54.42485046 C52.03394923 54.44203947 44.41151728 54.44287829 36.78898854 54.43763756 C30.59308629 54.43359493 24.39720839 54.43504052 18.2013073 54.44038582 C17.31922527 54.44113424 16.43714325 54.44188266 15.52833147 54.44265376 C13.73634505 54.44418525 11.94435864 54.4457236 10.15237223 54.44726873 C-6.6493344 54.46099406 -23.45099447 54.45555578 -40.25270004 54.44408352 C-55.62106346 54.43415039 -70.98930649 54.44709312 -86.35765135 54.47101771 C-102.14193733 54.49540451 -117.92616724 54.50501766 -133.71047169 54.49836498 C-142.57055574 54.49487192 -151.43054719 54.49711061 -160.29061699 54.51461601 C-167.83271322 54.52933271 -175.37465164 54.52998039 -182.91674476 54.5125451 C-186.76386456 54.50402842 -190.61070239 54.50190165 -194.45780754 54.51719666 C-198.63029865 54.53357981 -202.80210853 54.51890672 -206.97459412 54.50120544 C-208.18772905 54.51081045 -209.40086399 54.52041546 -210.65076059 54.53031152 C-218.60513029 54.46078403 -224.12913882 53.45275422 -230.2421875 48 C-230.78101563 47.34 -231.31984375 46.68 -231.875 46 C-232.42929688 45.34 -232.98359375 44.68 -233.5546875 44 C-238.19905581 37.57319845 -237.77999311 30.63910782 -237 23 C-234.5896278 16.15164636 -229.1849666 11.63938473 -222.86617661 8.38694 C-218.58492773 6.61834002 -214.59814002 6.58265995 -210.01617432 6.62145996 C-209.13434628 6.61692983 -208.25251825 6.6123997 -207.34396815 6.6077323 C-204.40136066 6.59614322 -201.45921077 6.60574106 -198.51660156 6.61523438 C-196.40223396 6.61112782 -194.28786862 6.60566644 -192.17350769 6.59895325 C-187.62712283 6.58723949 -183.08085933 6.58473981 -178.53446198 6.58930969 C-171.34995829 6.59611868 -164.16561446 6.58025399 -156.98114014 6.56091309 C-140.43944288 6.51984435 -123.89775007 6.50849968 -107.35601044 6.49738312 C-92.18385171 6.48688488 -77.01176973 6.47017421 -61.8396585 6.42928743 C-54.69267224 6.41088896 -47.54586861 6.40705356 -40.39886427 6.41422272 C-35.96173038 6.41573995 -31.52468869 6.40499055 -27.08757973 6.39084435 C-25.02476409 6.38682761 -22.96193114 6.38799052 -20.89912224 6.39461708 C-18.09115109 6.40294726 -15.28382304 6.39306776 -12.47589111 6.37854004 C-11.65285059 6.38543397 -10.82981007 6.39232791 -9.98182893 6.39943075 C-5.7675295 6.39662668 -5.7675295 6.39662668 -2.03275681 4.66384125 C-0.82526165 2.8618387 -0.82526165 2.8618387 0 0 Z " fill="#B87F7F" transform="translate(316,443)"/>
<path d="M0 0 C1.67248716 -0.01059839 1.67248716 -0.01059839 3.37876195 -0.02141088 C4.59858905 -0.0189958 5.81841615 -0.01658071 7.07520771 -0.01409245 C9.02501221 -0.02194746 9.02501221 -0.02194746 11.01420671 -0.02996117 C14.62072662 -0.04413809 18.22716033 -0.04580452 21.83370411 -0.04536426 C25.72411418 -0.04701276 29.61448877 -0.06007995 33.50487995 -0.07155704 C42.01118186 -0.09440432 50.51745882 -0.10232746 59.02378726 -0.10738349 C64.33646659 -0.11064102 69.64913869 -0.11716387 74.96181393 -0.12438488 C89.6747381 -0.14395096 104.38765554 -0.16035495 119.10059357 -0.16326141 C120.04207033 -0.16344898 120.98354709 -0.16363655 121.95355346 -0.16382981 C123.86211447 -0.16419606 125.77067548 -0.16455975 127.67923649 -0.16492092 C128.62663383 -0.16510373 129.57403117 -0.16528654 130.55013752 -0.16547489 C131.49869302 -0.16565544 132.44724852 -0.16583599 133.42454813 -0.16602201 C148.79170418 -0.16956302 164.15872005 -0.19658082 179.52582749 -0.23397278 C195.30779477 -0.27206646 211.08969251 -0.29141897 226.87170678 -0.29172093 C235.73080098 -0.29230528 244.58972798 -0.300783 253.44877911 -0.32971859 C260.99307522 -0.35424675 268.53714315 -0.36150578 276.08146837 -0.34647106 C279.92889022 -0.33930779 283.77586164 -0.34013384 287.62323284 -0.36288166 C291.79961185 -0.38733755 295.97496858 -0.37281969 300.15137959 -0.35466862 C301.36005308 -0.36786858 302.56872657 -0.38106855 303.81402653 -0.39466852 C312.1468329 -0.31201757 319.16626871 1.20879659 325.3710677 7.10336405 C331.1367465 13.45871407 332.13169079 18.94003828 331.8799715 27.47881222 C331.07569237 34.2487444 327.72601774 38.02365018 322.99325275 42.63506222 C315.43927878 47.42538717 309.41449355 47.69335176 300.58375263 47.6544714 C298.63751018 47.66360805 298.63751018 47.66360805 296.6519497 47.67292929 C293.06130561 47.68930147 289.47088147 47.68701649 285.88021314 47.68155432 C282.00346246 47.67888073 278.12676996 47.69342213 274.25004292 47.70564938 C266.65894781 47.72669209 259.0679291 47.73124488 251.47680827 47.72946149 C245.30523579 47.72815321 239.13368711 47.73196136 232.9621191 47.73938656 C231.1835317 47.74148579 229.4049443 47.74358339 227.6263569 47.74567938 C226.74106344 47.74672291 225.85576998 47.74776643 224.94364945 47.74884158 C208.20435854 47.76773948 191.46511147 47.76669522 174.72581432 47.75987226 C159.42021149 47.75429783 144.11477611 47.77511874 128.80921241 47.80823272 C113.08593555 47.84198586 97.36273886 47.85713599 81.6394251 47.8525157 C72.81502148 47.85027256 63.99077259 47.85549133 55.16639996 47.88040829 C47.65325027 47.90144246 40.14034014 47.90499255 32.62718054 47.8861087 C28.79595346 47.87696357 24.9651728 47.87576965 21.13398075 47.89646435 C16.97520889 47.91867948 12.81748481 47.90192628 8.6587038 47.88152218 C7.4552855 47.89404003 6.25186719 47.90655787 5.01198167 47.91945505 C-3.30423761 47.83205666 -10.31779483 46.29847211 -16.50976306 40.41678667 C-22.32532586 34.00552718 -23.19569139 28.56523126 -22.94424725 19.96709347 C-22.17845511 12.39691911 -18.03252977 8.23141869 -12.41299725 3.48662472 C-8.3901116 0.810383 -4.78911834 0.00971502 0 0 Z " fill="#B87F7F" transform="translate(101.56924724578857,14.739937782287598)"/>
<path d="M0 0 C86.46 0 172.92 0 262 0 C262 49.71472772 262 49.71472772 257 66.1875 C256.60941406 67.53811523 256.60941406 67.53811523 256.2109375 68.91601562 C255.0461991 72.87200844 253.85731774 76.28536452 252 80 C237.48 80 222.96 80 208 80 C208 79.67 208 79.34 208 79 C215.59 79 223.18 79 231 79 C231.66 76.03 232.32 73.06 233 70 C233.47605193 68.38856423 233.97123494 66.78241636 234.5 65.1875 C237.38989988 55.53494102 238.22733928 46.2339563 238.375 36.1875 C238.40102295 35.19661377 238.4270459 34.20572754 238.45385742 33.18481445 C238.46927173 26.88886759 237.75096459 23.11187412 234 18 C227.75848491 13.05880056 222.79312297 12.8506255 215.05303955 12.84178162 C214.13898968 12.83684364 213.2249398 12.83190566 212.28319144 12.82681805 C209.21386125 12.81143393 206.14455198 12.80307992 203.07519531 12.79467773 C200.87758703 12.78509993 198.67998059 12.77508991 196.4823761 12.76467896 C190.50967475 12.73761324 184.53696548 12.71661267 178.56423664 12.69667697 C172.32485317 12.67482772 166.08549413 12.64743384 159.84613037 12.62062073 C149.37155235 12.57635721 138.89696491 12.53552438 128.42236328 12.49731445 C117.63361634 12.45794918 106.84488058 12.41652049 96.05615234 12.37231445 C95.39110322 12.36959018 94.7260541 12.36686591 94.04085198 12.36405908 C90.70448649 12.35037943 87.36812118 12.33665698 84.03175592 12.32291877 C56.35452683 12.20907675 28.67727421 12.10224253 1 12 C1 13.65 1 15.3 1 17 C0.67 17 0.34 17 0 17 C0 11.39 0 5.78 0 0 Z " fill="#D5CED4" transform="translate(125,77)"/>
<path d="M0 0 C7.26 0 14.52 0 22 0 C7.05813796 26.89535168 -16.69992726 48.65310963 -46 59 C-47.72264788 59.30960031 -49.45285249 59.57933468 -51.1875 59.8125 C-60.92776137 61.50360864 -69.86843515 66.23680099 -75.69140625 74.359375 C-84.74922233 88.76457648 -82.26405587 103.74430151 -79.65625 119.7421875 C-79.24869269 122.25807012 -78.86559953 124.77688312 -78.484375 127.296875 C-76.08307286 142.67536821 -76.08307286 142.67536821 -68.375 156 C-67.78460938 156.721875 -67.19421875 157.44375 -66.5859375 158.1875 C-65.43708013 159.50047985 -64.23365095 160.76634905 -63 162 C-73.69789593 162.60364303 -81.75147193 161.63118447 -90.3125 154.875 C-99.04444855 146.49514614 -100.5309295 135.48980343 -102 124 C-102 122.68 -102 121.36 -102 120 C-102.66 120 -103.32 120 -104 120 C-103.85711146 118.29141784 -103.71053911 116.5831436 -103.5625 114.875 C-103.48128906 113.92367187 -103.40007812 112.97234375 -103.31640625 111.9921875 C-103 109 -103 109 -102.47265625 106.0703125 C-101.9494825 102.671845 -101.86746158 99.43752065 -101.875 96 C-101.87242187 94.824375 -101.86984375 93.64875 -101.8671875 92.4375 C-101.91771232 89.01293245 -101.91771232 89.01293245 -102.59765625 85.74609375 C-103 83 -103 83 -101.5625 80.0625 C-94.86632639 72.05975593 -88.62527945 67.92937755 -78.375 66.1875 C-50.9326691 60.99231064 -24.83870425 37.95701693 -9.16699219 15.74560547 C-5.78267281 10.68328674 -2.91436463 5.34300182 0 0 Z " fill="#F6C300" transform="translate(348,172)"/>
<path d="M0 0 C0.99 0.495 0.99 0.495 2 1 C5.27831501 10.83494504 2.4176817 22.51589671 0.65625 32.49487305 C0.24797897 34.82402984 -0.134682 37.15647013 -0.515625 39.49023438 C-3.60333675 57.77147542 -3.60333675 57.77147542 -10.875 63.875 C-11.51179688 64.42929687 -12.14859375 64.98359375 -12.8046875 65.5546875 C-17.6395072 68.73775385 -22.3723061 69.24550618 -28.05859375 69.2734375 C-29.42904412 69.29376042 -30.79948674 69.31461174 -32.16992188 69.3359375 C-34.28872227 69.35827389 -36.40721133 69.37491503 -38.52612305 69.38085938 C-52.15434489 69.44504504 -64.54282653 71.47765531 -76.6875 78.125 C-77.34943359 78.47175781 -78.01136719 78.81851563 -78.69335938 79.17578125 C-80.46778789 80.10668746 -82.23433799 81.0525716 -84 82 C-85.33035913 82.6725822 -86.66195798 83.34283506 -88 84 C-79.67526053 64.03902248 -61.2725402 46.04055122 -43 35 C-42.38157227 34.62294922 -41.76314453 34.24589844 -41.12597656 33.85742188 C-33.9491476 29.52060238 -26.79221957 25.76280452 -18.9375 22.8125 C-11.14891456 19.81184498 -6.24253351 17.10413243 -2.625 9.4375 C-1.39834821 6.33417582 -0.42904415 3.32509217 0 0 Z " fill="#EBE9EB" transform="translate(229,258)"/>
<path d="M0 0 C0.66 0 1.32 0 2 0 C2.23074219 0.65226562 2.46148437 1.30453125 2.69921875 1.9765625 C6.41199346 11.92621171 10.08131598 15.98917599 19.62890625 20.51171875 C23.02071659 22.00914603 26.44261654 23.4109756 29.875 24.8125 C54.40782915 35.18344212 76.12475324 55.77566248 89 79 C89 79.66 89 80.32 89 81 C84.93781696 79.46810734 81.16123052 77.5665982 77.3125 75.5625 C67.00523448 70.31491905 57.41978616 67.93150737 45.81640625 67.82421875 C44.46287494 67.801028 43.10935925 67.77691097 41.75585938 67.75195312 C39.65833885 67.71690049 37.56140072 67.68749297 35.46362305 67.67407227 C26.18511078 67.60337677 19.03457605 67.41183233 11.7578125 61.03515625 C11.21898437 60.38417969 10.68015625 59.73320312 10.125 59.0625 C9.57070313 58.41410156 9.01640625 57.76570313 8.4453125 57.09765625 C5.27930638 52.50266899 4.39689363 47.4754906 3.4921875 42.05859375 C3.36184113 41.29507095 3.23149475 40.53154816 3.09719849 39.74488831 C2.82374931 38.13079373 2.55329243 36.51618972 2.28564453 34.90112305 C1.88005492 32.46782653 1.45818492 30.03773886 1.03515625 27.60742188 C-2.72736551 5.45473101 -2.72736551 5.45473101 0 0 Z " fill="#ECEAEC" transform="translate(281,260)"/>
<path d="M0 0 C16.55995067 0.06167579 29.79477511 7.25656193 41.75 18.3125 C45.91785198 22.6902438 48.96875521 27.79926081 52 33 C52.40347656 33.680625 52.80695313 34.36125 53.22265625 35.0625 C59.89196975 47.2346311 59.37688997 60.30926803 59.1875 73.75 C59.17242104 75.62238503 59.15873834 77.49478185 59.14648438 79.3671875 C59.11631973 83.91199419 59.05755696 88.45513177 59 93 C51.41 93 43.82 93 36 93 C35.97421875 90.14214844 35.9484375 87.28429687 35.921875 84.33984375 C35.8832763 81.51968239 35.83817416 78.699693 35.79248047 75.87963867 C35.76454915 73.94515429 35.74319881 72.01056168 35.72900391 70.07592773 C35.54858031 46.85541049 30.96757361 27.91119857 13.92578125 10.93359375 C10.06041565 7.41755392 5.98459179 4.56797446 1.46875 1.9453125 C0.74171875 1.47738281 0.74171875 1.47738281 0 1 C0 0.67 0 0.34 0 0 Z " fill="#F7C300" transform="translate(328,342)"/>
<path d="M0 0 C9.11099863 -0.5907708 16.44473945 -0.55533864 24 5 C28.41806471 9.12352706 31.66749776 13.25365942 32.40625 19.35546875 C32.61258192 27.78928593 32.03776515 33.63159533 26 40 C18.54830669 47.26062425 10.9835172 47.43183758 1.08570862 47.36076355 C-0.21884201 47.36332682 -1.52339263 47.3658901 -2.86747509 47.36853105 C-6.47746087 47.37522333 -10.08717846 47.36326088 -13.69713008 47.34819686 C-17.59411204 47.33522251 -21.4910793 47.33962695 -25.38807678 47.34190369 C-32.13622549 47.34347554 -38.88428707 47.33407557 -45.63241386 47.31719017 C-55.38901741 47.29279277 -65.1455789 47.28499414 -74.90220965 47.2812262 C-90.73227496 47.27466288 -106.56229386 47.25470495 -122.39233398 47.22631836 C-137.76830819 47.1987747 -153.14426977 47.17754262 -168.52026367 47.16479492 C-169.4682892 47.16400675 -170.41631473 47.16321858 -171.39306831 47.16240653 C-176.14910844 47.15849137 -180.90514867 47.15470026 -185.66118896 47.15097082 C-225.1074918 47.11987863 -264.55374284 47.06704607 -304 47 C-304 46.67 -304 46.34 -304 46 C-303.03536136 46.00195227 -303.03536136 46.00195227 -302.05123508 46.00394398 C-263.94770203 46.07991832 -225.84440065 46.10910079 -187.74079954 46.07740569 C-183.16704367 46.07364171 -178.59328759 46.07026921 -174.01953125 46.06713867 C-173.10896761 46.06650885 -172.19840396 46.06587903 -171.26024748 46.06523012 C-156.51083616 46.0559621 -141.76163472 46.07841776 -127.01226734 46.11256976 C-111.88128291 46.14690027 -96.75057459 46.14720325 -81.6195823 46.11582941 C-72.28055986 46.0975403 -62.94233726 46.10588448 -53.60338934 46.14815276 C-47.20180069 46.17458551 -40.80077978 46.16800558 -34.39922194 46.13534261 C-30.70385855 46.11746641 -27.00999841 46.11426371 -23.31473351 46.15022469 C-19.3088138 46.18882864 -15.30643342 46.15796674 -11.30050659 46.12025452 C-10.13124441 46.14257914 -8.96198223 46.16490377 -7.75728786 46.18790489 C-1.7907055 46.15003549 -1.7907055 46.15003549 3.0404489 43.03813064 C8.56256504 34.96502068 9.99679002 26.64794294 9 17 C7.28433057 10.47118227 4.12859703 5.27542954 0 0 Z " fill="#A66969" transform="translate(401,15)"/>
<path d="M0 0 C0.66 0 1.32 0 2 0 C2.23074219 0.65226562 2.46148437 1.30453125 2.69921875 1.9765625 C6.41199346 11.92621171 10.08131598 15.98917599 19.62890625 20.51171875 C23.02071659 22.00914603 26.44261654 23.4109756 29.875 24.8125 C54.40782915 35.18344212 76.12475324 55.77566248 89 79 C89 79.66 89 80.32 89 81 C84.93781696 79.46810734 81.16123052 77.5665982 77.3125 75.5625 C73.08149173 73.3707063 69.03068629 71.59993183 64.375 70.5 C60.69553844 69.49813689 60.22051018 69.32074208 57.9375 66 C57.65777344 65.38511719 57.37804687 64.77023437 57.08984375 64.13671875 C46.90879125 44.17601726 21.57803087 25.68807473 1 18 C0.67 18.66 0.34 19.32 0 20 C-1.27472414 14.26374136 -2.70914967 5.41829933 0 0 Z " fill="#D3CCD2" transform="translate(281,260)"/>
<path d="M0 0 C9.47559092 -0.11626848 18.95093322 -0.20490389 28.42708397 -0.25906086 C32.82811197 -0.28506437 37.22864901 -0.32029107 41.62939453 -0.37719727 C45.88289789 -0.43185014 50.13593146 -0.46148994 54.38975906 -0.47438622 C56.00598157 -0.48356685 57.62218073 -0.50149374 59.23820114 -0.52865028 C69.26954948 -0.69039362 78.24740079 -0.50952972 85.92514038 6.84379578 C91.77312175 13.22592035 92.62289437 18.70360018 92.37890625 27.2890625 C91.71466489 33.79451917 88.82177097 37.50712661 84.125 41.8125 C76.02488866 47.48257794 69.77277536 47.36597078 60 47 C60.48210937 46.27554688 60.96421875 45.55109375 61.4609375 44.8046875 C62.09257812 43.83789062 62.72421875 42.87109375 63.375 41.875 C64.00148438 40.92367187 64.62796875 39.97234375 65.2734375 38.9921875 C69.7176238 31.29027188 70.49744203 22.71189228 68.2421875 14.109375 C66.47015045 9.4490571 64.47735298 5.63356202 61 2 C58.15215222 1.24277839 58.15215222 1.24277839 54.94628906 1.34057617 C53.11484344 1.31111153 53.11484344 1.31111153 51.24639893 1.28105164 C49.27591583 1.28695061 49.27591583 1.28695061 47.265625 1.29296875 C45.9036844 1.27984987 44.54176325 1.26454504 43.17987061 1.24714661 C39.60249566 1.20730419 36.02562973 1.19710683 32.44805908 1.19311523 C28.7946428 1.1837821 25.14152542 1.14636763 21.48828125 1.11132812 C14.3255183 1.04676044 7.16306053 1.01351395 0 1 C0 0.67 0 0.34 0 0 Z " fill="#AA6A6A" transform="translate(341,450)"/>
<path d="M0 0 C0.66 0.66 1.32 1.32 2 2 C-3.445 4.475 -3.445 4.475 -9 7 C-6.45170261 1.90340522 -5.10645833 1.89128086 0 0 Z " fill="#E8B800" transform="translate(289,231)"/>
</svg>
