<?xml version="1.0" encoding="UTF-8"?>
<svg xmlns="http://www.w3.org/2000/svg" width="814" height="1000" viewBox="0 0 814 1000">
  <path d="M529.1,40.7 h40.7v40.7h-40.7z M569.8,40.7 h40.7v40.7h-40.7z M488.4,81.4 h40.7v40.7h-40.7z M529.1,81.4 h40.7v40.7h-40.7z M569.8,81.4 h40.7v40.7h-40.7z M447.7,122.1 h40.7v40.7h-40.7z M488.4,122.1 h40.7v40.7h-40.7z M529.1,122.1 h40.7v40.7h-40.7z M569.8,122.1 h40.7v40.7h-40.7z M447.7,162.8 h40.7v40.7h-40.7z M488.4,162.8 h40.7v40.7h-40.7z M529.1,162.8 h40.7v40.7h-40.7z M407,203.5 h40.7v40.7h-40.7z M447.7,203.5 h40.7v40.7h-40.7z M488.4,203.5 h40.7v40.7h-40.7z M244.2,244.2 h40.7v40.7h-40.7z M569.8,244.2 h40.7v40.7h-40.7z M610.5,244.2 h40.7v40.7h-40.7z M122.1,284.9 h40.7v40.7h-40.7z M162.8,284.9 h40.7v40.7h-40.7z M203.5,284.9 h40.7v40.7h-40.7z M244.2,284.9 h40.7v40.7h-40.7z M284.9,284.9 h40.7v40.7h-40.7z M325.6,284.9 h40.7v40.7h-40.7z M366.3,284.9 h40.7v40.7h-40.7z M447.7,284.9 h40.7v40.7h-40.7z M488.4,284.9 h40.7v40.7h-40.7z M529.1,284.9 h40.7v40.7h-40.7z M569.8,284.9 h40.7v40.7h-40.7z M610.5,284.9 h40.7v40.7h-40.7z M651.2,284.9 h40.7v40.7h-40.7z M691.9,284.9 h40.7v40.7h-40.7z M81.4,325.6 h40.7v40.7h-40.7z M122.1,325.6 h40.7v40.7h-40.7z M162.8,325.6 h40.7v40.7h-40.7z M203.5,325.6 h40.7v40.7h-40.7z M244.2,325.6 h40.7v40.7h-40.7z M284.9,325.6 h40.7v40.7h-40.7z M325.6,325.6 h40.7v40.7h-40.7z M366.3,325.6 h40.7v40.7h-40.7z M407,325.6 h40.7v40.7h-40.7z M447.7,325.6 h40.7v40.7h-40.7z M488.4,325.6 h40.7v40.7h-40.7z M529.1,325.6 h40.7v40.7h-40.7z M569.8,325.6 h40.7v40.7h-40.7z M610.5,325.6 h40.7v40.7h-40.7z M651.2,325.6 h40.7v40.7h-40.7z M691.9,325.6 h40.7v40.7h-40.7z M732.6,325.6 h40.7v40.7h-40.7z M773.3,325.6 h40.7v40.7h-40.7z M81.4,366.3 h40.7v40.7h-40.7z M122.1,366.3 h40.7v40.7h-40.7z M162.8,366.3 h40.7v40.7h-40.7z M203.5,366.3 h40.7v40.7h-40.7z M244.2,366.3 h40.7v40.7h-40.7z M284.9,366.3 h40.7v40.7h-40.7z M325.6,366.3 h40.7v40.7h-40.7z M366.3,366.3 h40.7v40.7h-40.7z M407,366.3 h40.7v40.7h-40.7z M447.7,366.3 h40.7v40.7h-40.7z M488.4,366.3 h40.7v40.7h-40.7z M529.1,366.3 h40.7v40.7h-40.7z M569.8,366.3 h40.7v40.7h-40.7z M610.5,366.3 h40.7v40.7h-40.7z M651.2,366.3 h40.7v40.7h-40.7z M691.9,366.3 h40.7v40.7h-40.7z M732.6,366.3 h40.7v40.7h-40.7z M40.7,407 h40.7v40.7h-40.7z M81.4,407 h40.7v40.7h-40.7z M122.1,407 h40.7v40.7h-40.7z M162.8,407 h40.7v40.7h-40.7z M203.5,407 h40.7v40.7h-40.7z M244.2,407 h40.7v40.7h-40.7z M284.9,407 h40.7v40.7h-40.7z M325.6,407 h40.7v40.7h-40.7z M366.3,407 h40.7v40.7h-40.7z M407,407 h40.7v40.7h-40.7z M447.7,407 h40.7v40.7h-40.7z M488.4,407 h40.7v40.7h-40.7z M529.1,407 h40.7v40.7h-40.7z M569.8,407 h40.7v40.7h-40.7z M610.5,407 h40.7v40.7h-40.7z M651.2,407 h40.7v40.7h-40.7z M691.9,407 h40.7v40.7h-40.7z M40.7,447.7 h40.7v40.7h-40.7z M81.4,447.7 h40.7v40.7h-40.7z M122.1,447.7 h40.7v40.7h-40.7z M162.8,447.7 h40.7v40.7h-40.7z M203.5,447.7 h40.7v40.7h-40.7z M244.2,447.7 h40.7v40.7h-40.7z M284.9,447.7 h40.7v40.7h-40.7z M325.6,447.7 h40.7v40.7h-40.7z M366.3,447.7 h40.7v40.7h-40.7z M407,447.7 h40.7v40.7h-40.7z M447.7,447.7 h40.7v40.7h-40.7z M488.4,447.7 h40.7v40.7h-40.7z M529.1,447.7 h40.7v40.7h-40.7z M569.8,447.7 h40.7v40.7h-40.7z M610.5,447.7 h40.7v40.7h-40.7z M651.2,447.7 h40.7v40.7h-40.7z M691.9,447.7 h40.7v40.7h-40.7z M40.7,488.4 h40.7v40.7h-40.7z M81.4,488.4 h40.7v40.7h-40.7z M122.1,488.4 h40.7v40.7h-40.7z M162.8,488.4 h40.7v40.7h-40.7z M203.5,488.4 h40.7v40.7h-40.7z M244.2,488.4 h40.7v40.7h-40.7z M284.9,488.4 h40.7v40.7h-40.7z M325.6,488.4 h40.7v40.7h-40.7z M366.3,488.4 h40.7v40.7h-40.7z M407,488.4 h40.7v40.7h-40.7z M447.7,488.4 h40.7v40.7h-40.7z M488.4,488.4 h40.7v40.7h-40.7z M529.1,488.4 h40.7v40.7h-40.7z M569.8,488.4 h40.7v40.7h-40.7z M610.5,488.4 h40.7v40.7h-40.7z M651.2,488.4 h40.7v40.7h-40.7z M0,529.1 h40.7v40.7h-40.7z M40.7,529.1 h40.7v40.7h-40.7z M81.4,529.1 h40.7v40.7h-40.7z M122.1,529.1 h40.7v40.7h-40.7z M162.8,529.1 h40.7v40.7h-40.7z M203.5,529.1 h40.7v40.7h-40.7z M244.2,529.1 h40.7v40.7h-40.7z M284.9,529.1 h40.7v40.7h-40.7z M325.6,529.1 h40.7v40.7h-40.7z M366.3,529.1 h40.7v40.7h-40.7z M407,529.1 h40.7v40.7h-40.7z M447.7,529.1 h40.7v40.7h-40.7z M488.4,529.1 h40.7v40.7h-40.7z M529.1,529.1 h40.7v40.7h-40.7z M569.8,529.1 h40.7v40.7h-40.7z M610.5,529.1 h40.7v40.7h-40.7z M651.2,529.1 h40.7v40.7h-40.7z M40.7,569.8 h40.7v40.7h-40.7z M81.4,569.8 h40.7v40.7h-40.7z M122.1,569.8 h40.7v40.7h-40.7z M162.8,569.8 h40.7v40.7h-40.7z M203.5,569.8 h40.7v40.7h-40.7z M244.2,569.8 h40.7v40.7h-40.7z M284.9,569.8 h40.7v40.7h-40.7z M325.6,569.8 h40.7v40.7h-40.7z M366.3,569.8 h40.7v40.7h-40.7z M407,569.8 h40.7v40.7h-40.7z M447.7,569.8 h40.7v40.7h-40.7z M488.4,569.8 h40.7v40.7h-40.7z M529.1,569.8 h40.7v40.7h-40.7z M569.8,569.8 h40.7v40.7h-40.7z M610.5,569.8 h40.7v40.7h-40.7z M651.2,569.8 h40.7v40.7h-40.7z M40.7,610.5 h40.7v40.7h-40.7z M81.4,610.5 h40.7v40.7h-40.7z M122.1,610.5 h40.7v40.7h-40.7z M162.8,610.5 h40.7v40.7h-40.7z M203.5,610.5 h40.7v40.7h-40.7z M244.2,610.5 h40.7v40.7h-40.7z M284.9,610.5 h40.7v40.7h-40.7z M325.6,610.5 h40.7v40.7h-40.7z M366.3,610.5 h40.7v40.7h-40.7z M407,610.5 h40.7v40.7h-40.7z M447.7,610.5 h40.7v40.7h-40.7z M488.4,610.5 h40.7v40.7h-40.7z M529.1,610.5 h40.7v40.7h-40.7z M569.8,610.5 h40.7v40.7h-40.7z M610.5,610.5 h40.7v40.7h-40.7z M651.2,610.5 h40.7v40.7h-40.7z M691.9,610.5 h40.7v40.7h-40.7z M40.7,651.2 h40.7v40.7h-40.7z M81.4,651.2 h40.7v40.7h-40.7z M122.1,651.2 h40.7v40.7h-40.7z M162.8,651.2 h40.7v40.7h-40.7z M203.5,651.2 h40.7v40.7h-40.7z M244.2,651.2 h40.7v40.7h-40.7z M284.9,651.2 h40.7v40.7h-40.7z M325.6,651.2 h40.7v40.7h-40.7z M366.3,651.2 h40.7v40.7h-40.7z M407,651.2 h40.7v40.7h-40.7z M447.7,651.2 h40.7v40.7h-40.7z M488.4,651.2 h40.7v40.7h-40.7z M529.1,651.2 h40.7v40.7h-40.7z M569.8,651.2 h40.7v40.7h-40.7z M610.5,651.2 h40.7v40.7h-40.7z M651.2,651.2 h40.7v40.7h-40.7z M691.9,651.2 h40.7v40.7h-40.7z M40.7,691.9 h40.7v40.7h-40.7z M81.4,691.9 h40.7v40.7h-40.7z M122.1,691.9 h40.7v40.7h-40.7z M162.8,691.9 h40.7v40.7h-40.7z M203.5,691.9 h40.7v40.7h-40.7z M244.2,691.9 h40.7v40.7h-40.7z M284.9,691.9 h40.7v40.7h-40.7z M325.6,691.9 h40.7v40.7h-40.7z M366.3,691.9 h40.7v40.7h-40.7z M407,691.9 h40.7v40.7h-40.7z M447.7,691.9 h40.7v40.7h-40.7z M488.4,691.9 h40.7v40.7h-40.7z M529.1,691.9 h40.7v40.7h-40.7z M569.8,691.9 h40.7v40.7h-40.7z M610.5,691.9 h40.7v40.7h-40.7z M651.2,691.9 h40.7v40.7h-40.7z M691.9,691.9 h40.7v40.7h-40.7z M732.6,691.9 h40.7v40.7h-40.7z M40.7,732.6 h40.7v40.7h-40.7z M81.4,732.6 h40.7v40.7h-40.7z M122.1,732.6 h40.7v40.7h-40.7z M162.8,732.6 h40.7v40.7h-40.7z M203.5,732.6 h40.7v40.7h-40.7z M244.2,732.6 h40.7v40.7h-40.7z M284.9,732.6 h40.7v40.7h-40.7z M325.6,732.6 h40.7v40.7h-40.7z M366.3,732.6 h40.7v40.7h-40.7z M407,732.6 h40.7v40.7h-40.7z M447.7,732.6 h40.7v40.7h-40.7z M488.4,732.6 h40.7v40.7h-40.7z M529.1,732.6 h40.7v40.7h-40.7z M569.8,732.6 h40.7v40.7h-40.7z M610.5,732.6 h40.7v40.7h-40.7z M651.2,732.6 h40.7v40.7h-40.7z M691.9,732.6 h40.7v40.7h-40.7z M732.6,732.6 h40.7v40.7h-40.7z M773.3,732.6 h40.7v40.7h-40.7z M81.4,773.3 h40.7v40.7h-40.7z M122.1,773.3 h40.7v40.7h-40.7z M162.8,773.3 h40.7v40.7h-40.7z M203.5,773.3 h40.7v40.7h-40.7z M244.2,773.3 h40.7v40.7h-40.7z M284.9,773.3 h40.7v40.7h-40.7z M325.6,773.3 h40.7v40.7h-40.7z M366.3,773.3 h40.7v40.7h-40.7z M407,773.3 h40.7v40.7h-40.7z M447.7,773.3 h40.7v40.7h-40.7z M488.4,773.3 h40.7v40.7h-40.7z M529.1,773.3 h40.7v40.7h-40.7z M569.8,773.3 h40.7v40.7h-40.7z M610.5,773.3 h40.7v40.7h-40.7z M651.2,773.3 h40.7v40.7h-40.7z M691.9,773.3 h40.7v40.7h-40.7z M732.6,773.3 h40.7v40.7h-40.7z M773.3,773.3 h40.7v40.7h-40.7z M81.4,814 h40.7v40.7h-40.7z M122.1,814 h40.7v40.7h-40.7z M162.8,814 h40.7v40.7h-40.7z M203.5,814 h40.7v40.7h-40.7z M244.2,814 h40.7v40.7h-40.7z M284.9,814 h40.7v40.7h-40.7z M325.6,814 h40.7v40.7h-40.7z M366.3,814 h40.7v40.7h-40.7z M407,814 h40.7v40.7h-40.7z M447.7,814 h40.7v40.7h-40.7z M488.4,814 h40.7v40.7h-40.7z M529.1,814 h40.7v40.7h-40.7z M569.8,814 h40.7v40.7h-40.7z M610.5,814 h40.7v40.7h-40.7z M651.2,814 h40.7v40.7h-40.7z M691.9,814 h40.7v40.7h-40.7z M732.6,814 h40.7v40.7h-40.7z M773.3,814 h40.7v40.7h-40.7z M122.1,854.7 h40.7v40.7h-40.7z M162.8,854.7 h40.7v40.7h-40.7z M203.5,854.7 h40.7v40.7h-40.7z M244.2,854.7 h40.7v40.7h-40.7z M284.9,854.7 h40.7v40.7h-40.7z M325.6,854.7 h40.7v40.7h-40.7z M366.3,854.7 h40.7v40.7h-40.7z M407,854.7 h40.7v40.7h-40.7z M447.7,854.7 h40.7v40.7h-40.7z M488.4,854.7 h40.7v40.7h-40.7z M529.1,854.7 h40.7v40.7h-40.7z M569.8,854.7 h40.7v40.7h-40.7z M610.5,854.7 h40.7v40.7h-40.7z M651.2,854.7 h40.7v40.7h-40.7z M691.9,854.7 h40.7v40.7h-40.7z M732.6,854.7 h40.7v40.7h-40.7z M122.1,895.4 h40.7v40.7h-40.7z M162.8,895.4 h40.7v40.7h-40.7z M203.5,895.4 h40.7v40.7h-40.7z M244.2,895.4 h40.7v40.7h-40.7z M284.9,895.4 h40.7v40.7h-40.7z M325.6,895.4 h40.7v40.7h-40.7z M366.3,895.4 h40.7v40.7h-40.7z M407,895.4 h40.7v40.7h-40.7z M447.7,895.4 h40.7v40.7h-40.7z M488.4,895.4 h40.7v40.7h-40.7z M529.1,895.4 h40.7v40.7h-40.7z M569.8,895.4 h40.7v40.7h-40.7z M610.5,895.4 h40.7v40.7h-40.7z M651.2,895.4 h40.7v40.7h-40.7z M691.9,895.4 h40.7v40.7h-40.7z M162.8,936.1 h40.7v40.7h-40.7z M203.5,936.1 h40.7v40.7h-40.7z M244.2,936.1 h40.7v40.7h-40.7z M284.9,936.1 h40.7v40.7h-40.7z M325.6,936.1 h40.7v40.7h-40.7z M366.3,936.1 h40.7v40.7h-40.7z M407,936.1 h40.7v40.7h-40.7z M447.7,936.1 h40.7v40.7h-40.7z M488.4,936.1 h40.7v40.7h-40.7z M529.1,936.1 h40.7v40.7h-40.7z M569.8,936.1 h40.7v40.7h-40.7z M610.5,936.1 h40.7v40.7h-40.7z M651.2,936.1 h40.7v40.7h-40.7z M691.9,936.1 h40.7v40.7h-40.7z M203.5,976.8 h40.7v40.7h-40.7z M244.2,976.8 h40.7v40.7h-40.7z M284.9,976.8 h40.7v40.7h-40.7z M325.6,976.8 h40.7v40.7h-40.7z M529.1,976.8 h40.7v40.7h-40.7z M569.8,976.8 h40.7v40.7h-40.7z M610.5,976.8 h40.7v40.7h-40.7z M651.2,976.8 h40.7v40.7h-40.7z" fill="#000000"/>
</svg>